<?xml version="1.0" encoding="UTF-8" standalone="no"?>
<svg
   inkscape:version="1.3 (0e150ed, 2023-07-21)"
   sodipodi:docname="Tasmania-None-Select.svg"
   xml:space="preserve"
   style="enable-background:new 0 0 853 937.2;"
   viewBox="0 0 853 937.2"
   y="0px"
   x="0px"
   id="svg13"
   version="1.1"
   xmlns:inkscape="http://www.inkscape.org/namespaces/inkscape"
   xmlns:sodipodi="http://sodipodi.sourceforge.net/DTD/sodipodi-0.dtd"
   xmlns:xlink="http://www.w3.org/1999/xlink"
   xmlns="http://www.w3.org/2000/svg"
   xmlns:svg="http://www.w3.org/2000/svg"
   xmlns:rdf="http://www.w3.org/1999/02/22-rdf-syntax-ns#"
   xmlns:cc="http://creativecommons.org/ns#"
   xmlns:dc="http://purl.org/dc/elements/1.1/"><metadata
   id="metadata2045"><rdf:RDF><cc:Work
       rdf:about=""><dc:format>image/svg+xml</dc:format><dc:type
         rdf:resource="http://purl.org/dc/dcmitype/StillImage" /></cc:Work></rdf:RDF></metadata><defs
   id="defs2043"><linearGradient
     id="linearGradient1"
     inkscape:collect="always"><stop
       style="stop-color:#000000;stop-opacity:1;"
       offset="0"
       id="stop1" /><stop
       style="stop-color:#000000;stop-opacity:0;"
       offset="1"
       id="stop2" /></linearGradient><linearGradient
     inkscape:collect="always"
     xlink:href="#linearGradient1"
     id="linearGradient2"
     x1="51.700053"
     y1="524.89999"
     x2="775.09994"
     y2="524.89999"
     gradientUnits="userSpaceOnUse" /></defs>&#10;<style
   id="style2020"
   type="text/css">&#10;	.st0{fill:#C6ECFF;stroke:#000000;stroke-linecap:round;stroke-linejoin:round;}&#10;	.st1{fill:#FEFEE9;stroke:#0978AB;stroke-width:0.9999;stroke-linecap:round;stroke-linejoin:round;}&#10;	.st2{fill:#FEFEE9;stroke:#0978AB;stroke-linecap:round;stroke-linejoin:round;}&#10;	.st3{fill:none;stroke:#000000;stroke-width:3;}&#10;	.st4{font-family:'Arial';}&#10;	.st5{font-size:40px;}&#10;</style>&#10;<sodipodi:namedview
   showgrid="false"
   pagecolor="#ffffff"
   objecttolerance="10"
   inkscape:zoom="1.136"
   inkscape:window-y="0"
   inkscape:window-x="0"
   inkscape:window-width="3840"
   inkscape:window-maximized="1"
   inkscape:window-height="2098"
   inkscape:pageshadow="2"
   inkscape:pageopacity="0"
   inkscape:document-rotation="0"
   inkscape:cy="579.22536"
   inkscape:cx="170.33451"
   inkscape:current-layer="svg13"
   id="namedview15"
   guidetolerance="10"
   gridtolerance="10"
   borderopacity="1"
   bordercolor="#666666"
   inkscape:pagecheckerboard="0"
   inkscape:showpageshadow="0"
   inkscape:deskcolor="#d1d1d1">&#10;	</sodipodi:namedview>&#10;&#10;<g
   transform="matrix(1 0 0 1.22139 -14.09 -173.694)"
   id="E_FINAL_region"
   style="fill:#bca371;fill-opacity:1;stroke:none;stroke-opacity:1">&#10;	&#10;		<path
   d="   M586.8,164.6c-0.1,1.1-0.3,2.3-0.3,3.3c-0.8,0.7-1.7,1.3-2.7,1.7c-1.1,0.5-2.1,0.9-3.2,1.4c1.6,1,3.3,2,4.8,3   c0.5-0.3,1-0.6,1.5-0.8c0.4,0.3,0.6,1.3,1.1,1.1l1.9-1.8c0.3,0.7,0.5,1.4,0.9,2c0.7-0.6,0.7,0.1,0.8,0.8c0.2,0.5,0,1.4,0.5,1.6   c0.8,0.4,1.5,0.7,2.3,1.1c0.7-0.5,1.4-1.1,2.2-1.6c0.5,0.1,1.2-0.3,1.7-0.4c0.6-0.2,1.3-0.4,1.9-0.5c-0.1-0.6-0.2-1.2-0.4-1.9   c0.6-0.3,1.3-0.6,1.9-1c-0.4-0.5-0.6-1-1-1.5c0.4-0.9,0.8-1.8,1.2-2.7c-1.4-0.8-2.6-1.5-4-2.3c-0.3-0.4-0.3-1.4-0.7-1.5   c-0.8,0.2-1.7,0.6-2.5,0.7c-0.5,0-1.2-0.4-1.6-0.1c-0.4,0.2-0.9,1.3-1.2,0.5c0.1-0.9,0.3-1.8,0.4-2.6c-1.8,0-3.7,0-5.5-0.1   C586.9,163.5,586.9,164.1,586.8,164.6L586.8,164.6z M697.1,197.8c-0.5,0.4-1.1,0.1-1.6,0.1c-1.2-0.1-2.3-0.1-3.5-0.2l1.5,2.3   c-0.5,0.1-1.2,0-1.5,0.3c-0.1,1.6-0.2,3.1-0.3,4.7c2.1,0,4.2-0.1,6.2-0.1c0.5-0.6,0.8-1.6,1.7-1.8c0.5-0.2,1.3-0.3,1.7-0.7   c0.3-0.8,0.5-1.5,0.7-2.3c-0.7-0.8-1.4-1.7-2.1-2.4c-0.7-0.2-1.4-0.5-2.2-0.7C697.5,197.3,697.2,197.5,697.1,197.8L697.1,197.8z    M682.2,204.7c-0.5,0.4-1.1-0.1-1.6,0c-0.5-0.1-1.4-0.4-1,0.5c0.2,1.6,0.2,3.2,0.4,4.7c0.5,0.5,0.6,1.5,1.4,1.5   c0.8,0.2,1.7,0.5,2.5,0.7c0.5-0.1,1-1,1.4-0.4c0.5,0.4,1.1,0,1.5,0.1c0.4,0.1,1.6-0.4,1.2,0.3c-0.5,0.8-0.7,1.7-1.5,2.2   c-0.5,0.4-1,1.1-1.8,1c-0.8,0-1.5,0.3-2.3,0.8c-0.7,0.2-1.1,0.9-1.5,1.5c-0.5,0.2-1.1,0.5-1.4-0.3c-0.5-0.8-1.1-1.6-1.6-2.3   c-0.5,0.4-1.1,0.9-1.7,1.2c-0.7-0.1-1.4-0.2-2.1-0.2c-0.3,1-0.6,2-0.9,3.1c0.6,0.9,1.1,2.1,2.1,2.7c1,0.4-0.5,0.6,0.3,1.1   c0.2,0.5,1,1,0.7,1.4c-0.8,0.9-2,1.2-3,1.8c-0.7,0.1-0.8,0.7-0.8,1.4c-0.1,0.7-0.1,1.4-0.2,2.1c0.3,0.3,1.4,0.7,1,1   c-0.5-0.2-1-0.7-1.4-0.7c-0.5,0.3-0.7,1.2-1.3,0.8c-0.6-0.2-1.2-0.6-1.8-0.3c-0.7,0.2-1.5,0.3-2.3,0.5c-0.1,0.5,0.2,1.3-0.2,1.7   c-0.5,0.3-0.9,0.9-1.5,0.6c-0.5,0-1.2-0.5-1.5,0.1c-0.5,0.7-1.2,1.2-1.5,1.9c0,0.6-0.1,1.2-0.7,1.4c-1.5,0.7-3.1,1.3-4.7,2   c1,0.9,2,1.7,2.9,2.6c0.4,0.8,0.7,1.6,1.2,2.4c0.5,0.1,1.2,0,1.6,0.3c0.4,0.6,1.1,0.4,1.6,0.6c0.8,0.2,1.6,0.7,2.3,1.1   c0.6,0.8,0.9,1.9,1.4,2.9c1.3-0.4,2.5-0.6,3.7-1.4c1.4-0.8,2.8-1.9,4.4-2.1c0.6-0.2,1,0.3,1.4,0.8c0.8,0.9,2.2,1.2,2.7,2.4   c0.7,1,1.3,2.1,1.7,3.3c0.5,1.3,0.8,2.7,1.1,4.1c-0.6,0.3-0.5,0.9-0.5,1.5c-0.1,0.6,0.3,1.5-0.4,1.8c-0.6,0-1.2,0.1-1.8,0.1   c-0.3,0.3-0.2,1.7-0.6,1.2c-0.5-0.6-0.8-0.6-1.2,0.1c-1.2,1.4-2.3,2.9-3.4,4.3c1.6,0.6,3.3,1.1,4.9,1.8c0.8,0.7,1.4,1.6,2.4,1.9   c0.7,0.3,1.4,0.6,2.1,0.9c0.4-0.5,0.6-1.2,1.1-1.6c0.9-0.2,1.6,0.4,2.5,0.5c0.5,0.6,0.6,1.5,1,2.2c0.4,0.6,0.4,1.5,1,1.8   c0.2,2.2,0.2,4.4,0.3,6.7c1.5-0.4,3-0.8,4.5-1.3c0.5,0.3,1,0.8,1.6,0.6c0.5,0,0.5,1,0.7,1.4c0.2,0.6,0.3,1.4,1,0.9   c0.6-0.3,1-0.2,1.2,0.6c0.5,1.1,0.7,2.3,0.7,3.5c0,1.5-0.2,3-0.2,4.5c0.4,0.9,0.5,2,1.2,2.5c0.9,1.1,2.1,1.9,2.6,3.3   c0.4,0.7-0.2,0.9-0.7,1.1c-0.6,0.3-1.4,0.7-2,1c0.2,1,0.3,2.1,0.5,3c0.6,0.7,1.4,1.4,2,2.1c0.5-0.5,0.5,0.7,0.8,1   c0.4,0.7,0.7,1.3,1,2c0.7-0.1,1.4-0.4,2.2-0.4c0.3,0.6,0.5,1.2,0.7,1.8c0.8-0.1,1.6-0.5,2.3,0c0.5,0.1,1,0.5,1.2,1.1   c0.4,0.6,0.7,1.2,1,1.9c0.5-0.7,1.1-1.4,1.7-2.2c1.2,0.5,2.2,1.3,3.3,1.9c0.7-0.5,1.4-1.1,2-1.5c1.4-0.1,2.8-0.1,4.1-0.6   c0.8-0.1,1.2-1.1,1.7-1.6c0.4-0.5,1.1-0.3,1.6-0.5c0.5-0.1,1.2-0.2,1.7-0.3c0.2,0.5,0.2,1.5,0.9,1.1c1.7-0.1,3.3-0.2,5.1-0.2   c-0.1-0.4-0.9-1.5-0.3-1c0.6,0,1.4,0,1.9,0.5c0.7,0.4,1.4,0.8,2.1,1.3c1.3-0.7,2.6-1.3,3.9-2c-0.5-1-0.9-1.9-1.4-2.9   c0.9,0.1,1.8,0.4,2.7,0.1c1.4-0.4,2.9-1.1,4.3-1.6c1.5-1.1,3.2-2.3,4.7-3.4c-1.2-2.4-2.5-4.8-3.6-7.3c-0.2-1.2-0.5-2.3-0.9-3.4   c-0.8-2.4-1.6-4.9-2.3-7.3c-0.5-2-0.6-4.1-1-6.1c-0.1-1.8,0.1-3.7-0.4-5.4c-0.2-1.4-0.6-2.9-0.7-4.3c0-1.5,0.3-3,0.5-4.4   c0.4-1,0.6-2.1,1-3.1c-0.4-0.9-0.7-1.9-1.1-2.8c-1.4,0.2-2.7,0.5-4.1,0.7c-1.3-0.4-2.4-0.9-3.7-1c-2-0.7-3.7-1.7-5.6-2.7   c-0.6,0.2-1.3,0.8-1.9,0.5c-0.9-0.3-1.7-1-2.6-1.5c-1.4-1-2.7-2.2-4.1-3.3c-1.7-1.8-3.3-3.7-4.9-5.6c-1.3-1.6-2.5-3.2-4-4.6   c-2.1-2.2-4.4-4.3-6.5-6.5c-2-2.1-3.8-4.5-5.6-6.8c-1.1-1-2.3-1.9-3.3-3c-1.6-2.4-3.3-4.8-5-7.2c0,0.9-0.5,0.1-1.1,0.2   c-0.6-0.1-1.2-0.2-1.8-0.3c0.9-0.5,1.7-0.9,2.4-1.7l2.4-2.3c-1.4,0-2.7-0.1-4.1-0.1c-1-0.8-1.9-1.5-2.9-2.3c-0.9,0.3-1.7,1-2.7,0.8   c-0.4-0.6-0.7-1.3-1.1-1.9C683.1,204,682.7,204.3,682.2,204.7L682.2,204.7z M747.8,247.9c-0.4,0.6-0.6,1.3-1.1,1.8   c-0.7,0.3-1.4,0.5-2.2,0.8c1.1,1.9,2.1,3.7,3.2,5.6c0.6-0.4,1.2-0.9,1.8-1.2c0.7,0.1,1.5,0.3,2.3,0.4c0.9-1.2,1.7-2.4,2.6-3.6   c-0.7-0.6-1.5-1.2-2.2-1.9c-0.2-0.6-0.3-1.3-0.9-1.5c-0.8-0.7-1.6-1.4-2.5-2.1L747.8,247.9z M663.2,262.8l-2.7,1.5   c0,1,0.4,2.1-0.1,3.1c-0.4,1.1-1.2,1.9-1.7,2.9c-0.5,0.7-0.6,1.6-0.9,2.3c0.5,0.6-0.4,0.8-0.8,1.1c-0.8,0.4-1.5,0.9-2.3,1.3   c0.1,1.5,0.1,2.9,0.2,4.4c1.2,0.1,2.3,0.3,3.5,0.3c0.5-0.3,1-0.8,1.4-0.1c0.5,0.4,0.9-0.5,1.4-0.7c0.6-0.5,1.4-0.8,1.6-1.7   c0.4-0.9,0.8-1.8,1.2-2.7c-0.2-0.5-0.9-1-0.6-1.4c0.8-0.4,0.9-1.4,1.3-2.2c0.6-0.5,1.1-1.4,1.9-1.5c0.9-0.2,1.8-0.5,2.7-0.7   c-1.2-1.2-2.3-2.4-3.4-3.7v-3.4C664.7,261.9,663.9,262.3,663.2,262.8L663.2,262.8z M740.3,278.6c-0.5,0.6-1.2,0.3-1.7,0.5   c-0.5,0.1-1.1,0.1-1.4,0.6c-0.3,0.3-1.4,0.3-0.9-0.3c1.2-0.2,2.2-1,3.3-1.5c0.6-0.5,1-0.4,0.9,0.5L740.3,278.6L740.3,278.6z    M683.3,289c-0.6,0.4-1.4,0.5-2,1c-1.3,1.8-2.5,3.5-3.8,5.3c2.3-0.5,4.5-1.1,6.9-1.5c2.3,0.4,4.6,0.7,6.9,1.1l-7-6.3   C684,288.8,683.7,288.9,683.3,289L683.3,289z M693,291.9c0.5,1.3,0.9,2.5,1.4,3.8c1.5-1,3-2.1,4.5-3.1c-0.8-1-1.6-2-2.3-3   c-1.4-0.1-2.9-0.2-4.4-0.3C692.4,290.1,692.7,291,693,291.9z M734.7,298.2c-0.1,0.4,0.2,1.3-0.2,1.4c-1.4,0.2-2.8,0.3-4.2,0.5   c0.3,0.4,1.2,1.1,0.2,1.1c-0.4,0-1.6,0.6-0.9-0.1c0.6-0.5,0.5-1,0-1.5c0.5-0.6,1.1-1.1,1.8-1.3c1,0,2.1,0.1,3.1-0.2   C734.6,298.1,734.7,298.1,734.7,298.2z M687.5,303l-3.8,2.1c0.1,0.6,0.5,1.3-0.1,1.6c-0.2,0.4-1.4,0.8-0.6,1.2   c0.3,0.3,1.4,1.1,0.5,0.8c-0.6-0.2-1.4-0.4-2-0.6c-0.2,0.7-0.3,1.5-0.5,2.2c-0.5-0.1-1.3,0.5-1.4,0c-0.3-0.5-0.4-1.4-1-1   c-0.6,0.1-1.3,0.3-1.9,0.3c-0.5-0.3-1-0.8-1.5-1c-1.1,0.3-2.1,0.6-3.2,1l0.8,4.2c0.4,0.2,1.5,0.1,0.7,0.6l-2.6,2.6   c1.9,0.1,3.8,0.3,5.6,0.3c0.6-0.1,1.2-0.6,1.7-0.2c0.6,0.2,1.3,0.7,2,0.8c1.5-0.5,3-1.1,4.5-1.6c0.2-0.9,0.3-1.8,0.5-2.7   c0.3-0.5,0.8-0.9,1-1.4c-0.2-0.6-0.3-1.3-0.5-1.9h2.2c0.9-1.1,1.9-2.3,2.8-3.4c-0.5-1.7-1-3.3-1.5-5   C688.7,302.3,688,302.6,687.5,303z M742.2,303.9c-0.3,0.9-0.4,1.9-0.8,2.7c-0.9,1.1-1.7,2.3-2.6,3.4c1.2,0.5,2.3,1.1,3.4,1.6   c0.9,0.1,1.8-0.1,2.6,0.4c-0.4,0.3-0.5,1.4-1.1,1c-0.8-0.4-1.6,0.1-2.5,0.2c-0.7,0.7-1.6,1.3-2,2.3c-0.4,0.6-0.9,0.3-1.3-0.1   c-0.6,0.1-0.8-0.5-1.1-1.1c-0.3-0.3-0.5-1.6-0.9-1.2c-0.4,0.2-1,1.3-1.1,0.9c0.2-0.8-0.8-0.4-1.3-0.6c-0.5-0.1-1.2,0-1.6-0.5   l-2.2-1.8c-0.3,1.8-0.4,3.6-0.7,5.4c-0.3,0.6-0.3,1.4-0.7,1.9l-1.6-1.5c-0.8,0.3-1.5,1.1-2.4,0.8c-0.4-0.4-0.7-1-1.2-1.2   c-0.8,0.2-1.6,0.8-2.4,0.2c-0.6-0.3-1.2-0.9-1.9-0.7c-0.7,0-1.4-0.1-2,0.4c-0.5,0.3-1.4,0.8-1.9,0.3s-1.1,0.1-1.6,0.3   c-0.8,0.5-1.7,0-2.5-0.1c-0.5-0.1-1.2-0.4-1.4,0.4c-0.2,0.6-0.6,0.8-1.2,0.9c-0.5,0.4-0.9,1.1-1.4,1.3c-0.6-0.1-1.4-0.7-2-0.2   c-0.5,0.4-1,0.2-1.5,0c-1-0.4-2-1-3.1-0.8c-0.6,0-1.4-0.1-1.9,0c-0.5,0.6-0.9,1.3-1.5,1.7c-0.5-0.1-1.1-0.7-1.4,0   c-1.1,1.1-2.2,2.3-3.3,3.4c1.2,0.3,2.4,0.6,3.6,0.9c-0.7,0.6-1.1,1.7-1.6,2.5c-0.5,0.6,0.5,0.8,0.7,1.2c0.1,0.9,0.5,1.8,0,2.6   c-0.4,0.6-0.4,1.1,0.1,1.6c0.3,0.5,0.5,1.1,0.8,1.5c1.1,0.2,2.3,0.4,3.3,0.7c0.3-0.5,0.3-1.3,1-1.3c0.3,0-0.6,0.9-0.9,1.2   c-0.1,0.4,1,0.4,1.4,0.6c1,0.3,1.9,0.6,2.9,0.8c-0.4,0.6,0.1,1.1,0.4,1.6c0.4,0.4,0.5,1.2,1,1.2c0.5,0.1,1.2,0,1.7,0.1   c-0.5,0.1-1.2,0-1.6,0.3c-0.2,1.1-0.5,2.2-0.6,3.2c1.3,0.7,2.4,1.4,3.7,2.1c0.5-0.4,1-0.1,1.4,0.3c1.4,1,3,1.7,4.4,2.5   c-0.6,0.7-1.4,1.3-1.8,2l-0.5,3.6c1.1,0.3,2.2,0.7,3.3,0.9l-0.8,3.9c1.2,0.5,2.4,1,3.6,1.4c0.7-0.2,1.4-0.8,2.1-0.4   c0.5,0.4,1-0.2,1.4,0.2c0.8,0.9,1.7,1.6,2.6,2.4c0.6,0.8,1.2,1.6,1.8,2.4c1-0.5,1.8-1.4,3-1.5c1.6-0.3,3.2-0.7,4.8-1   c-1.1-0.9-2.3-1.8-3.3-2.7c0.7-0.9,1.3-1.8,2-2.6c0.9-0.7,2.1-1.1,2.7-2.1c0.8-1,1.5-2,2.3-3.1c-0.5-0.4-0.9-0.9-1.4-1.3   c0.4-0.6,0.3-1.4,0.4-2.1c0.6-0.4,1.4-0.7,1.9-1.2c0.1-1,0.5-1.9,0.5-2.9c-0.3-1.3-0.5-2.5-0.8-3.8c1.2-0.7,1.8-2.1,3-2.7   c0.5-0.4,1.2-0.7,1.7-1.1c0.4,0.6,0.8,0.8,1.4,0.4c0.8-0.3,1.5-0.5,2.3-0.8c0.7,1.8,1.8,3.4,2.7,5c0,0.9,0.2,2,0.1,2.9   c-0.4,0.4-0.6,1.1-1.3,0.6c-0.5-0.2-1.1-0.4-1.7-0.6c-0.9,1.3-1.9,2.7-2.8,4c0.3,0.4,1.2,0.6,0.7,1.2l-0.8,2.3   c1.8,0.1,3.6,0.3,5.4,0.4c0-1.3-0.1-2.6-0.1-3.9c0.7,0.1,0.4,1.1,0.9,1.4c0.8,1,1.7,1.9,2.5,2.9c0.8-0.8,1.6-1.6,2.4-2.5   c-0.3-1.3-0.6-2.6-0.9-3.9c1.2-0.6,2.2-1.5,3.3-1.8c0.3,0.4,0.2,1.1,0.3,1.6c0.3,0.4,1.1,0,1.5,0.1c1,0,2.1-0.1,3.1-0.1   c0.1-1.1,0.1-2.2,0.4-3.2c0.5-0.4,0.8-1,1.5-0.8c0.6,0.1,1.2,0,1.7-0.4c0.7-0.4,1.4-0.8,2.1-1.2c0-0.9,0-1.7-0.1-2.6   c0.7-0.3,1.4,0.2,2.3,0.2c0.9,0.1,1.6,0.6,2.4,0.9c1-1,2-2.1,3-3.1c-0.5-0.9-0.9-1.8-1.4-2.6c-0.7-0.2-1.5-0.2-2.2-0.4   c-0.5-0.4-0.6-0.9-0.5-1.5c0.1-0.7,0.2-1.3-0.5-1.4c-0.4-0.3-1.2-0.3-1.1-1c-0.2-1.1,0.5-2,0.7-3c0.3-0.7,0.5-1.3,0.7-2   c-1.4,0-2.8,0.2-4.2,0.2c-0.8-0.4-1.6-0.9-2.4-1.2c-0.5,0-1.2,0.6-1.6,0c-0.6-0.4-1.2-0.9-1.5-1.7c-0.8-0.9-1.7-1.7-2.5-2.5   c-0.6-0.2-1.4-0.1-1.7-0.8c-0.5-0.7-0.5-1.7-0.8-2.5c-0.1-0.8-0.9-0.8-1.4-1.2c-0.2,0.1-1.2-0.8-0.5-0.1c0.5,0.9-0.5,0.2-0.6-0.3   c-0.7-0.7,0.1-0.4,0.6-0.2c-0.4-0.7-0.6-1.5-1.1-2.1c-0.9-0.2-1.7-0.6-2.3-1.4c-0.5-0.7-1-1.2-1.4-1.8c-0.5-0.9-0.8-1.9-1.4-2.8   c-1.1-0.7-2.1-1.5-3.3-1.9c-0.6-0.2-1.2-0.4-1.8-0.6C742.6,302.8,742.4,303.4,742.2,303.9L742.2,303.9z M721.9,308.1   c-0.9,0.1-1.8,0.1-2.6,0.7c-0.8,0.5-1.6,1-2.4,1.4c-0.5-0.5-1.1-0.9-1.6-1.4c-1.3,1-2.4,2.1-3.7,3.1c0.2,1,0.5,1.9,0.6,2.9   c1.1,0.3,2.3,0.6,3.3,0.8c0.7-1,1.5-2,2.3-2.9c0.6,0.3,1.2,0.8,1.8,0.9c0.9-0.4,1.8-1,2.8-0.9c0.6,0,1.2-0.2,1.6-0.6l4.6-3   c-2.3-0.4-4.5-0.8-6.8-1.1L721.9,308.1L721.9,308.1z M664.4,312.3c0.8,1,1.5,2.2,2.3,3.1c1.3,0.5,2.4,0.9,3.7,1.4   c-0.5-1.9-0.9-3.8-1.4-5.6c-0.5-0.5-0.9-1.5-1.7-1.5c-1.9-0.5-3.9-0.9-5.8-1.4L664.4,312.3L664.4,312.3z M728.9,337   c0.2,0.7,0.5,1.3,1.1,1.7c0.5,0.4,0.3,1.3,0.5,1.9c0.2,0.5,0.9,0.4,1.4,0.7c0.6,0.3,1.2,0.2,0.5,0.7c-0.4,0.8-0.5,1.7-1.3,2.2   c-0.5-0.7-1-1.3-1.7-1.7c-0.5-0.4-1-0.6-1.5-0.4c-0.7,0.1-1.4,0-2,0.6c-0.6,0.5-1.3,1-2.1,1.1c-1.3,0.5-2.6,0.2-3.9,0.2   c-0.7,0.2-1.4,0.3-2.2,0.5c-0.4,0.3-0.4,1.3-1,1.1c-0.5-0.1-1.2-0.2-1.7-0.2c-0.2,0.5-0.1,1.3-0.5,1.6c-1-2-1.8-4.1-3.1-5.9   c-0.3-0.4-0.7-1.2-0.8-1.3c0.5,0.1,1.1,0.3,1.5-0.1c0.6-0.4,1.2-0.8,1.9-0.8c1-0.2,2.1-0.2,3.1-0.5c0.5-0.2,0.8-1.3,1.3-0.8   c0.7,0.5,1.1,1.6,1.6,2.3c0.5,0,1.1-0.4,1.5-0.5c0.7-0.2,1.4-0.8,2.1-0.3c0.5,0.4,0.9-0.1,1.4-0.4c0.7-0.6,1.7-0.2,2.5-0.6   C727.9,337.7,728.2,336.6,728.9,337L728.9,337z M716,348.5c-0.5,0.7-0.8,0.8-1-0.1c-0.6-0.9,0.5-0.2,0.8,0   C715.9,348.5,715.9,348.5,716,348.5L716,348.5z M688.4,386.1c-0.4,0.6-0.7,1.3-1.2,1.9c0.5,1,1.1,2,1.5,2.9   c0.5-0.1,1.1-0.2,1.6-0.4c-0.1,0.7-0.6,0.9-1.2,1.1c-0.7,0.1-0.9,0.6-0.8,1.3c0,0.7-0.3,1.4-0.1,2.1c0.5,0.5-0.4,1-0.5,1.6   c-1,1.9-2.2,3.7-3.5,5.3c-1,1.3-2.1,2.5-3.3,3.5c-0.5,0.3-0.8,0.7-1,1.3c-1.4,0.8-2.9,1.7-4.4,2.4c-0.9,0.3-1.8,0.7-2.8,0.9   c-1.5,0-3-0.5-4.4-0.6c-0.9,0.2-1.8-0.3-2.6-0.5c-1.1-0.6-2.1-1.3-3.2-1.9c-0.1-0.6-0.2-1.3-0.4-1.9c-1.2,0-2.4-0.3-3.6-0.2   c-1.2,0.3-2.3,1-3.6,0.8c-0.6,0.1-1.1-0.2-1.5-0.6c-0.5-0.3-1-0.7-1.2-1.4c-0.4-0.7-0.5-1.5-1.3-1.8c-1.1-0.7-2.1-1.5-3.2-2.1   l-2.1-0.6c-1,0.8-1.7,2-2.9,2.4c-1.3,0.6-2.4,1.4-3.8,1.6c-0.9,0.1-1.8-0.1-2.7-0.1c-0.5,0.9-1,1.9-1.5,2.8   c-1.1-0.2-2.3-0.4-3.3-0.6c0.5,1.2,1.1,2.4,1.7,3.7c-0.7,1.1-1.3,2.3-2,3.3c-0.6,0.6-1.4,1.1-1.7,1.9c-0.6,1.2-1.4,2.3-2.3,3.3   c-1.6,1.9-3.1,4-4.9,5.6c-1.1,1.1-2.3,2.1-3.5,3c-2.2,1.2-4.2,2.6-6.6,3.5c-1.2,0.4-2.5,0.5-3.7,0.7c-0.7-0.1-1.4-0.1-2.1-0.2   c-0.5-0.6,0-1.1,0.2-1.7c-0.1-0.5-0.7-0.8-1.1-1.2c-0.5-0.6-1.1-1.2-1.9-1.3c-0.9-0.3-1.7-0.9-2.7-0.7c-0.3-0.5-0.7-1-0.4-1.7   c0.3-0.6,0.1-1.2-0.4-1.7c-0.6-1.1-1.3-2.1-2-3.2c-0.9,0.3-1.9,0.5-2.8,0.9c-0.9,1-2,2-3.3,2.2c-0.7,0.2-1.4,0.3-2.1,0.1   c-0.5,0-1-0.4-1.1-1c-0.3-0.8-0.5-1.7-0.7-2.5c-0.8,0.6-1.7,1.3-2.5,1.8c-1-0.1-1.6,0.7-2.4,1.1c-0.6,0.4-1.3,0.7-1.8,1.2   c-0.5,1.1-1,2.1-1.7,3c-0.7,1.1-1.7,1.9-2.6,2.8c-0.7,0.4-1.5,0.9-2.3,1.1c-0.5-0.1-1.1-0.5-1.5,0c-0.8,0.5-1.5,1.1-2.3,1.4   c-0.9-0.1-1.9-0.3-2.8-0.4c-0.2,0.5-0.1,1.6-0.7,0.9c-1.2-0.6-2.3-0.9-3.6-1.3c0.1-0.7,0.2-1.3,0.3-2c-1.4,0.3-2.8,0.6-4.2,0.9   l-2.4-1.2c-0.4,0.5-0.5,1.3-1.2,1.3c-0.5,0.1-0.9-0.6-1.4-0.9c-0.5-0.5-1.1-0.9-1.8-1c-0.5-0.2-1-0.4-1.4,0   c-0.5,0.3-1.3,0.5-1.8,0.4c-0.5-0.4-0.9-1.1-1.4-1.4c-0.9,0-1.9-0.2-2.8,0.4c-0.5,0.4-1,0.2-1.4-0.1c-0.5,0-0.9,0.6-1.4,0.9   c-0.5,0.4-1.2,0.6-1.2,1.4c-0.2,0.7-0.9,0.9-1.4,1.4c-0.7,0.7-1.5,1.4-2.4,1.8c-0.5,0.5-1.1,1.1-1.7,1.5c-0.9,0.1-1.7,0.6-2.6,0.8   c-0.7,0.2-1.4,0.3-2.2,0.2c-0.5-0.2-1.2-0.6-1.7-0.6c-0.5,0.3-0.9,0.5-1.4,0.4c-0.5-0.3-0.7-0.9-1.1-1.4c-0.9-0.1-1.8-0.2-2.8-0.4   c-0.5,0.8-0.9,1.8-1.7,2.1c-1.3,0.7-2.5,1.4-3.8,1.9c-0.7,0.3-1.5,0.4-2.2,0.8c-0.5,0.8-0.8,1.8-1.7,2.2c-0.6,0.4-1.4,0.9-2,1.3   c-0.1,1.4-0.3,2.8-0.4,4.2c0.5,0.7,1.4,1.3,1.6,2.1c-0.4,0.7-0.4-0.7-0.5-0.9c-1.1-0.9-2.1-2-3.1-2.8c-1-0.3-2-0.6-3-1   c-0.5,0.4-1.2,0.7-1.7,1.1c-0.3-0.5-0.5-1.2-1.1-1c-0.6,0.1-0.9-0.3-1.3-0.6c-0.5-0.2-1.4-0.2-1.5-0.9c-0.3-0.6-0.5-1.1-1.3-0.8   c-1.5,0.1-3.1,0.1-4.7,0.2c0.7,1,1.4,2.1,2.1,3.1c-0.8,0.8-1.5,1.7-2.5,2.1c-0.5,0.2-0.9,0.8-1.4,0.7c-1-0.5-2.1-1-3.1-1.4   c-0.5,2.2-0.8,4.3-1.3,6.5c0.8,0.1,1.6,0.1,2.4,0.4l3.8,3c0.1,1.1,0.4,2.1,0.4,3.2c-0.2,0.8-0.5,1.7-0.5,2.5   c3.1,6,6.1,11.9,9.2,17.9c-0.5,0.2-0.3,1-0.5,1.5c-1.3-0.2-2.6,0.1-3.8,0.6c-0.6,0.5-0.8-0.5-1.2-0.9c-0.5-0.6-0.8-1.3-1.3-1.9   c-0.6,2.8-1.2,5.5-1.8,8.3c0.5,0.3,1.2,0.5,0.8,1.3l-1.4,5.7c4.4,1.3,8.8,2.7,13.2,4c1.7,0.3,3.4,0.7,5.1,1   c0.2-0.7,0.7-0.6,1.3-0.5c0.8-0.1,1.2,0.9,1.9,0.9c2.5,0.4,5.1,0.9,7.6,1.3c1.6-0.3,3.3-0.6,4.9-1c0.4-0.3,0.8-1.1,1.2-0.3   c0.5,0.2,1.1,0.4,1.2,1c0.4,0.6,0.4,1.1-0.3,1.5c-0.5,0.5,0.6,0.7,0.9,1c1.6,1,3.2,2.2,4.9,2.9c0.7,0.2,1.3,1,2,1.2l2.2,0.3   c-0.1,0.7-0.2,1.3-0.4,2c1.5,0.2,3.1,0.4,4.5,0.6c0.7-0.6,1.4-1.2,2.1-1.9c2.2,1.5,4.2,3,6.4,4.5c0.8-0.7,1.5-1.4,2.3-2   c0.5,0.3,1.3,0.3,1.3,1.1s0.8,0.9,1.2,1.3c0.8,0.6,1.6,1.2,2.4,1.9c-0.7,0.2-0.9,0.6-0.2,1.1c1.2,1.3,2.3,2.6,3.4,3.9   c0.6-0.4,1.2-0.7,1.8-1.1c0.4,0.2,0.7,1.2,1.2,0.9c0.5-0.3,1.2-0.7,1.7-1c0.4,0.4,0.4,1.5,0.9,1.3s1.1-0.7,1.4,0.1   c0.5,0.2,0.7,1.2,1.2,0.9c0.5-0.6,0.9,0,1.3,0.5c0.4,0.1,0.9-0.6,1.4-0.8c0.8-0.6,1.6-1.1,2.3-1.7c0.4,0.9,0.6,1.8,1.4,2.4   c0.9,1.1,1.9,2.1,2.8,3.2c0.5-0.2,1-1,1.4-0.2c0.4,0.7,0.7,0.8,1.3,0.3c0.6-0.4,1.3-0.8,2-1.2c0.4,0.5,0.8,0.9,1.2,1.4   c0.9-0.5,1.8-1.1,2.7-1.6c0.5,0.5,1,1,1.5,1.5c1.7-1,3.4-1.9,5.1-2.9c1.4,1.8,2.8,3.6,4.3,5.2c0.7,0.7,1.4,1.5,2.1,2.2   c0.6-0.3,1.3-0.7,1.9-1c0.4,0.3,0.6,1.3,1.2,1c2.3-1.3,4.4-2.6,6.7-3.8c-0.6-0.5-0.6-0.9,0.1-1.1c0.7-0.4,1.4-0.9,2.3-1.2   c0.5,0,1.1-0.1,1.5-0.2c0.5,0.6,1,1.2,1.5,1.8c0.6-0.4,1.3-0.7,1.9-1.1c0.4,0.5,0.8,0.9,1.2,1.4c1.7-0.9,3.3-1.9,5.1-2.8   c-0.2-0.7,0-1.2,0.7-1.4c1.2,0.2,2.3,0.4,3.4,0.6c0.5-0.3,1-0.8,1.3,0c0.4,0.5,0.7,1,1.3,0.4c4.6-2.6,9.2-5.2,13.7-7.7   c-0.6-0.5-1.4-0.8-1.9-1.3c-0.4-0.8-0.5-1.8-0.9-2.5c-0.7-0.5-1.6-0.7-2.1-1.5c0.1-1.6,0.2-3.3,0.3-4.9c-0.6-0.1-1.2-0.2-1.8-0.3   c0.2-1,0.4-2,0.5-2.9l-1.9-0.3c0.3-0.6,0.3-1.2-0.5-1.4c10.8-0.4,21.7-0.9,32.5-1.4c0.7,0.1,1.4,0.2,2.1,0.3c0.5-1.5,0.8-2.9,1-4.4   c0.3-1.9,0.5-3.8,1.1-5.7c1.2-4.1,2.4-8.1,3.3-12.3l3.3-13.1c2,0.2,4,0.4,6,0.5c3.8-1.1,7.7-1.8,11.5-2.8c4.2-1.3,8.4-2.6,12.7-3.9   c0-1.3,0.1-2.6,0.1-3.9c-0.7-0.3-1.5-0.5-2.2-0.9c-0.3-0.4-1.1-0.8-0.5-1.4c0.2-0.5,0.7-1,0.7-1.5c-0.2-0.5-0.9-1-0.7-1.5   c0.3-0.7,1-1.3,0.9-2.2c0.6-0.5,1.3-0.9,1.9-1.4c-0.2-1.1-0.4-2.2-0.6-3.3c-0.5-0.4-1.4-0.5-1.2-1.4c0.2-1,0.3-2,0.8-2.9   c0.5-0.8,0.2-1.7,0.3-2.6c0.1-0.7-0.1-1.5,0.2-2c0.6-0.4,0.2-1,0-1.6c-0.4-0.8,0-1.6,0.1-2.5c0.4-0.4,1.3-0.5,1.1-1.1   c-0.1-0.5-0.5-1.2-0.4-1.7c0-0.8,0.2-1.1,0.9-0.6c0.9,0.3,1.8,0.6,2.8,0.9c0.3-1.1,0.5-2.2,0.7-3.3c3.5,0.5,7,1.1,10.6,1.6   c0.2-0.6,1,0.1,1.4,0.1c0.6,0.2,1.4,0.4,2,0.5c0.7-0.7,1.4-1.5,2.2-2.2c-0.2-0.6-0.5-1.3,0.4-1.2c0.4-0.5,0.5-1.3,1.2-1.3   c0.8-0.2,1.4-1,2.3-1.3c0.5,0,1.1,0.5,1.4-0.1c0.7-0.8,1.4-1.5,2.1-2.3c-0.5-1-1-2.2-1.6-3.1c-1.3-0.5-2.4-1.1-3.8-1.2   c-0.7-0.5-1.3-1.3-1.6-2.2c-0.3-1.3,0.4-2.5,0.6-3.8c0.4-0.8,0.2-1.1-0.5-0.9c-1,0-2.1,0.3-3-0.3c-0.9-0.3-1.8-0.7-2.5-1.4   c-0.5-0.4-0.6-1.2-0.9-1.8c-1.4-0.1-2.9-0.1-4.2-0.2c0.2,0.8,0.4,1.6,0.5,2.5c-1.1,0-2.2-0.2-3.3-0.6c-0.6-0.2-1.3-0.6-1.8-1   c-1.1-1.8-2.2-3.5-3.2-5.3c-0.1-0.6-0.3-1.2-0.8-1.5c-1.1-0.9-2.1-2-3.2-2.8c-1.4-0.1-2.7-0.1-4.1-0.3c-0.7-0.3-1.5-0.5-2.1-0.9   c-0.5-0.4-0.5-0.9-0.5-1.5c-0.2-0.4,0.3-1.6-0.3-1.4c-0.9,0.2-1.8,0.5-2.7,0.7c-0.5-0.4-0.9-1.2-1.6-1.2c-2.1-0.5-4.2-0.6-6.4-0.7   c-1,0.3-1.9,1-2.9,0.8c-0.6-0.4-1.3-0.9-1.8-1.3L688.4,386.1L688.4,386.1z M519.6,456.4c1.1,0.2,2.2,0.1,3.3,0.1   c0.8-0.6,0.5,0,0.1,0.5c-0.2,0.4-0.6,1.3-1.1,0.9c-1.1,0-2.1,0.1-3.2,0.1c-0.2-0.6,0.2-1.3,0.3-1.9   C519.1,456.2,519.3,456.3,519.6,456.4L519.6,456.4z M536.3,472.3c0.4,0.3,1.2,0.3,1.3,0.5c-0.5,0.7-0.9,0.1-1.3-0.4   C536.2,472.4,536.1,472.2,536.3,472.3z M542.3,475.8c0.5,0.7,0.8,1.4,1.3,2.2c-0.4,0.1-1.4,1-1.1,0.1c-0.1-0.5,0.3-1.3-0.1-1.7   c-0.4-0.3-1.4-0.4-0.8-1C541.9,474.8,542.1,475.7,542.3,475.8z M549,486.9c0.1,0.4,1,1.3,0.4,1.2c-0.6-0.5-1.2-1-1.8-1.5   C548.1,486.6,548.6,486.8,549,486.9z"
   class="st1"
   sodipodi:nodetypes="scccccccccccccccccccccccccsscccccccccccccsccccccccccccccccccccccccccccccccccccccccccccccccccccccccccccccccccccccccccccccccccccccccccccccccccccccccccccccccccccccccccccccsscccccccccccsccccccccccccccccccscccccccccccccccsccccsscccccccsssccccccccccccccccccccccccssscccccccccccccccccccccccccccccccccccccccccccccccccccccccccccccccccccccccccccccccccccccccccccccccccccccccccccccccccccccccccccccccsscccccccccccccccccccccccccccccccccccccccccccccccccccccccccccccccccccccccccccccccccccccccccccccccccccccccccccccccccccccccccccccccccccccccccccccccccccccccccccccccccccccccccccccccccccccccccccccccccccccccccccccccccccccccccccccccccccccccccccccccccccccccccccccccccccccccccccccccccccccccccccccccccccccccccccccccccccccccsccccsscccc"
   id="path2"
   style="stroke:none;stroke-opacity:1;fill:#bca371;fill-opacity:1"
   inkscape:label="Bass" />&#10;	<path
   d="M73.3,187.1c-0.6,0.4-1.4,0.8-1.9,1.3c-0.2,0.7-0.5,0.9-1.1,0.6c-0.5-0.1-1.2-0.5-1.5-0.3   c0.1,1.4,0.3,2.8,0.2,4.2c-0.1,0.7-0.5,1.4-0.5,2c0.4,0.5,0.9,1,1.1,1.6c-0.1,0.8,0,1.5,0.4,2.2c0.4,0.9-0.3,1.9-0.5,2.8   c-0.5,1.2-1.3,2-1.9,3c-0.7,0.9-1.6,1.7-2.4,2.5c-1.1,0.5-2.3,0.5-3.3,0.9c-0.5,0.5-1,1.1-1.5,1.5c-1,0-2,0.1-3,0.1   c-0.3,1.7-0.5,3.4-0.8,5.2c0.4,0.6,1,1.1,1.3,1.8c-0.2,1.3-0.5,2.6-0.5,3.8c0.1,0.9,0.2,1.7,0.3,2.6c0.5,0.2,1.1,0.4,1.2,1.1   c0.5,0.6,0.1,1.1-0.2,1.7c-0.6,0.6,0.6,0.9,0.4,1.4c-0.3,0.7-0.1,1.6-0.2,2.4c0.1,0.9,0.6,1.6,0.9,2.5c0.4,0.9-0.5,1.5-0.9,2.2   c-0.4,0.5-0.6,0.9-1,1.4c0.5,0.4,0.7,1.1,0.1,1.3c-0.6-0.1-1,0.3-1.1,1c-0.2,0.9-0.5,1.8-0.7,2.7c0,0.5,0.6,1.3,0,1.5   c-0.5,0.5-1.1,0.9-1.7,1.4c0.1,0.5,0.9,1.3,0.1,1.5c0,0.8,0.3,1.7,0.4,2.6c0,0.5,0.4,1.2,0.1,1.5c0.6,1,1.3,2.1,2,3.1   c0.8,0.4,1.7,0.6,2.3,1.4c0.5,0.4,0.8,0.9,0.5,1.5c-0.2,0.7,0.8,0.6,1.2,0.9c0.5,0.3,1.3,0.4,1.4,1.1c0.2,0.6,0.8,1.1,0.5,1.8   c-0.1,0.7-0.5,1.4-0.5,2.1c0.4,0.5,0.7,0.9,1.1,1.4c-0.5,0.9-1,1.7-1.1,2.7c-0.3,1.1,0.1,2.2,0.2,3.3c0.2,0.5,0.5,1.3-0.3,1.1   c-0.6,0-1.2-0.8-1.7-0.3c-1,0.4-2,0.8-2.9,1.2c0.6,1.3,1.2,2.7,2,3.9c0.5,0.4,0.4,1,0.2,1.6c0,0.7,0.5,1.4,0.6,2.1   c0.5,0.4,0.5,0.8,0.4,1.5c-0.1,0.6-0.3,1.2,0.4,1.5c0.6,0.6,1.2,1.4,1.8,1.9c0.4,0.2,1.6,0,1.2,0.5c-0.4,0.4,0.7,0.8,0.9,1.2   c1.1,1,2.3,1.9,3.2,3.3c0.6,0.9,1.4,1.7,2,2.6c0.9-1.6,1.8-3.2,2.8-4.8l-1.4-1.6c0.8-0.3,1.5-0.6,2.3-0.9c0.2-0.6,0.4-1.3,1-1.5   c0.5-0.5,0.9-0.5,1.3,0.2c0.3,0.7,0.8,0.6,1.4,0.3c0.9-0.3,1.9-0.6,2.8-0.9c0-0.6-0.3-1.3-0.1-1.7c0.5-0.4,1-0.4,1.4-0.1   c0.5,0.2,1.1,0.5,1.4-0.1c0.6-0.4,1.1-1.1,1.9-1.1c0.8-0.2,1.7-0.2,2.4-0.9c0.5-0.4,1-0.7,1.5-1.1c-0.2-0.8,0.7-0.7,1.2-1   s0-1.3,0.6-1.5c0.6-0.3,1.4-0.5,1.9-0.9c0.4-0.5,0.5-1.2,1-1.6c0.6-0.1,1.4-0.6,1.9,0c0.5,0.5,1,0.3,1.4-0.1   c0.8-0.5,1.6-1.1,2.4-1.6c-0.1-1-0.3-2.1-0.4-3.1c0.5-0.7,1.4-0.8,2.2-1.3c0.1-0.9,0.1-1.9,0.3-2.8c0.6-0.9,1.3-1.8,2-2.7   c-0.5-0.5-0.3-1,0.2-1.5c0.5-0.6,0.2-1.4,0.2-2.1c-0.1-0.8-0.1-1.7,0.2-2.5c0.3-1.4,0.6-2.7,0.8-4.1c-0.3-0.9-0.5-1.8-0.7-2.8   c-1.3-0.6-2.5-1.3-3.9-1.9c-0.4-1-0.5-2-0.6-3.1c-0.1-1.3-0.1-2.6,0.5-3.7c0.3-0.5,0.9-0.6,1-1.3c0.5-1.2,1.2-2.3,1.5-3.5   c0.2-1.1,0.5-2.2,0.6-3.3c-1-1.1-1.8-2.3-2.5-3.7c-0.5-1.1-0.8-2.4-1.2-3.6c-0.3-1.4-0.5-2.9-0.6-4.3c-0.1-2.6,0.5-5.1,0.7-7.7   c0.2-1.6,0.5-3.2,0.7-4.9l-0.3-2.4c-2.2-1.3-4.2-2.6-6.2-4.2c-0.9-0.9-2.1-1.5-2.6-2.8c-0.3-0.6-0.6-1-1.2-1.1   c-1.7-0.8-3.6-1.4-5.2-2.4c-0.6-0.9-1.3-1.7-1.9-2.6c-0.7,0.3-1.4,0.7-2.3,0.9c-0.6,0.1-0.9-0.4-1.2-0.9c-1.2-0.6-2.3-1-3.5-1.6   c-0.6-0.5-1.2-1.1-1.8-1.6C73.9,186.7,73.6,186.9,73.3,187.1L73.3,187.1z M54.7,201.7l-2.2,1.2c-0.1,1.2-0.2,2.4-0.3,3.7   c1.1,0.3,2.2,0.6,3.3,1c0.4-0.5,0.5-1.2,1-1.5c1.9-0.4,3.9-0.7,5.8-1.1c-2.3-1.2-4.5-2.4-6.9-3.6C55.2,201.5,55,201.6,54.7,201.7   L54.7,201.7z M220,325c-1.1,0.1-2.3,0.3-3.3,0.4c-0.3,0.7-0.4,1.6-0.8,2.2c-0.7,0.6-1.4,1.3-2.1,1.9c0.8,0.4,1.5,0.9,2.3,1.3   c-0.6,0.5-1.2,1.3-1.9,1.7c-0.5,0.3-1,0.1-1.4-0.3c-0.5-0.4-1.1-0.8-1.6-1.1c-0.3,0.8-0.5,1.7-0.8,2.5c-0.4,0.3-1.3,0.3-1.2,1   c-0.1,1.1-0.3,2.2-0.4,3.2c0.8,0.3,1.7,0.3,2.5,0.8c0.6,0.4,0.7,1.4,1,2.1c0.3,0.5,0.2,1.4,0.8,1.4c0.8,0.2,1.7,0.3,2.5,0.6   c1,0.9,2.3,1.4,3.4,2.1c1.1-0.1,2.3,0,3.2-0.6c1.1-0.4,2.1-1.2,3.2-1.7c0.5-0.1,1.1,0.1,1.4-0.6c0.5-0.9,1.3-1.6,2-2.2   s1.4-1.3,2.2-1.9c-0.5-0.4-1-0.7-1.4-1.1c1.4-1,2.9-2.2,4.2-3.3c-0.8-0.8-1.6-1.7-2.5-2.5c0.6-0.3,0.8-0.7,0.4-1.3l-1.9-4.5   c-1.1,0.5-2.1,0.9-3.2,1.4c-0.8-0.2-1.6-0.8-2.4-0.5c-1,0.1-2.2,0.5-3-0.4C220.9,325.2,220.6,324.8,220,325L220,325z M203.1,327.8   c-1.1,0.4-2.1,0.7-3.2,1.1c0.4,0.6,0.7,1.3,1.1,1.9c-0.3,0.7-1.3,0.6-1.3,1.4c-0.3,1-0.5,2-1.1,2.8c-0.5,0.9-0.4,2-0.6,3   c0,0.5,0.6,0.9,0.8,1.3c-0.7,0.7-1.3,1.4-1.6,2.3c-0.4,0.7-1.1,0-1.6-0.1s-1,0.5-1.4-0.2c-0.5-0.3-0.8-1-1.4-0.6   c-1.1,0.2-2.1,0.4-3.2,0.6c0,1.4,0,2.8-0.1,4.1c0.7,0.3-0.5,0.6-0.7,1c-0.5,0.3-1.3,0.7-0.4,1c0.8,0.6,1.7,1.1,2.5,1.7   c-0.1,0.9,0.6,1.5,0.9,2.3c0.2,0.7-0.1,1.5,0.5,2c0.3,0.5,0.7,1.1,0.3,1.6c-0.4,1-0.7,2.1-1.2,3.1c0.5,0.6,1.2,1.1,1.5,1.9   c0.3,1,0.5,2,0.7,3c0.8,0.4,1.7,0.5,2.4,1c0.7,0.7,1.4,1.4,2.3,2.2c1-1,2.1-1.9,3-3c0.5-1,1.2-1.9,1.4-3.1c0.1-0.8,0.5-1.5,0.1-2.3   c-0.2-0.8-0.5-1.6-0.6-2.3c0.5-0.4,0.3-1.2,0.4-1.8c0.1-0.5-0.2-1.3,0.4-1.6c0.5-0.8,1.1-1.7,1.6-2.6c-0.3-0.6-0.1-1.1,0.3-1.6   c0.5-0.5,0.5-1.1,0.2-1.7c-0.4-0.6,0.3-1.1,0.5-1.6c-0.3-0.5-0.5-1.1-0.1-1.6c0.1-0.5,0.8-1.2,0.3-1.6c-0.6-0.4-0.5-0.8-0.4-1.4   c-0.1-1.1,0-2.3-0.1-3.4c-0.5-0.6-0.1-1.5-0.2-2.2c-0.2-0.9,0.4-1.6,0.7-2.4c-0.3-1.6-0.5-3.1-0.8-4.7   C204.3,327.4,203.8,327.6,203.1,327.8L203.1,327.8z M223.3,358c-0.4,0.5-0.7,1.1-1.1,1.6c0.3,0.7,0.6,1.5,0.5,2.3   c-0.2,1.4-0.5,2.7-0.8,4c0.7,0.2,0.1,0.9,0.1,1.5c-0.4,1.3-0.7,2.6-1.6,3.4c-1,1-2.3,1.7-3.3,2.6c-0.6,0.5-1.4,1-2,1.6   c-0.1,1-0.5,2-0.4,2.9c0.2,0.7,0.3,1.3-0.5,0.6c-1.4-0.8-2.6-1.6-4-2.4c-1.3,0.9-2.4,1.8-3.7,2.7c0.7,0.8,1.5,1.6,2.3,2.4   c-0.5,0.3-1.1,0.5-1.4-0.2c-0.5-0.8-1.6-0.8-2.4-1.1l-2.2-0.6c-0.5,0.7-0.8,0.1-1.1-0.5c-0.3-0.6-0.5-1-1.2-0.9   c-0.5-0.1-1.4,0.2-1.7-0.4c-0.4-1.2-0.6-2.6-1.1-3.8c-0.6-0.7-1.5-1.3-1.9-2.2c-0.2-1.5-0.4-2.9-0.5-4.4c-1.1,0.5-2.2,1-3.2,1.6   c-0.5,0.7-0.8,1.6-1.4,2.2l-3.5,1.2c-0.1,0.6,0,1.3-0.6,1.5s-0.5,1.1-0.6,1.7c0,0.6-0.5,1.3,0.1,1.8c0.2,0.5,1.1,0.9,0.7,1.4   c-0.3,0.5-0.5,1.1-0.7,1.4c-0.7-0.2-0.5,0.8-0.7,1.3c-0.2,0.7-0.3,1.4-0.5,2.1c0.5,0.6,1,1,1.3,1.6c0,1.2,0,2.4,0.1,3.7   c0.7,0.7,1.4,1.5,2.1,2.2c0.5-0.1,1.1-0.6,1.5-0.4c-0.1,0.6,0,1.4-0.5,1.6c-0.6,0.5-1.3,1-2,1.5c0.5,0.8,1,1.6,1.4,2.3   c-0.4,0.5-0.4,1.3-0.6,2c-0.2,0.6-0.4,1.3-0.5,1.9c0.5,0.3,1.3,0.4,0.9,1.1c-0.1,0.6-0.3,1.2,0.4,1.5c0.5,0.5,1.1,0.8,1.4,1.3   c0,0.8,0.4,1.8-0.2,2.4c-0.7,1.4-0.6,3.1-1.5,4.4c-0.6,1-1,2.1-1.8,2.9c-0.5,0.5-1.2-0.2-1.8-0.2c-0.8-0.3-1.7-0.6-2.5-0.9   c-0.3,1-0.4,2.1-0.7,3c-0.5,0.5-1.3,0.3-1.9,0.5c-0.5,0.2-1.2,0.1-1.5,0.4c-0.3,0.5-0.1,1.4-0.8,1.5c-0.8,0.3-1.5,0.7-2.3,1   c0,1.6-0.1,3.2-0.1,4.8c0.7-0.1,1.4-0.1,2.2-0.2c0.4,0.6,1.2,1.3,0.7,2.1c-0.2,0.7-0.5,1.5-0.6,2.2c0.2,0.7,0.5,1.4,0.5,2   c-0.5,0.5-1.2,0.8-1.8,1.3c-0.6,0.2-0.8,0.7-0.6,1.4c0.1,1.1,0.2,2.2,0.3,3.2c0.7,0.4,1.6,0.7,2.1,1.5c0.4,0.5-0.4,1.2,0.5,1.5   c0.6,0.5,1.2,1.2,1.8,1.6c0.8,0.2,1.8,0,2.3,0.9c0.8,1.5,1.7,3,2.2,4.7c0.4,0.8,0.4,1.8,0.3,2.7c-0.2,0.8-0.3,1.6-0.8,2.1   c-0.5,0.6-0.9,1.2-1.4,1.7c0.4,0.4,1,0.7,1.3,1.1l-0.3,1.8c0.5,0.2,1.1,0.4,1.5,0.6c-0.4,0.7-0.9,1.3-1.4,1.9c0.5,1,1.1,2,1.6,2.9   c0,0.5-0.5,1.3-0.1,1.6c0.5,0.4,1.1,0.9,1.6,1.3c-0.1,0.6,0.1,1.2,0.4,1.7c-0.4,0.5-0.9,0.9-0.5,1.5c-0.4,0.4-0.5,1-0.5,1.6   c0.1,0.7-0.2,1.4-0.5,1.9c-0.5,0.6,0.1,1,0.4,1.5c0.8,1.1,1.6,2.4,2.5,3.5c0.5,0.2,1.3,0.2,1.3,1.1c0.2,0.9,0.3,1.9,0.5,2.8   c0.3,0.5,1,1,0.6,1.6c-0.3,0.6,0.4,1.2,0.5,1.8c0.3,0.5,0.4,1.2,1,1.2c0.5,0.2,1,0.4,1.5,0.6c-0.1,0.6,0.4,1.3,0.5,1.9   c0.3,0.6,0.3,1.4,0.7,1.8c0.9,0.6,2,1.1,2.9,1.9c0.8,0.8,1.4,1.9,1.9,2.9c0.4,1.4,1,2.7,0.9,4.2c0.1,0.6,0,1.3-0.5,1.7   c-0.5,0.5-1.2,0.5-1.7,0.2c-0.5-0.2-1.2-0.7-1.4,0.2l-2.4,4.5c1.2,0.4,2.3,0.6,3.4,1.2c0.5,0.3,0.3,1.2,0.6,1.6   c0.7,0.2,1.7-0.1,2.3,0.6c1,0.8,1.4,2.1,2.2,3.1c0.6,0.9,1.1,2,1.8,2.9c0.5,0.3,0.9,0.6,0.9,1.3c0,0.9,0.8,1.3,1.3,1.9   c1.2,1.3,2.3,2.6,3.3,4.1c1.7,2.9,3.7,5.6,5.5,8.4c0.5,1,1.2,2,1.6,3.1c0.1,0.7,0.2,1.3,0.6,1.8c0.8,1.2,1.1,2.7,1.5,4   c-0.5,0.7-0.9,1.3-1.4,2c0.6,0.5,1.4,0.9,1.9,1.5c0.2,0.8,0.3,1.6,0.5,2.4c0.5,0.3,1.3,0.4,1.4,1.1c0.6,0.6-0.2,0.7-0.6,1   c-0.2,0.9-0.5,1.7-0.5,2.6c0.4,0.8,0.7,1.6,1.1,2.3c0,0.5-0.7,1.2-0.2,1.5c1.3,1.2,2.5,2.4,3.8,3.5c0.5,0,1.2,0.1,1.7,0   c0.5-0.4,0.9-0.9,1.4-1.1c0.6,0.1,1.2,0.7,1.7,1.2c0.6,0.9,1.2,1.8,2,2.5c0.5,0.5,1.3,0.9,1.4,1.6c-0.1,0.5-0.7,1.3,0,1.5   c0.5,0.4,1.2,0.6,1.5,1c0.2,0.8,0.2,1.8,0.5,2.6c0.6,0.9,1.3,1.9,1.9,2.8c0.7-0.1,0.4,1.3,1.1,1.3c0.8,0,0.2,0.9,0.2,1.4   c-0.4,0.8,0,0.9,0.7,0.7c0.6-0.1,1.3-0.1,1.9-0.2c0.3,0.4,0.5,1.1,1.1,1.1c0.5,0,1,0.3,1.3,0.9c0.4,0.5,0.6,1.2,1.3,1.3   c0.2,1.1,0.5,2.1,0.6,3.2c0.8,0.4,1.5,0.8,2.1,1.6c0.8,1,2,1.3,3,2c0.8,0.2,1.1,1.2,1.6,1.9c0.5,0.2,0.9,0.5,0.9,1.2   c0.2,0.6,0.8,0.9,1.1,1.3c1.1,0.9,2.3,1.6,3.5,2.4c0.6-0.1,0.7,0.8,1,1.3s1,0.4,1.4,0.7c0.6,0.3,1.5,0.3,1.9,1.1   c0.5,0.9,1.4,1.3,2.2,2c0.1,1.2,1,2,1.4,3c0.8,1.5,1.7,2.9,2.3,4.5c1.1,2.1,2.2,4.2,3.1,6.4c0.7,1.8,1.5,3.5,2.2,5.3   c0.5,1.9,1,3.7,1.3,5.6c0.2,2,0.5,3.9,0.4,5.9c0,1.9-0.3,3.7-0.6,5.6c-0.2,0.9-0.4,1.7-0.9,2.4c-0.4,0.9-1,1.6-1.6,2.2   c-0.5,0.6-1.2,1.2-1.7,1.7c-0.6-0.3-1.1-1.1-1.8-1c-0.3-0.5-0.2-1.4-0.7-1.5c-1.7-0.4-3.5-0.9-5.2-1.3c-0.2,0.5-0.2,1.3-0.8,1.2   c-0.9,0.2-1.8,0.3-2.7,0.5c1.2,1.5,2.3,3.1,3.5,4.6c0.8-0.2,0.9,0.1,0.4,0.7c0.3,0.4,0.7,0.8,1.1,1.3c-0.1,1.1,0,2.4,0,3.6   c0.8,0.5,1.7,0.7,2.3,1.3c0.3,1.1,0.5,2.3,1.1,3.3c0.5,0.5-0.3,1-0.4,1.4c-0.5,0.5,0.3,1.2,0.2,1.8c-0.6,0.7-1.5,1-2.3,1.6v4.4   c0.7,0.8,1.4,1.7,2.2,2.4c0.5,0.2,0.5,1,0.8,1.5c0.1,0.6,1,0.7,0.5,1.3c-0.5,1-1,1.9-1.4,2.9c0.9,0,1.9-0.1,2.8-0.1   c-0.3,0.6-0.5,1.1-0.7,1.7l1.6,1.5c-0.4,0.5,0.4,1.1,0.5,1.6c0.5,0.7,0,1.7,0.2,2.5c0.4,0.7,0.9,1.3,1.1,2c0,0.5-0.5,1.3-0.1,1.6   c0.3,0.3,1.5,0.5,0.8,0.8c-0.5,0.2-0.3,1.1-0.5,1.6c-0.3,0.6-1,1-1.4,1.6c-0.2,0.4-1.3,0.8-0.7,1.3c0.6,0.7,1.4,1.3,1.6,2.3   c0.2,0.6,0.5,1.3,0.6,1.9c0.7-0.2,0.8,0.1,1.2,0.7c0.3,0.5,1,0.9,0.6,1.5c-0.2,0.7-0.4,1.4-0.1,2c0.2,0.6,0.2,1.3,0.7,1.6   c0.8,0.2,0.1,1,0.5,1.4c0.6,0.9,1.3,1.7,1.9,2.6c-0.3,1-0.5,2-0.7,3c0.7,0.1,1.4,0.1,2.2,0.2c0.3,0.4,0.4,1.3,0.8,1.3   c0.5-0.4,1.1-0.1,1,0.5c-0.1,0.6-0.5,1.1-0.3,1.7c-0.6,0.5-1.1,1.1-1.7,1.5c-1.3-0.2-2.4-0.3-3.7-0.5c-0.1,1.8-0.1,3.6-0.2,5.4   c0.5,0.1,1.3-0.3,1.4,0.4c0.2,0.7,0.4,1.2,1.1,0.9c1.4-0.1,2.8-0.2,4.2-0.3c0.3-0.5,0.2-1.3,0.9-1.3c0.5-0.2,1.1-0.1,1.4,0.4   c0.4,0.4,0.7,0.7,1.3,0.7c0.5,0.1,0.3,1.1,0.4,1.6c0.1,1,0.2,1.9,0.4,2.9c1.2,0,2.3,0.2,3.5,0c0.5-0.4,1.1,0.1,1.5,0.3   c0.1,1.8-0.1,3.5-0.2,5.2c0.5,0.4,1.2,0.5,1.4,1c0.6,1.2,0.5,2.7,0.8,4c0.4,0.7,0.7,1.4,1.2,2.1c-0.4,0.5-1.2,0.8-1.1,1.6   c0,0.8-0.2,1.6-0.1,2.4c0.5,1,1,2.2,1.8,2.9c0.5,0.5,0.9,1.1,1.4,1.5c0.5,0,1.1,0.1,1.2,0.8c0.4,1,1,1.7,1.5,2.5   c0.1,1-0.1,2.2,0.5,3.1c0.3,0.6-0.1,1.4,0,2.1c-0.1,0.8-0.2,1.5-0.2,2.3c0.5,0.1,1.4-0.4,1.4,0.4c0.3,1,0.9,1.8,1.3,2.7l-1.1,1.8   c0.6,0.3,1.3,0.7,1.9,1c0.1,0.6,0.3,1.2,0.9,1.5c0.7,0.5,0.9,1.6,1.4,2.3c0.3,0.5,0.5,1.2,0.8,1.6c0.6,0.1,1.4,0.1,2,0.2   c0.3,0.5,0.3,1.3,0.9,1.2c0,0.6,0.6,1,0.8,1.5c0.4,0.7,0.9,1.2,1.2,1.9c0.1,1.2,0.3,2.4,0.3,3.5c-0.3,0.7-0.5,1.4-0.7,2.1   c0.5,0.5,1,0.8,1.4,1.4c0.1,1.3,0.3,2.5,0.4,3.8c1.2-0.8,2.3-1.7,3.5-2.5c1,0.1,2.1,0.3,3.1,0.3c0.6-0.4,1.2-1.1,2-1   c0.8-0.1,1.5-0.8,2.4-1c1.1,0.2,2.2,0.3,3.3,0.5c0.7,1.1,1.3,2.4,1.7,3.7c0.3,0.6,0.7,0.7,0.4,1.5c1.5,0.9,3.3,1.7,4.8,2.7   c-0.3,0.7,0.1,1.2,0.5,1.6c0.9,1.4,1.7,2.7,2.6,4.1c0.5-0.4,1-0.9,1.5-1.3c0.5,0.3,1,0.5,1.5,0.8c-0.7,0-0.7,0.7-0.6,1.4   c0,0.6-0.7,0.9-1,1.4c-0.7,0.3,0.8,1.2,0.1,1.3c-1,0.2-2,0.3-3.1,0.5c1.6,1.5,3.3,2.9,5,4.4c0.5-0.2,1-0.4,1.4,0.1   c0.4,0.6,0.6,1.4,1.1,1.9c0.8,0.2,1.5,0.6,2.3,0.8c0.7-0.3,1.5-0.2,2.1-0.9c0.1,1.6,0.3,3.1,0.4,4.7c0.7-0.1,1.4-0.4,2.2-0.4   c0.5,0.8,0.7,1.7,1.1,2.6c0.4,0.3,1.3,0.5,0.7,1.2c0.2,0.8,0.7,1.5,1,2.3c-0.1,0.7-0.3,1.5-0.4,2.2c1.3,0.3,2.4,0.7,3.7,1   c0.5-0.3,0.6-1.1,1.3-1.1c-0.3,0.6-0.5,1.2-0.8,1.7c0.8,0.2,1.7,0.4,2.5,0.5c-0.3,0.3-1.4,0.4-1.1,1c0.6,1.1,1.4,2.1,1.6,3.3   c0.3,1,0.6,2,0.9,3c0.3,0.3,1.4,0.1,1,0.8c-0.1,0.5-0.7,1.1-0.5,1.6c0.5,0.4,0.6,1,0.5,1.6c-0.1,0.6-0.1,1.2-0.2,1.8   c0.9,0.2,1.9,0.2,2.8,0.5c0.7,0.7,1.4,1.5,2.1,2.2c-0.4,0.5,0.5,0.9,0.6,1.4c0.7,0.8,1.2,2,2.2,2.4c0.5,0.3,1.1,0.8,1.6,1   c0.8-0.2,1.5-0.4,2.3-0.6c0.2-0.6,0.3-1.4,1-1c0.5,0.2,1,0.1,1.4-0.2c0.4-0.3,1.3-0.3,1.4-0.9c0-0.6,0.1-1.5,0.7-0.9   c0.5,0.3,0.9,0.4,1.4,0.3c1.4-0.2,2.6-0.4,4-0.6c-0.7-1.1-1.6-2.2-2.3-3.3c-0.1-1.2,0.4-2.4,0.5-3.6c0.1-0.6,0.3-1.2,0.4-1.8   c-0.3-0.3,0.1-1.1,0.1-1.6c0.1-0.7,0.3-1.5,0.3-2.2c-0.7-1.4-1.4-2.9-2.1-4.3c0.2-0.5,0.7-1,0.3-1.5c-0.3-0.5,1,0,1.4-0.1   c0.2-0.4,0.2-1.2,0.3-1.7c0.1-0.9,0.2-1.8,0.3-2.8L380,800c0.5,0,1.2-0.1,1.5-0.6c0.7-0.5,1.4-1.1,1.8-1.9c0.6-0.3,1.4-0.7,2-1   c0-0.7,0.5-0.8,1-0.9c0.7-0.2,1.6-0.3,2.3-0.7c0.6-1.2,1.4-2.2,1.8-3.6c0.3-0.9,0.6-1.8,0.9-2.7c-0.5-1.1-0.8-2.2-1.3-3.3   c-0.4-0.1-1.5,0-0.6-0.4c0.8-0.2,0.3-0.9,0.2-1.5c-0.3-0.9-0.5-1.8-0.9-2.6c-0.5-0.4,0-1.1,0.1-1.6c0.1-0.6,0.5-1.3,0.4-1.7   c-0.5-0.4,0.5-1,0.2-1.6c-0.4-0.7,0.3-1,0.6-1.3c0.5-0.5,0.8-1.3,1.2-1.9c0-0.6-0.5-1.3,0.1-1.7c0.3-0.7,0-1.5,0.1-2.3v-2.6   c-0.5-0.1-1.3,0.3-1.5-0.2c-0.7-1.2-1.4-2.3-2.4-3.2c-0.5-0.6-1.4-0.7-1.9-1.6c-0.5-0.8-1.2-1.6-2-2.1c-0.6-0.4,0-1.5-0.7-1.8   c-0.5-0.4,0.6-0.5,1-0.7c0.4-0.3,1.4-0.3,1.3-0.8c-5.1-9.6-10.2-19.3-15.3-28.9c-0.4-0.6-0.5-1.4-1-2c0.7-0.3,1.4,0.2,2.2,0.2   c0.6,0.3,1.1,0.1,1.4-0.6c0.3-0.6,0.7-1.1,0.9-1.7c-0.5-1,0.1-0.3,0.6-0.5c1.1-0.5,2.2-1,3.2-1.6c0.3-0.5,0.5-1.2,0.9-1.5   c1,0,1.9,0,2.9,0.1l1.1-2.4l3-0.6c1.1-1.6,2.2-3.3,3.3-4.9c-0.5-0.4-1-0.8-0.1-0.9c0.5-0.2,0.7-0.2,1-0.9c0.5-0.9,0.9-1.9,1.4-2.7   c0.5-0.3,1.2-0.4,1.4-0.9c0.1-0.9,0.3-1.9,0.4-2.8c0.7-0.1,0.4-1,0.6-1.4c1-0.8,1.9-1.5,2.9-2.3c0-0.6-0.5-1.2-0.3-1.7   c0.4-0.6,1.4-0.2,1.5-1.1c0.3-0.7,0.6-1.4,0.8-2.1c-0.4-0.6-0.3-1,0.4-1.2c0.6-0.2,1.4-0.2,2.1-0.5c0.5-0.8,1.1-1.7,1.9-2.2   c0.6-0.5,1.3-0.9,1.9-1.4c-0.3-0.9,0.6-0.4,0.8-1.1c0.9-1.5,1.7-2.9,2.6-4.4c-0.6-0.2-1.2-0.4-1.8-0.7c0.6-0.5,1.3-0.9,1.6-1.7   c0.2-0.7,1.1-0.2,1.2-1c0.4-0.7,0.9-1.3,1.1-1.9c0-0.6,0.9-0.6,1.3-1l1.6-0.9c-0.1-0.6-0.5-1.2-0.4-1.8c0.5-1,0.9-2,1.4-3.1   c-0.5-0.9-0.8-1.7-1.3-2.6c-0.6-0.2-1.4-0.4-2-0.6c-0.2-1.5-0.5-3-0.6-4.5c-0.5-0.4-1.3-0.6-1.7-1.1c-0.3-0.6,0.5-1.1,0.1-1.8   c-0.1-0.8-0.5-1.7-0.1-2.5c0.1-0.6,0.8-0.7,0.7-1.4c0.3-1.5,0.5-3.1,0.8-4.6c-0.8-1-1.6-2-2.5-3c-0.2-0.4-0.2-1.1-0.4-1.6   c-0.7-3.9-1.4-7.9-2.3-11.8c-3.7-7.8-7.5-15.7-11.2-23.5c1.2-1.5,2.3-3,3.4-4.5c-0.5-1.9-0.8-3.8-1.3-5.7c1.8-1.8,3.7-3.5,5.5-5.3   c-1.4-4.9-2.9-9.9-4.4-14.8c-3.2-10-6.3-19.9-9.4-29.9c-0.6-2.1-1.2-4.3-1.9-6.4c-5-5.7-9.9-11.4-14.8-17.1   c-0.1-3.6,0-7.2-0.1-10.8c-0.2-2.1,0-4.2,0-6.3c-0.3-0.9,0.6-0.6,1.1-0.8c4.3-0.7,8.8-1.4,13.1-2c6.4,0.3,12.9,0.5,19.3,0.8   c0.6,0.3,1.4,0.5,2,0.8c0.5-1.6,1.1-3.2,1.5-4.8c-0.2-1.1-0.4-2.2-0.5-3.4c0.3-0.5,0.6-0.9,0.5-1.5c0-0.6,0.9-0.5,1.2-1   c0.2-0.8,0.4-1.6,0.9-2.2c0.4-0.6,0.9-1.1,0.9-1.9c0.1-0.5,0-1.4,0.7-1c0.6,0.3,1-0.1,1.4-0.6c0.3-0.7,0.9-0.3,1.4-0.4   c1.1-0.6,2.3-1.1,3.2-2.1c0.7-0.8,1.7-1.4,2.6-1.9c0.5-0.3,0.5-1.1,0.8-1.6c0.3-0.6,0.5-1.4,0.8-1.9c0.6-0.3,1.4-0.3,2-0.8   c0.5-0.6,1.1-1.3,1.6-1.9c-0.3-1-0.6-1.9-0.7-2.9c0-0.9,0.8-1.2,1.3-1.7c0.5-0.7,0.8,0.1,1.2,0.3c1.4,0,2.7,0,4,0.1   c0.4-0.6,0.5-1.6,1.3-1.7c0.5-0.4,1.1-0.4,1.6-0.2c2.9,0.4,5.8,0.7,8.6,1c0.3-1.1,0.6-2.2,0.7-3.3c-0.4-0.6,0.7-0.7,1.1-1   c0.5-0.3,1.1-0.8,1.4,0c0.5,0.5,0.9,0.9,0,1.1c-0.5,0.3-1,0.5-1.5,0.8c0.5,0.6,1,1.2,1.4,1.8c-0.4,0.8-0.7,1.5-1.1,2.3   c2.4,0.3,5,0.7,7.4,1c0.3,0.4,0.1,1.6,0.6,1.4c1.1-0.1,2.2-0.5,3.3-0.5c1.1,0.2,2.1,0.4,3.2,0.6c0.3,0.8-0.2,1.7-0.2,2.5   c0.8,0.3,1.5,0.6,2.3,0.9c0.1,0.7,0.3,1.5-0.1,2.2c-0.1,0.5-0.5,1.2,0.1,1.6c0.6,0.8,1.3,1.7,2,2.4c0.4,0.3,1.2,0.4,1.1,1.1   c0.2,0.9,0.8,1.6,1.2,2.4c0.3,0.5,1.1,0.2,1.5,0.4c0.7,0.1,1.4,0.2,2.1-0.1c1.5-0.5,3-1,4.4-1.7l3.8,0.6c0.1-0.6,0.3-1.2,0.4-1.8   c2.3,0.3,4.5,0.6,6.9,0.9V490c-0.9-0.3-0.2-0.8,0.5-0.5c1.2,0.1,2.3,0.3,3.5,0.4c0.1-0.8,0.3-1.5,0.4-2.3c4.2,0.7,8.6,0.9,12.8,1.3   c0.4-1.7,0.7-3.3,1.1-5c-0.8-0.4-0.6-0.6,0.2-0.8c1.1-0.4,2.3-0.8,3.4-0.5c0.8,0.1,1.6,0.2,2.3,0.3c0.1-0.6,0.3-1.3,0.4-1.9   c1,0,2-0.1,3.1-0.1c-3.7-7.3-7.5-14.6-11.2-21.9c0.2-0.9,0.6-1.7,0.4-2.7c-0.2-1.5-0.4-3-0.6-4.5c-1.8-1.4-3.5-2.8-5.3-4.2   c0.1-0.7,0.3-1.3,0.4-2c-0.8-0.4-1.5-1-2.3-1.4c-0.8,0.1-1.6,0-2.3,0.3c-0.7,0.7-1.4,1.3-2.1,2c0.2,0.5,0.6,1.2,0.6,1.6   c-0.5,0.2-0.9,0.6-1,1.2s-0.4,1.2-0.9,1.5c-1,0.7-2,1.3-3.1,1.8c-1.5,0.6-3.2,1.2-4.8,1c-0.5,0-1.2,0-1.7-0.1   c-0.2,0.4-0.4,1.6-0.7,0.6c-0.1-0.7,0.2-1.4,0.2-2.1c0-0.5,0.5-1.4,0.1-1.7c-0.5-0.2-1.3-0.2-1.8-0.5c-0.4-0.6-0.7-1.2-1.1-1.9   c-1,0.7-2.1,1.4-3.1,2c-0.1,0.6,0.3,1.4-0.3,1.7c-1.4,0.8-2.9,1.7-4.3,2.4c-1.4,0.5-2.7,1.1-4.1,1.6c-2-0.1-4,0.3-6,0.4   c-0.9,0.6-1.9,1.1-2.9,1.4c-0.8,0.4-1.7,0.4-2.5,0c-0.5-0.1-1.2-0.6-1.7-0.3c-0.9-0.4-1.8-1-2.8-1.3c-0.8,0-1.8,0.2-2.6,0   c-0.9-0.4-1.7-1.1-2.6-1.4c-1.4,0.3-2.6,0.9-4,1.1c-1,0.1-2.1,0.1-3-0.2c-0.5-0.5-1.3-0.8-2-0.9c-0.7-0.2-1.4-0.3-2.3-0.5   c-0.5,0.5-0.7,1.3-1.4,1.2c-1,0.1-2.1,0.5-2.9-0.3c-0.5-0.4-1.4-0.1-2-0.2c-0.6,0.1-1.1-0.8-1.7-0.5c-1.1,0.1-2.3,0.3-3.3-0.1   c-0.5-0.1-1.2-0.1-1.4-0.7c-0.4-0.4-0.6-1.1-1.3-1c-1.2-0.2-2.3-0.1-3.4-0.6c0.1-0.5,0.8-1.3,0-1.5c-0.9-0.5-1.7-1-2.6-1.4   c-0.6,0-1.4,0.1-2,0c-0.5-0.7-1.4-0.4-2.2-0.6c-0.8-0.2-1.6,0-2.3-0.4c-0.5-0.6-0.9-1.3-1.5-1.8c-0.8-0.2-1.5-0.6-2.3-0.5   c-0.5,0.3-0.7-0.7-1.4-0.6c-1-0.1-1.9-0.2-2.8-0.7s-1.9-0.7-2.6-1.6c-0.5-0.4-0.9-1.3-1.6-1.1c-1,0-1.9-0.5-2.8-0.8   c-0.5-0.5-0.8-1.1-1.5-1.1c-0.9-0.1-1.7-0.5-2.6-0.5c-1.2,0.2-2.3,0.8-3.5,0.5c-0.5,0-1.4-0.1-1.3-0.7c0-0.7-0.6-1.1-0.9-1.7   c-0.4-0.7-1.3-0.6-1.9-1c-0.6-0.3-1.4-0.5-2.1-0.4c-0.7,0.2-1.2-0.6-1.7-1c-0.5-0.2-1.3,0.1-1.8,0.1c-1.4,0.1-2.6,0.4-4,0   c-1.3-0.3-2.5-0.6-3.7-1.1c-1-0.5-2.1-0.8-2.9-1.7c-0.4-0.3-0.7-0.8-1.2-0.9c-0.4-0.7-0.6-1.6-1.4-2c-0.8-0.6-1.4-1.5-2.4-1.7   c-1.1-0.3-2.2-0.6-3.2-1c-0.7-0.5-1.3-1.3-1.7-2.1c0.2-0.5,1-0.6,1.2-1.1c-0.1-1.1-0.1-2.3-0.2-3.4c-1-0.5-2.1-1-3.1-1.5   c-0.5,0.2-1.1,0.6-1.6,0.3c-1.2-0.4-2.4-0.7-3.7-0.8c-0.6-0.2-1.3-0.1-1.9,0.1c-1.1-0.1-2.3-0.3-3.3-0.1c-0.8-0.1-1.6-0.7-2.3-1   c-0.6-0.4-1.5,0.3-2.1-0.4c-0.5-0.5-1.2-0.9-1.7-1.4c-0.5,0.3-0.9,0.8-1.4,0.5c-0.8-0.1-1.2-1.2-1.9-1.6c-0.9-0.2-1.8-0.7-2.7-0.4   c-0.7,0-1.4,0.4-2.1,0.2c-0.5-0.2-0.9-0.5-1-1.2c-0.1-0.7-0.4-1.2-1.1-1.1c-0.6,0-0.7-1-1.4-1.1c-0.5-0.3-1.1-0.5-1.4-0.9   c0-0.6,0.2-1.2,0.1-1.8c-0.3-0.4-0.9-0.7-1.1-1.2c0.5-0.5,0.5-1,0-1.5c-0.4-0.5-0.6-1.1-1.1-1.5c-1-0.3-2-0.6-2.9-0.9   c-0.4,0.7-0.7,1.5-1.2,2.2c-0.6,0.5-1.3,0.9-2,1c-1.5,0.5-3.2,0.3-4.8,0.4c-0.9-0.1-1.8-0.3-2.6-0.6c-1.4-0.7-2.8-1.5-4.2-2.2   c-0.7,0.4-0.7-0.4-1.3-0.6c-1-0.2-2-0.5-2.9-0.1c-1,0.2-2,0.3-3,0.1c-1.1-0.1-2.2,0-3.1-0.6c-1.1-0.5-1.9-1.4-2.8-2.1   c-1-1.2-1.9-2.4-2.6-3.8c-0.5-1-1.1-2.1-1.9-2.9c0.4-0.5,0.6-1.1,1-1.6l2.7,1.2c0.3-1.7,0.5-3.4,0.7-5.1c-0.4-0.2-1.5-0.1-1.3-0.6   c0.5-0.5-0.2-1.1-0.3-1.6c-0.3-0.5-0.4-1.2-0.8-1.5c-0.6-0.2-1.4-0.6-2-0.8c-0.5,0.1-1.1,0.5-1.4-0.2c-0.3-0.5,0.2-1.2-0.5-1.6   c-0.7-0.9-1.5-1.8-2.3-2.7l-3,1.5c-0.1,0.9-0.4,1.8-0.5,2.7c0.5,1.1,1.2,2.3,1.4,3.5c0.2,0.6,0.3,1.2,0.5,1.7   c0.5,0,1.3,0.1,0.8,0.9c-0.3,0.9-0.6,1.9-0.7,2.8c-0.2,0.4-1,0.5-1.4,0.7c-1.9,0.8-3.8,1.8-5.8,1.9c-1.9,0.3-3.9,0.2-5.8,0.3   c-2.1-0.1-4.1-0.3-6.1-1.1c-1-0.5-2.1-0.4-3.1-0.5c-0.6-0.6-1.2-1.3-2-1.5c-1.4-0.5-2.6-1.2-3.7-2.4c-1.1-1-1.9-2.3-2.8-3.4   c-1.1,0.4-2.2,0.9-3.3,1.3c-0.2,1.3-0.5,2.5-0.6,3.8c-0.9-0.3-1.9-0.3-2.8-0.7c-0.8-0.8-0.7-2.1-1.1-3.1c-0.6-0.6-1.7-0.9-2.3-1.7   c-0.5-0.5-1.1-1.1-1.5-1.6c-0.8,0.6-1.5,1.5-2.3,2c-1.2,0.3-2.3,0.7-3.6,0.7c-0.6,0.1-1.3-0.1-1.7,0.5c-0.5,0.2-1-0.4-1.4-0.5   c-0.7,0-0.5-0.9,0.1-0.9c0.9-0.2,1.8,0.3,2.6,0.7c0.7-0.4,1.6-0.5,2.3-1c1-1.1,1.8-2.5,3.3-3c0.8-0.5,1.8-0.5,2.6,0   c0.6,0.4,1.3,0.5,2,0.4c0.5-0.1,1.2,0.2,1.6-0.2c0.2-0.6,0.6-0.9,1.2-0.9c0.7,0,1.2,0.8,1.8,1.1c0.6,0.4,1.1,1.2,1.8,1   c1.3-0.1,2.5,0,3.7-0.6c1.1-0.4,2.1-0.7,3.2-1.1c-1.4-1.3-2.9-2.5-4.2-3.8c-0.4-0.7-0.9-1.3-1.3-2c0-0.8-0.1-1.6-0.1-2.4   c-1.4,0.2-2.8,0.4-4.2,0.6c-1-0.2-1.9-0.6-2.8-1.2c-1.3-0.8-2.7-1.3-3.6-2.7c-1.1-1.3-1.9-2.7-2.8-4.1c-0.2-0.5-0.7-1-1-1.6   c-0.5-0.8-1-1.6-1.5-2.3c-0.2,0.2-0.5-1-0.6-1.3c-0.2-0.5,0.7-1.1,0.3-1.5c-0.5-0.9-0.9-1.9-1.8-2.4c-0.6-0.5-1.4-1.1-2-1.6   C223.9,357.1,223.7,357.6,223.3,358L223.3,358z M185.5,367.8c0.3,1.2,0.6,2.3,0.9,3.5c1.2-0.1,2.3-0.3,3.5-0.4   c0.6-0.9,1.4-1.7,2-2.6c-1-0.8-1.9-1.6-2.9-2.4c-1.4-0.4-2.8-0.7-4.2-1.1C185,365.8,185.2,366.8,185.5,367.8z M228,368.8   C227.4,368.4,228.3,368.1,228,368.8z M228,369.4C227.8,370.8,227.7,369.1,228,369.4z M215.1,381.2c0.1,0.8-0.7,1.2-1.1,1.7   c-0.6,0.4,0.4,0.9,0.5,1.4c0.4,0.5,0.7,0.9,1.1,1.4c-0.5-0.2-0.9-0.9-1.5-0.8c-0.5,0-1.2-0.1-1.2-0.9c-0.1-0.6-0.3-1.3-0.4-1.9   c-0.5-0.2-1.3-0.3-1.4-0.6c1.2-0.8,2.3-1.7,3.5-2.5C214.8,379.7,215,380.5,215.1,381.2L215.1,381.2z M278.2,391.4   c-0.4-0.5-0.7-1-1.1-1.4c0.5-0.1,1.3-0.9,1.1,0.1C278.2,390.6,278.2,391,278.2,391.4z M288.9,632.1c0.5,0.3,1.1,0.6,0.8,1.3   c-0.9,0.6-1.2,1.7-1.7,2.5c-0.5,0.8-1,1.7-1.4,2.5c1.6,0.2,3.3,0.3,4.9,0.5c0.4,0.6-0.7,0.7-1.1,1c-0.6,0.3-1.1,0.6-0.5,1.2   c0.4,0.9,1.1,1.6,1,2.6c0,0.7,0,1.3,0.7,1.4c0.6,0.5,1.5,0.7,2.1,1.3c1,1.6,2.3,2.9,3.5,4.3c1,0.6,1.8,1.6,3,1.8   c0.4,0.4,0.3,1.2,0.5,1.7c0.1,0.9,0.6,1.7,1,2.5c1.4,0.4,2.9,0.7,4.3,1.2c0.3,0.7,0.3,1.5,0.5,2.3c0.1,0.7,0.3,1.3,0.4,2   c0.5,0.2,1.3,0,1.4,0.4c0.2,0.5-0.1,1.4,0.5,1.6c0.5,0.3,1,0.6,1.4,0.9c-0.1,0.2,0.9,0.4,1.2,0.7c0.5,0.4,0.6-0.3,1.3,0.2   c1.3,0.4,2.6,0.9,3.9,1.3c0.1,0.8,0.4,1.5,0.5,2.3c-0.3,1-1.3,1.4-1.9,2.1c-0.3,0.4-1.4,0.7-0.8,1.2c0.6,0.5,0.4,1.1-0.3,0.5   c-0.5,0-0.6-0.6-0.8-1.1c-0.1-0.8-0.6-0.8-1.2-0.6c-0.7,0.2-1.6-0.1-2.2,0.6c-0.5,0.5-1,0.9-1.7,1c-0.5,0-1.4,0.7-1.4,0.3   c0.3-0.5,0.7-0.8,0.6-1.5c0-0.9,0-1.7,0.1-2.6c-0.6-0.3-1.4-0.5-1.8-1c-0.4-1.3-1.3-2.1-2-3.2c-1-0.8-2.2-1.3-3.2-2   c-0.5-0.2-1.1-0.9-1.6-0.5c-0.6,0.1-1.4,0.9-1.9,0.3c-1.2-0.9-2.3-1.7-3.4-2.7c-0.7-1.1-1.9-1.7-2.9-2.5c-0.6,0-1.3,0.3-1.8,0   c-0.2-0.5,0-1.4-0.4-1.7c-0.9-0.4-1.9-0.6-2.7-1c-0.4-0.4,0-1.1,0-1.6c0.2-2.2,0.5-4.4,0.6-6.6l-3.5,3c-0.5-0.2-0.3-1.1-0.5-1.6   c0-0.7-0.9-0.4-1.4-0.6c-0.6-0.1-1.4-0.3-2-0.3l-1.9,0.9c0-1-0.1-2.1-0.1-3.1c-0.9-0.2-1.9-0.4-2.8-0.6c-0.3-1.2-0.5-2.5-0.8-3.7   c-0.5,0-1.5-0.1-0.5-0.2c0.6,0,1.4-0.3,1.7,0.4c0.7,0.8,1.7,1,2.6,1.4c0.9,0,1.8,0,2.7-0.1c1-0.6,2-1.1,3-1.7   c-0.3-0.9-0.5-1.7-0.9-2.6c0.3-0.6,0.6-1.3,0.9-1.9c-1-0.3-2-0.7-3-1c0.6-0.6,1.4-1.1,2-1.7c0.7,0.1,1.4,0.1,2-0.3   c0.6-0.3,1.4-0.6,2-0.9c0.2,0.6,0.5,1.2,0.6,1.8l2.3-2.5C288.7,632,288.8,632.1,288.9,632.1L288.9,632.1z M314.4,661.7   c-0.1,0.6,1,1.2,0,1.3c-0.6,0.3-1.3,0.6-2,1c0.3-0.7,0.5-1.5,0.7-2.2C313.6,661.8,314,661.7,314.4,661.7L314.4,661.7z"
   class="st1"
   id="path4"
   style="stroke:none;stroke-opacity:1;fill:#bca371;fill-opacity:1"
   inkscape:label="Braddon" />&#10;	<path
   d="M593,767.6l-3-1.5l-1,0.1l-1.4,0.8l-1.2,0.3l-2.8-0.9h-1.1l-3.4,1.1l-1.9,1.2l-2.2,0.3l-1.9,0.7   l-1.1-0.1l-1.6-1.1l-1.9-0.5l-1.9-0.3l0.6-3.2l0.9-0.8l0.2-1.9l-0.8-0.1l0.9-3.3l-1.1-1.1V748l-0.8-0.6l0.2-1l-1.7-0.2l2.8-2.3   l1.3,0.2l0.2-0.8l1.6-0.2l0.9-1.3l-0.2-1.3l3.4-1.4v-3.4l1.8-3.4l1.5-1.4l0.6-1.4l0.9,0.2l0.7,1.3l2.5,1.7l0.6,1.5l-0.9,1.4   l2.2,0.2l0.9,1.4l-1.5-0.1l-1.4,2l1.6,2l1.5,1.1l3.1-1.1l1.5,0.3l1.1,1.2l1.8,0.8l0.3,1l-0.9,0.9l1.4,0.8l-1.1,1.3l2.6,1.7   l-0.4,0.8l1.1,2l-0.5,1.6l-1,1.5l1.9,1.3l1.6,0.1l0.7,1.2l0.3,1.8l-0.8,2.3l-0.1,2l-1.5,0.4l-0.8,1.5l-0.3,2l-2.5,0.9L593,767.6   L593,767.6z"
   class="st2"
   id="path6"
   style="stroke:none;stroke-opacity:1;fill:#bca371;fill-opacity:1"
   inkscape:label="Clark" />&#10;	<path
   d="m 600.1,730 c -0.7,0.6 -1.5,1.3 -2.3,1.9 -0.7,-0.6 -1.5,-1.2 -2.3,-1.8 -0.9,0.8 -1.9,1.5 -2.8,2.3 0.4,0.8 -0.4,0.8 -0.9,0.8 -0.5,0.2 -0.8,0.8 -1.3,1.2 -0.5,0.7 -0.6,-0.9 -1.2,0 -1.3,0.8 -2.4,1.6 -3.7,2.3 0.4,1.1 0.8,2.1 1.2,3.2 1,0.5 1.9,1.2 3,1.6 0.5,0.2 1.2,0.1 1.6,0.4 -0.4,0.6 -0.6,1.1 0.2,1.4 0.8,0.6 1.9,1 2.3,2 0.6,0.8 1,2 2,2.4 0.6,0.2 0.8,0.7 0.7,1.4 0.1,1.2 0.2,2.4 0.4,3.6 0.9,0 1.9,-0.1 2.9,0 0.5,0.3 1.1,0.8 1.7,0.6 1.2,-0.1 2.3,0.2 3.3,0.4 0.1,0.6 0.2,1.2 0.8,1.4 0.5,0.2 0.7,0.9 0.8,1.4 -0.3,0.8 -0.9,1.5 -0.7,2.5 0.2,0.9 -0.5,1.7 -0.8,2.5 -0.6,0.7 0.3,0.7 0.7,1 1.4,0.6 2.6,1.1 4,1.7 1.1,-1.9 2.2,-3.9 3.3,-5.8 0.4,0.3 1.4,0.1 1.2,0.8 0,0.7 -1,0.7 -1.2,1.2 -0.1,0.7 0.1,1.4 -0.2,2 -0.6,0.2 -0.5,0.9 -0.5,1.5 0.2,0.8 -0.6,1.1 -1,1.6 -0.6,0.4 -0.7,0.9 -0.1,1.3 0.7,0.7 1.3,1.7 2,2.3 0.7,0 1.5,0.2 2.3,0.2 0.6,-0.5 -0.3,0.6 -0.3,1 -0.2,0.6 -0.5,1.2 -0.6,1.8 0.3,0.9 0.9,1.8 0.7,2.8 -0.5,0.6 -1.4,1 -2.1,0.7 -0.5,-0.1 -1.1,-0.3 -1.6,-0.4 0.3,-0.5 0.7,-1.1 0,-1.5 -0.5,-0.6 -1,-1.2 -1.4,-1.8 0.3,-0.7 0.2,-1.5 0,-2.2 -0.2,-0.5 0,-1.4 -0.5,-1.6 -0.5,-0.2 -1.3,-0.4 -0.7,-1.1 0.1,-0.5 0.7,-1.4 0.5,-1.5 -3.1,0.3 -6.1,0.7 -9.1,1 1.4,1.2 2.8,2.4 4.2,3.6 -0.5,1.4 -0.8,2.7 -1.3,4.1 0.9,0.4 1.9,0.6 2.7,1.1 0.7,0.4 0.5,0.9 -0.1,1.3 -0.5,0.5 -1.1,1.1 -1.6,1.6 1.5,1.6 3.1,3.3 4.5,4.9 0.7,-0.7 1.3,-1.6 2,-2.2 1.3,-0.6 2.5,-1 3.9,-1.2 1.3,1.8 2.5,3.6 3.9,5.3 1,-0.3 2.1,-0.7 3.1,-1 -0.2,-1 0,-2 -0.4,-3 -0.5,-0.9 -0.9,-1.9 -1.3,-2.8 1.4,-0.5 2.8,-0.8 4.2,-1 0.7,-0.4 1.5,-0.8 1.9,-1.6 0.4,-0.6 1,-1.2 1.3,-1.9 -0.1,-0.6 -0.1,-1.2 -0.2,-1.8 1.8,-0.3 3.6,-0.6 5.5,-0.9 -0.7,-0.9 -1.4,-1.7 -2.1,-2.6 0,-0.8 0.1,-1.7 0,-2.5 -0.6,-0.8 -1.4,-1.6 -2,-2.3 -0.5,0 0,-1 0,-1.5 0.1,-0.6 -0.5,-1.1 -0.7,-1.7 -0.4,-0.7 -0.6,-1.4 -1.4,-1.8 -0.5,-0.4 -1,-1.1 -1.7,-1.1 -0.2,-0.5 0.1,-1.5 -0.4,-1.6 -0.7,0.1 -1.4,0.1 -2.1,0.2 0.5,-1.3 0.9,-2.7 1.8,-3.8 0.4,-0.5 0.6,-1 1,-1.5 -0.4,-0.5 -0.7,-0.9 -1.1,-1.4 0.7,-0.9 1.7,-1.4 2.7,-1.9 1.2,-0.6 2.5,-0.9 3.8,-1.1 1,-0.2 2.1,-0.5 3.1,-0.3 0.8,0 1.5,0.2 2.2,0.6 1,0.4 2,0.9 3,1.3 0.5,-1.2 1,-2.5 1.5,-3.7 -1.3,-0.9 -2.6,-1.6 -3.7,-2.8 -0.5,-0.7 -1.5,-0.6 -2.3,-0.9 -1.4,-0.5 -2.8,-0.1 -4.2,-0.2 -1.2,0 -2.3,0.1 -3.4,0.4 -0.5,0.1 -1.2,0.4 -1.4,-0.1 0,-0.5 0.7,-1.4 0.2,-1.6 l -4.9,-1.2 c -0.2,0.8 -0.2,1.6 -0.4,2.3 -0.4,0.5 -1.1,0.8 -1,-0.2 -0.2,-0.5 0.2,-1.5 -0.5,-1.5 -0.8,-0.2 -1.7,-0.4 -2.5,-0.6 -0.4,-0.5 -0.5,-1.4 -1.2,-1.5 -0.6,0 -0.6,-0.7 -0.8,-1.2 -0.1,-0.7 -0.5,-1 -1.1,-1.1 -0.3,-0.6 -0.4,-1.5 -0.6,-2.2 -1.1,0 -2.2,-0.1 -3.3,-0.1 -0.3,0.3 -0.5,1.5 -0.9,1 -0.4,-0.6 -1.1,0.1 -1.5,-0.5 -0.6,-0.5 -1.4,-0.9 -2,-1.4 -0.2,-0.4 -1,-0.5 -1.4,-0.7 -0.8,-0.4 -1.6,-0.7 -2.4,-1.1 -0.5,0.4 -0.6,0.7 -0.9,0.9 z m -109.6,14.6 c -0.7,0.5 -1.4,1 -2.1,1.5 -0.1,1.1 -0.3,2.2 -0.3,3.3 0.3,0.8 0.5,1.8 0.8,2.5 0.5,0.3 0.2,1.1 0.4,1.7 0.1,0.6 -0.1,1.3 0.5,1.6 -0.7,0.6 -0.7,1.6 -1,2.5 -1.8,1.9 -3.8,3.7 -5.7,5.5 -7.6,7.4 -15.2,14.7 -22.9,22.1 -11.8,1.7 -23.7,3.5 -35.5,5.2 -6.8,-3.7 -13.6,-7.3 -20.3,-11 l -18.7,-2.7 c -0.3,1.2 -0.8,2.4 -0.9,3.6 -0.1,1 -0.1,2 -0.2,3 0.8,0.3 0.7,0.6 0,0.9 -0.6,0.3 -0.9,0.7 -0.3,1.3 0.4,0.7 0.9,1.2 1.2,1.9 0.2,0.5 -0.1,1.4 0.4,1.6 0.5,0.2 1.4,-0.1 1.4,0.4 -0.4,0.9 -0.5,2.1 -1.3,2.9 -0.6,0.2 -1.2,0.3 -1.8,0 -0.5,0 -1.4,-0.7 -1.4,-0.1 -0.3,0.7 -0.3,1.5 -0.6,2.1 -0.6,0.4 -1.4,0.5 -1.7,1.3 -0.5,0.6 -0.9,1.5 -1.7,1.4 -0.6,0 -1,0.4 -1.3,0.9 -0.3,0.5 -0.9,0.9 -0.9,1.5 l 0.3,3.3 c 0.7,0.3 -0.5,0.7 -0.7,1 -0.3,0.4 -1.3,0.6 -0.7,1.2 0.5,0.8 0.7,1.7 1.4,2.3 0.4,0.3 -1.1,1.1 -0.3,1.2 0.7,0.4 1.6,0.7 2.3,1.2 0.3,0.5 0.5,1.2 0.8,1.6 0.5,0.3 1.2,0.2 1.2,0.9 0,0.8 0.4,1.1 1.1,0.8 0.9,-0.1 1.8,-0.1 2.7,-0.2 -0.1,0.8 0,1.7 -0.2,2.5 l -1.4,1.5 c 0.2,0.3 1.4,1 0.7,1.1 -1.9,0.4 -3.8,0.8 -5.7,1.3 1.6,0.8 3.3,1.6 4.9,2.5 -0.2,0.6 -0.4,1.2 -0.5,1.8 0.5,0.2 1.2,0.2 1.6,0.6 0.3,0.5 0.2,1.4 0.8,1.3 0.7,0 0.9,0.2 0.5,0.8 0.3,0.5 0.6,1 1,1.5 -0.5,1.3 -1,2.6 -1.4,3.8 -0.5,0.4 -1,0.2 -1.4,-0.2 -0.5,-0.6 -0.9,-0.5 -1.1,0.3 -0.4,0.6 -0.6,1.3 -1,1.9 -0.8,-0.2 -1.5,-0.3 -2.3,-0.5 l -0.5,2.1 -3.3,0.9 c 1.4,1.4 2.6,2.8 4,4.1 0.8,0 1.7,0.2 2.5,0.1 0.5,-0.4 0.9,-1.1 1.4,-1.4 0.7,0 1.5,0 1.9,0.8 -0.1,0.5 -0.6,1.1 -0.8,1.6 -0.1,0.4 -1,1.2 -0.6,1.4 1.5,0.1 3,0.2 4.5,0.3 0.2,0.7 0.1,1.6 0.7,2.1 -0.4,0.6 -0.4,1.1 0.1,1.6 l 2.2,3.3 c -0.4,0.6 -0.8,1.2 -1.2,1.9 l 3.5,0.6 c -0.5,1 -0.2,2.1 -0.3,3.2 -0.2,0.7 0.4,1 0.7,1.4 0.6,0.3 0.4,1.1 0.5,1.7 0.5,0.4 1.1,0.7 0.6,1.4 l -0.5,2.4 c 0.5,0.4 0.5,1 0.4,1.6 -0.1,0.8 -0.3,1.6 -0.7,2.2 -0.2,0.5 -0.9,1.1 -0.2,1.5 1,1.2 1.9,2.4 2.9,3.6 0.6,-1.1 1.3,-2.3 1.8,-3.4 0.6,0.3 1.3,0.9 2,0.6 0.7,-0.1 1.5,-0.2 2.3,-0.3 0.2,-0.6 0.4,-1.3 0.5,-1.9 0.5,0.7 0.9,1.5 1.4,2.2 h 4.4 c 0,-1.1 0.3,-2.3 0.2,-3.4 -0.3,-0.5 -0.9,-0.9 -0.7,-1.5 0.5,0 1.2,0.1 1.6,-0.4 0.6,-0.4 1.2,-1.1 2,-0.9 h 2.8 c -0.2,-0.6 0.6,0.6 0.9,-0.3 0.5,-0.2 1.1,-1.1 1,-0.1 0.1,0.7 0.3,1.4 0.4,2 1.3,0.7 2.5,1.3 3.8,2 1,-0.4 1.9,-0.9 2.9,-1.3 0.3,-1 0.6,-1.9 0.8,-2.9 -0.1,-0.7 -0.5,-1.5 -0.5,-2.2 0.3,-0.6 0.7,-1.2 0.6,-1.9 1.4,-0.1 2.6,-0.2 4,-0.2 0.7,0.1 1.4,0.5 1.9,0.9 -0.5,0.5 -1.1,1 -1.6,1.4 0.2,0.5 1,1 0.6,1.5 -0.3,0.6 -0.6,1.2 -0.9,1.8 1.1,0.3 2.2,0.5 3.2,0.9 0.6,0.8 1.4,1.5 2,2.3 1.1,0 2.3,0.1 3.3,-0.1 0.9,-0.4 1.9,-0.6 2.7,-1.1 0.6,-0.6 1.2,-1.1 1.8,-1.7 -0.5,-0.7 -0.3,-1.1 0.5,-1.1 0.6,-0.2 1.2,-0.7 1.8,-0.2 0.4,0.5 1,-0.1 1.3,0 0.1,0.6 0.1,1.2 0.6,1.5 0.5,0.6 1.2,1.1 1.7,1.7 0.8,-0.2 1.7,-0.6 2.5,-0.7 0.7,0.3 1.3,1.1 1.9,1.5 0.5,0.7 0.9,0.1 1.4,-0.3 0.5,-0.7 1.4,-0.4 2.2,-0.5 0.9,-0.1 1.8,0.3 2.7,0.4 0.5,-0.1 1.1,-0.5 1.4,0.2 0.3,0.7 0.7,0.8 1.4,0.6 0.7,-0.1 1.5,0 2.3,-0.3 0.5,-0.4 0.9,-0.8 1.3,-0.1 0.5,0.5 0.8,0.9 1.3,0.2 1,-0.8 2.1,-1.5 2.9,-2.6 0.3,0.5 0.7,0.8 1.3,0.7 0.9,0 1.9,0.2 2.8,0.1 0.5,-0.3 0.8,-1 1.4,-1 1.8,0.6 3.5,1.3 5.3,1.9 -0.3,-0.8 -0.2,-1.1 0.5,-0.5 0.7,0.2 0.4,0.9 0.5,1.4 0,0.3 -0.6,0.8 0.1,1.3 0.6,0.9 1.2,1.9 1.8,2.7 0.7,0.2 1.4,0.5 2.2,0.7 0.5,-0.3 0.8,-0.9 1.3,-1 0.6,0.7 0.9,1.9 1.8,2.2 0.5,0.2 1,0.6 1.4,0.8 -0.5,0.5 -0.1,1 0.1,1.6 0.3,0.6 0.5,1.5 0.9,2 1,0.3 1.9,0.7 2.9,1 0.4,-0.8 0.8,-1.5 1.2,-2.3 0.6,-0.1 0.9,0.5 1,1.1 0,0.6 0.1,1.1 0.5,1.5 0.8,1.1 1.6,2.1 2.4,3.2 0.6,-0.1 1.4,-0.7 1.9,-0.2 0.5,0.4 1,0.3 1.4,0.1 0.6,-0.2 1.3,-0.3 1.7,-0.9 0.9,-0.8 1.7,-1.7 2.6,-2.5 0.5,-0.1 1.1,0.5 1.6,0.6 0.5,0.2 1.1,0.7 1.4,-0.1 0.4,-0.5 0.7,-1.1 1.4,-1.1 0.8,-0.2 1.6,-0.4 2.5,-0.6 0.2,-0.5 0.8,0.3 1.2,0.6 0.7,0.1 1.5,-0.2 2.1,0.5 0.5,0.5 1.1,0.7 1.4,1.3 -0.7,0.5 -1.4,1 -2.3,1.5 0.5,1.3 1.1,2.5 1.6,3.8 l 3.8,-2.4 c 0.7,0.2 1.4,0 2.2,-0.1 l 3,2.1 c 0.1,-1.3 0.3,-2.7 0.4,-4 0.5,-0.1 1.1,-0.3 1.6,-0.4 0,-0.8 0.7,-0.4 1.1,-0.9 1.8,-1.2 3.6,-2.5 5.5,-3.7 -0.5,-0.7 -0.8,-1.3 -1.3,-2 l 1.9,-1.8 c -1.3,-1.1 -2.5,-2.2 -3.9,-3.3 -0.3,0 -1.5,0.7 -1.1,0.2 0,-0.4 -0.7,-0.9 -1,-1.3 -0.6,-0.5 -0.5,-0.8 0.3,-0.5 1.2,0.2 2.3,0.4 3.4,0.6 l 0.3,-1.8 c 0.9,0 1.8,-0.5 2.6,-0.1 0.6,0.4 1.3,-0.3 1.9,-0.5 0.5,-0.2 1,-0.4 1.1,-1.1 0.2,-0.7 0.6,-1.4 0.3,-2.2 -0.4,-0.7 -0.3,-1.2 0.4,-1.5 1.4,-1.1 2.8,-2.2 4.2,-3.3 -0.4,-0.3 0.7,-0.6 1,-0.9 0.7,-0.2 0.6,-1.2 1,-1.9 0.1,-0.6 0.6,-1.3 0.2,-1.9 -0.3,-0.8 -0.6,-1.6 -0.9,-2.4 -0.5,-0.2 -1.4,0 -1,-0.8 0.1,-0.8 0.9,-0.3 1,0.2 0.4,0.3 0.5,1.4 1,1.1 1.5,-0.9 3.1,-1.9 4.6,-2.8 -0.6,-1.1 -1.3,-2.3 -1.9,-3.4 0.6,-0.6 1.2,-1.2 1.8,-1.8 -0.5,-0.3 -1.1,-0.6 -0.5,-1.2 0.3,-0.6 0.4,-1.3 1,-1.5 0.7,-0.5 1.5,-0.7 1.9,-1.6 0.4,-0.6 0.9,-1.1 0.8,-1.9 0.1,-0.6 0.1,-1.3 0.3,-1.8 0.9,-0.7 1.7,-1.5 2.6,-2.2 -0.9,-0.4 -1.9,-0.9 -2.8,-1.3 0.5,0.2 1.1,0.4 1.6,0.7 0.4,-1.3 0.8,-2.5 1.1,-3.7 -0.1,-0.5 0.7,-0.7 0.7,-1.4 0.3,-0.8 0.8,-1.6 0.7,-2.5 0.6,-0.1 1.3,0.1 1.7,-0.5 0.4,-0.4 1,-0.7 1.3,-1.2 0,-1.1 0,-2.2 -0.1,-3.3 -0.5,-0.2 -1.2,-0.2 -1.5,-0.5 0,-0.7 -0.5,-0.9 -1.1,-1 -0.7,-0.2 -1.4,-0.2 -1.9,-0.9 -0.7,-0.6 0.2,-0.6 0.7,-0.5 0.6,0 1.3,0 1,0.9 -0.1,0.7 0.9,0.2 1.4,0.3 0.8,-0.1 1.6,0 2.3,-0.2 0.4,-0.4 0.7,-1.2 1.3,-1 0.5,0.5 1.1,0.5 1.6,0.6 0,0.6 -0.2,1.3 -0.1,1.9 0.4,0.5 0.8,1 1.2,1.4 l -3.8,1.5 c 1.7,1.3 3.3,2.6 5.1,3.9 0.5,-1.2 1.1,-2.3 1.6,-3.5 0.5,0.3 0.8,1.1 1.3,1 0.9,-0.4 1.9,-1 2.8,-1.4 1,-0.1 2,0.1 2.9,0.4 0.8,0.2 1.6,0.7 2.4,0.3 0.6,-0.2 1.4,-0.2 2,-0.6 0.9,-1 1.8,-1.9 2.7,-2.9 0.2,-0.8 0.1,-1.7 0.5,-2.4 0.5,-0.7 0.9,-1.4 1.6,-1.9 0.5,-0.8 0.8,-1.7 1.1,-2.6 0,-1 0.1,-2.1 0,-3 -0.3,-0.6 -0.5,-1.3 -0.5,-2 0,-1 -0.5,-1.8 -0.8,-2.8 -0.2,-0.8 -1.1,-1 -1.6,-1.4 0.4,-0.4 0.9,-0.9 1.4,-1.3 l 3.3,2.4 c 0.5,-0.1 1.3,-0.4 0.9,0.5 0.1,0.4 -0.5,1.6 0.1,1.5 1.4,-0.3 2.9,-0.7 4.3,-1 -0.6,0.8 -1.2,1.7 -1.8,2.5 1.8,-0.5 3.6,-0.9 5.3,-1.4 0.5,0.4 0.8,0.7 1.4,0.4 0.9,-0.2 1.9,-0.3 2.8,-0.5 0.2,-0.5 0.1,-1.4 0.8,-1.1 0.5,0.2 0.4,1.1 0.4,1.6 -0.1,1 -0.6,0.2 -0.8,-0.3 -1.9,1.1 -3.8,2.3 -5.7,3.5 l 0.8,3.3 c 0.9,0 0,0.7 -0.2,1.2 -0.7,0.6 0.1,0.9 0.5,1.2 0.4,0.3 1.3,0.5 0.7,1.2 -1,1.2 -2,2.5 -3.1,3.7 -0.6,0.4 -1.2,0.8 -1.8,1.2 -0.2,-0.6 -0.6,-1.3 -0.6,-1.9 0.3,-0.6 0.5,-1.1 0.7,-1.7 -0.8,-1.2 -1.8,-2.2 -2.3,-3.6 -0.8,-1.8 -1.6,-3.7 -2.5,-5.5 -0.4,2.8 -0.7,5.7 -1.2,8.5 -0.6,0.4 -1.4,0.7 -1.7,1.4 -0.4,0.6 -0.9,1.1 -0.7,1.8 -0.1,0.6 0.1,1.3 -0.1,1.7 -0.5,0 -1.3,-0.4 -1.6,0.3 -0.9,0.8 -1.7,1.6 -2.6,2.3 -0.1,1 -0.1,2.1 -0.2,3.1 -0.6,0.3 -1.4,0.4 -1.8,0.8 -0.4,0.6 -1,1.2 -1.3,1.9 0.2,1 0.4,2 0.5,2.9 -0.7,-0.2 -0.9,0.3 -0.8,1 0,1 -0.5,-0.5 -0.6,-0.8 -0.1,-0.6 -0.7,-0.8 -0.9,-1 0.1,-1.1 0.3,-2.2 0.4,-3.3 -1.7,0.9 -3.5,1.9 -5.2,2.8 0.2,1.1 0.5,2.3 0.5,3.4 -0.4,0.5 -0.5,1 -0.1,1.6 0.1,0.4 0.7,1.1 0.5,1.3 -0.5,0.2 -1.4,-0.1 -1.3,0.7 -0.1,1 -0.4,2 -0.3,3 0.2,0.8 0.4,1.6 0.2,2.5 -0.1,0.6 -0.2,1.2 -0.3,1.9 -0.3,0.3 -1.4,0.6 -1.2,0.9 l 1.6,1.2 c -0.4,0.7 -0.7,0.9 -0.8,0 -0.6,-0.4 -1.5,-0.5 -1.9,-1.3 -0.5,-0.8 -1.3,-1.6 -1.4,-2.6 -0.3,-1 -1.3,-1.6 -1.9,-2.4 -0.4,-0.5 -0.8,-0.7 -1.4,-0.7 -0.6,0 0.1,-1 0,-1.5 0.5,-0.7 -0.5,-0.8 -0.9,-1.1 -0.7,-0.3 -1.4,-0.7 -2.1,-1 -0.9,0.9 -1.7,1.8 -2.6,2.7 0.4,0.7 0.7,1.5 1,2.2 -0.5,0.3 -0.9,0.7 -1.4,1 0.5,1.4 1.1,2.7 1.6,4.1 0.9,0.4 1.9,0.7 2.8,1.1 0.4,0.7 0.5,1.6 1.2,1.9 0.5,0.4 1,0.8 1.5,1.2 0,1.6 -0.1,3.2 -0.1,4.8 1.5,0.8 3,1.6 4.5,2.4 0.3,-0.6 0.6,-1.2 0.9,-1.7 0.3,0.6 0.8,0.7 1.4,0.7 1,0.1 1.9,0.2 2.9,0.3 0.5,-1.3 1.1,-2.7 1.6,-4 0.5,0.1 0.5,-0.9 0.8,-1.3 0.4,-1 0.7,-2 1.4,-2.8 0.6,-0.3 -0.1,-1.3 0.7,-1.1 1.2,0.1 2.3,0.3 3.5,0.5 0.3,0.5 0.9,1.2 0,1.2 -0.5,0.2 -1.3,0.2 -1.1,1 -0.1,1.1 -0.2,2.3 -0.3,3.4 0.5,0.6 1.1,1.1 1,1.9 0.1,0.7 0.3,1.5 0.4,2.2 1.1,-0.4 2.2,-0.8 3.3,-1.3 0.7,0.8 1.4,1.7 2.3,2.3 0.8,0.4 1.6,1 2.4,1.3 0.7,0 1.4,0.1 2.2,-0.1 0.7,-0.5 1.4,-1 2.1,-1.5 0.5,0 1.1,0.3 1.5,0.2 l 1.6,-2.4 c -0.4,-1.4 -0.5,-2.9 -1.1,-4.3 0.5,-1.2 0.7,-2.3 0.8,-3.6 0.2,-0.6 0.6,-0.8 1.3,-0.8 0.6,0 1.1,-0.2 1,-1 0.1,-0.7 0.4,-1.5 0.4,-2.3 -0.5,-0.6 0,-0.9 0.5,-1.2 0.2,-0.4 0,-1.3 0.4,-1.5 0.5,-0.2 1.2,-0.1 1.4,-0.6 0.3,-0.5 0.3,-1.4 0.8,-1.7 0.9,0.2 1.8,0.3 2.6,0.4 -0.1,-1 -0.1,-2 -0.2,-2.9 0.5,-0.4 0.5,-1 0.5,-1.6 0,-1 0.2,-2.1 -0.4,-3 -0.3,-1 -1.2,-1.4 -1.7,-2.1 -0.7,-0.7 -1.4,-1.3 -2.1,-2 -0.8,1.1 -1.5,2.3 -2.3,3.4 -0.5,0.6 -1,0.2 -1.5,0 -0.5,-0.3 -0.6,-1 -1,-1.5 -0.5,-0.6 0.2,-1.2 0.3,-1.8 0.3,-0.7 -0.6,-1.4 -0.1,-2.1 0.5,-0.6 -0.2,-1.2 -0.4,-1.8 -0.3,-0.6 0.3,-1.1 0.5,-1.7 0.7,-1.9 2.3,-3.1 3.6,-4.5 1.2,-0.9 2.3,-1.9 3.7,-2.5 1.2,-0.6 2.3,-1.2 3.6,-1.5 0.7,-0.5 0.7,0.4 0.8,0.9 0.2,0.6 0.2,1.4 0.9,1 1.3,-0.2 2.6,-0.5 3.9,-0.7 -0.1,-1.1 -0.5,-2.3 -0.1,-3.4 0.3,-0.9 0.3,-1.8 0.2,-2.8 -0.3,-1.3 -0.8,-2.5 -1.3,-3.8 -0.2,-0.6 -0.3,-1.4 -1,-1.1 -0.5,-0.1 -1.3,0.4 -1.4,-0.3 -0.2,-0.6 0.5,-1 0.6,-1.5 0.6,-0.5 0,-1 -0.3,-1.5 -0.2,-0.5 -0.8,-0.9 -0.8,-1.5 0,-0.5 0.7,-1.5 0,-1.5 -0.7,-0.1 -1.4,-0.3 -2.1,-0.4 0.5,-0.6 0.1,-1.4 0.2,-2.1 0.1,-0.6 1,-0.6 0.8,-1.3 0.1,-0.8 0.1,-1.7 0.2,-2.5 -0.5,-0.3 -1,-0.6 -1.4,-0.9 -0.1,-0.6 -0.5,-1.1 -0.8,-1.6 -0.5,-0.8 -0.8,-1.8 -1.6,-2.3 -0.5,-0.3 -0.2,-1.1 -0.4,-1.7 0.1,-0.8 -0.2,-1.2 -0.9,-0.9 -0.7,0.3 0.1,-0.8 0.1,-1.1 0.5,-0.6 -0.5,-0.9 -0.7,-1.3 -0.8,-0.6 -1.4,-1.4 -2.3,-1.9 -0.5,0.1 -1.2,0.2 -0.7,-0.6 0.5,-0.7 -0.1,-1 -0.5,-1.5 -0.6,-0.3 -0.3,-0.9 -0.5,-1.4 -0.4,-1 -0.5,-2.2 -1.3,-3 0.4,-0.6 -0.1,-1.1 -0.4,-1.6 -0.5,-0.5 0.6,-0.9 0.4,-1.6 -0.1,-0.7 0,-1.5 -0.1,-2.2 -0.9,-1 -1.8,-2.2 -2.8,-3.2 -1.3,-0.6 -2.4,-1.3 -3.6,-1.7 -0.8,0.1 -1.7,0.1 -2.4,0.7 -0.5,0.5 -1.3,0.6 -1.9,0.3 -1,-0.3 -2.1,-0.8 -3.2,-0.7 -1.1,0.1 -2.1,0.6 -3.1,0.9 -1.1,0.2 -2,0.9 -2.9,1.5 -1.1,0.1 -2.3,0.2 -3.3,0.8 -0.7,0.5 -1.3,-0.2 -1.9,-0.6 -0.8,-0.6 -1.8,-0.6 -2.7,-0.9 -0.5,-0.2 0.2,-1 0.5,-1.1 0.6,-0.3 0.4,-1.2 0.5,-1.8 l 0.3,-3 c -0.9,0.1 -0.2,-0.8 -0.2,-1.3 0.1,-0.6 0.5,-1.2 -0.1,-1.5 -0.6,-0.6 -1.2,-1.3 -1.9,-1.8 -5.5,-0.8 -11.1,-1.6 -16.6,-2.4 -0.4,0.3 -0.5,1.3 -1.1,1.1 -0.5,-0.2 -1.1,-0.7 -1.6,-0.3 -0.4,0 -1.2,0.8 -1.4,0.2 l -0.3,-3 c -1.1,-0.1 -2.2,0.1 -3.3,-0.1 -0.5,-0.2 -1.1,-0.4 -1.7,-0.2 -0.8,0.1 -1.5,0.3 -2.3,0.3 -0.8,-0.3 -1.6,-0.9 -2.4,-1.1 -1.1,0.3 -2.2,0.5 -3.2,0.9 -0.9,0.7 -1.9,1.3 -2.8,2 -0.3,1 -0.6,2 -0.9,3.1 0.5,0.3 1.2,0.4 1.5,0.8 0,0.5 0.6,1.4 0.1,1.6 -0.6,0.3 -1.4,0.5 -2,0.9 -0.2,0.9 -0.7,0.5 -1.2,0 -0.5,-0.5 -1.2,-0.1 -1.7,-0.2 h -3.3 c -0.1,0.4 0.4,1.7 -0.2,1.4 -0.3,-0.3 -0.2,-1 -0.6,-1.4 -0.5,-0.5 0.8,-1.1 0.2,-1.5 -0.4,-0.4 -0.9,-0.8 -1.1,-1.2 -0.1,-0.5 0.4,-1.4 -0.4,-1.5 -2.6,-1.2 -5.4,-2 -8.1,-3 -0.5,0.6 -0.9,1.4 -1.4,1.8 -0.6,-0.1 -1,-1 -0.8,-1.7 0.3,-0.7 -0.5,-1 -0.8,-1.5 -0.6,-0.7 -1.3,-1.3 -1.9,-2 -0.9,0 -1.8,0.3 -2.5,-0.3 -0.6,-0.3 -1.4,0.2 -2,-0.5 -0.7,-0.6 -1.4,-1.4 -2.2,-1.9 -0.8,0 -1.7,0 -2.5,-0.1 -0.1,-0.4 0.5,-1.6 -0.1,-1.4 -1.2,0.2 -2.4,0.5 -3.6,0.5 -0.7,-0.2 -1.4,-0.8 -2.1,-0.5 -0.5,0.3 -1.1,0.2 -1.5,-0.2 -0.5,-0.2 -1,-0.8 -1.4,-0.2 0,0.7 -0.1,0.7 -0.1,0.8 z m 98.1,34.1 c 0.5,1 0.7,2.2 1.5,3 0.6,0.7 1.1,1.6 1.8,2.3 1,0.1 1.9,0.6 2.9,0.2 0.4,0 1.6,-0.6 1.2,-0.1 -0.5,0.6 -1.4,0.6 -2.1,1 -0.7,0.1 -0.7,1 -1.1,1.6 -0.2,0.3 -0.5,1.5 -0.6,1.2 v -2.2 c -0.9,-0.5 -1.7,-1.2 -2.7,-1.6 -0.5,0 -1.1,-0.1 -1.4,-0.6 -0.5,-0.4 -1.1,-0.3 -1.5,-0.5 0.3,-0.6 0.9,-1.1 0.6,-1.9 0.6,0 0.5,-0.9 0.8,-1.4 0.2,-0.3 0.4,-1.5 0.6,-1 z m 3.7,9.9 c 0,0.6 -1.2,1.2 -0.5,0.4 0.2,-0.2 0.5,-1.2 0.5,-0.4 z m -2,3.1 c 0.2,0.7 0.4,1.4 0.6,2.1 -1.7,0.7 -3.5,1.3 -5.2,2 0.5,0.5 1,1 1.4,1.6 -0.6,0.7 -1.3,1.4 -1.9,2.2 -0.8,-0.3 -1.5,-0.6 -2.3,-0.9 0.4,-0.5 0.5,-1.2 1.2,-1.1 0.5,-0.2 1.4,0 1.4,-0.4 -0.2,-0.8 -0.5,-1.5 -0.6,-2.3 0.6,-0.1 1.3,-0.1 1.9,-0.2 0.3,-0.7 0.5,-1.5 0.8,-2.2 0.5,0.1 0.9,-0.6 1.4,-0.9 0.4,-0.1 1.1,-1.2 1.2,-0.6 0,0.3 0.1,0.5 0.1,0.7 z m -31.5,15.4 c -0.5,-0.2 -1,1.2 -1.2,0.4 -0.5,-0.6 0.5,-0.7 0.8,-1.1 0.2,0.2 0.3,0.5 0.4,0.7 z m -12.7,0.5 c 0.1,0.3 1,1.1 0.1,0.6 -0.3,-0.2 -0.6,-1.1 -0.1,-0.6 z m 10.9,3.1 c 0.2,0.5 0.8,1 0.7,1.6 -0.6,0.7 -1.2,1.4 -1.8,2.1 0.1,-0.7 -0.2,-1.2 -0.9,-1.2 -1,-0.2 -2,-0.3 -2.8,-1 -0.9,-0.6 -1.8,-1.1 -2.6,-1.7 -0.3,-0.8 0.8,-0.3 1.1,-0.1 0.5,0.4 0.9,1 1.4,1.2 0.8,-0.1 1.6,0.1 2.3,-0.4 0.6,-0.5 1.4,-0.7 1.9,-1.3 0.3,0.2 0.5,0.5 0.7,0.8 z m -141.7,17.1 c 0.8,0.9 1.6,1.8 2.3,2.7 0.5,-0.9 1.1,-1.8 1.6,-2.6 0.4,0.7 1.1,1.1 1.6,1.7 0.5,0.4 0.8,1 1.4,0.7 0.8,-0.4 0.5,0.5 0.5,1.1 0.4,0.6 0.4,1.1 -0.5,0.9 -1,0 -2.1,0.1 -3.1,0 -0.5,-0.3 -1,-0.6 -1.6,-0.5 -1,0.1 -2,0 -3,0.5 -0.9,0.3 -1.7,0.6 -2.6,0.9 0.4,0.6 0.7,1.2 1.1,1.7 -0.6,-0.2 -1.1,-0.6 -1.5,-1.1 0.1,-0.6 0,-1.3 0.6,-1.5 0.5,-0.4 0.3,-1.1 0.5,-1.6 0.2,-0.9 0.3,-1.8 0.6,-2.6 0.5,-0.2 0.9,-1 1.4,-0.8 0.4,0.1 0.6,0.3 0.7,0.5 z m 136.1,-0.2 c 0.3,0.7 0.6,1.5 0.9,2.2 -0.7,-0.4 -1.7,-0.2 -2.3,-0.6 -0.5,-0.4 -0.8,-1 -1.4,-1.2 0.7,-0.2 1.5,-0.5 2.3,-0.6 0,0 0.3,0.1 0.5,0.2 z M 540.6,848 c -0.6,0.1 -0.5,-0.3 0,0 z m -63.2,7.1 c 0,0.9 -0.4,0.8 -0.8,0.2 -0.2,-0.3 -0.3,-1.4 -0.2,-1.5 0.4,0.5 0.7,0.9 1,1.3 z m 59.7,1.5 c -0.3,0.4 -1.2,-0.3 -0.9,-0.7 0,-0.8 0.7,-0.6 1.3,-0.7 0.5,-0.1 1.4,-0.2 0.5,0.4 z m -59.9,1.9 c -0.7,-0.1 0.1,-0.6 0,0 z m -33.8,11.9 c -0.5,0.2 -1.2,0.2 -1.7,0.5 -0.5,0.7 -1,1.4 -1.4,2.1 0.7,1.3 1.4,2.7 2.1,4 1.3,0.1 2.5,0.3 3.8,0.4 0.7,-0.7 1.4,-1.6 2.3,-1.8 0.6,-0.2 1.3,-0.5 1.9,-0.7 l -1.1,-4.5 c -1.2,0.1 -2.3,0.4 -3.5,0.3 -0.7,-0.1 -1.5,-0.5 -2.3,-0.4 z m -9.3,5.1 -2.2,2.1 c 0.3,0.5 0.8,1.3 0.1,0.4 -0.5,-0.9 -0.5,0.5 -0.7,0.9 -0.8,2.6 -1.5,5.3 -2.3,7.9 1.8,-0.4 3.7,-0.8 5.5,-1.2 0.6,-0.8 1.2,-1.7 1.8,-2.5 -0.7,-0.8 -1.4,-1.7 -2.1,-2.5 l 4.1,-2.1 c -0.9,-1.5 -1.9,-2.9 -2.8,-4.4 -0.4,0.5 -0.8,0.9 -1.4,1.4 z"
   class="st1"
   id="path8"
   style="display:inline;stroke:none;stroke-opacity:1;fill:#bca371;fill-opacity:1"
   inkscape:label="Franklin" />&#10;	<path
   d="M717.8,382.7c-0.8,0.1-1.7,0.2-2.5,0.2c-0.4,0.4-0.6,1.1-1.3,0.8c-0.6-0.1-1.2-0.2-1.8-0.4v4.5   c0.9,0.4,1.8,0.9,2.7,1.2c0.9-0.2,1.9-0.5,2.8-0.7c0-0.8,0.6-0.8,1.2-0.7c0.5-0.1,1.5,0.4,1.2-0.5c-0.3-1.5-0.5-3-0.7-4.5   C718.7,382.6,718.3,382.6,717.8,382.7L717.8,382.7z M641.5,392.9c-0.7,1.1-1.3,2.3-2,3.3c-1,0.9-2.1,1.8-3.1,2.7   c1.2,0.8,2.3,1.6,3.4,2.4c1.1-0.7,2.3-1.3,3.4-2c0.7-1.6,1.5-3.2,2.3-4.8c-1-1.2-1.9-2.5-2.9-3.7   C642.3,391.6,641.8,392.3,641.5,392.9L641.5,392.9z M737.9,412.5c-0.4,0.5-1-0.3-1.4,0.3c-1.1,0.7-2.2,1.5-3.5,1.8   c-0.7,0-0.6,1.3-1.4,1.2l-2.4,0.6c0.2,0.6,0.4,1.1,0.5,1.7c-1.3-0.3-2.4-0.7-3.7-1c0,0.9-0.7,0.5-1.3,0.5c-2.4-0.4-5-0.7-7.3-1.2   l-2.2-0.6c-0.3,1-0.5,2.1-0.7,3.1c-0.9-0.3-1.7-0.6-2.6-0.9c-0.5,0.6-1.2,1.2-1.6,1.9c-0.1,0.8,0.1,1.7-0.5,2.2   c-0.7,0.3,0.3,1.1-0.2,1.5c-0.3,1.4-0.5,2.9-0.7,4.4c0.5,0.6-0.1,1-0.5,1.5c-0.2,0.4-1.3,1-0.6,1.3c0.4,0.4,1.1,0.5,1.2,1.1   c0,0.7,0.1,1.4-0.4,2c-0.5,1-0.5,2.3-0.7,3.4c-0.1,0.9,0.4,1.8,0.5,2.7c-0.1,0.7,1.1,0.8,0.2,1.2c-0.6,0.2-0.6,0.9-0.6,1.5   c-0.1,0.8-0.7,1.4-1,2.1c-0.1,0.5-0.9,1-0.5,1.5c0.2,0.5,0.9,1,0.6,1.5s-0.7,1-0.4,1.5c0.4,0.9,0.3,2,1,2.6c0.4,0.4,1.1,0.9,0.1,1   c-3.2,0.9-6.3,2-9.5,2.8c-3.3,0.8-6.6,1.4-9.9,2.3c-2.7-0.2-5.4-0.5-8-0.7c-1.8,7-3.5,14.1-5.3,21.1c-0.9,3.1-1.8,6.2-2.6,9.3   c-0.3,1.7-0.5,3.3-0.7,5c-13.3,0.6-26.6,1.1-39.9,1.7c1.4,1.7,2.9,3.5,4.3,5.2c0.5,0.3-0.1,1.1-0.1,1.5c-0.3,0.7-0.3,1.2,0.5,1.1   c0.4,0.2,1.4-0.1,1.3,0.5c-0.2,0.9-0.3,1.8-0.5,2.6l2.2,0.3c-0.1,1-0.1,2-0.2,3c0.6,0.7,1.1,1.5,1.8,2.2c-0.5,0.3-1.1,0.6-1.5,0.9   c0.3,0.3,1.5,0.6,1,0.9c-2.2,1.2-4.4,2.5-6.6,3.7c-0.4-0.4-0.7-1.1-1.2-1.3c-0.7,0.4-1.4,0.9-2.2,1.2c-1.1-0.2-2.3-0.4-3.3-0.6   c-1.2,0.7-2.3,1.4-3.6,2c0.2,0.7,0,1.2-0.7,1.4c-0.5,0.4-0.7-0.6-1.1-0.9c-0.4-0.8-0.9,0-1.4,0.2c-0.5,0.3-1,0.8-1.4,0   c-0.4-0.4-0.7-0.9-1.1-1.3c-0.7,0.3-1.4,0.9-2.1,1.1c-0.6,0-1.3,0-1.7,0.4c-2.2,1.2-4.3,2.5-6.5,3.7c0.6,0.5,0.6,0.9-0.1,1.1   c-0.5,0.3-0.7-0.9-1.2-0.9c-0.6,0.4-1.4,0.7-2,1.1c-1.4-1.5-2.9-3.2-4.2-4.9c-0.7-0.9-1.4-1.8-2.1-2.7c-1.8,1-3.6,2-5.3,3   c-0.5-0.5-1.1-1-1.5-1.6c-0.8,0.5-1.7,1-2.5,1.5c-0.4-0.5-0.8-0.9-1.2-1.4c-0.9,0.5-1.8,1.1-2.6,1.5c-0.4-0.3-0.6-1.4-1.2-0.9   c-0.5,0.5-1,0.5-1.4-0.2c-0.6-0.6-1-1.3-1.3-2.1c-0.3-0.6-0.4-1.3-1-1.5l-1.6-1.2l-3.3,2.4c-0.4-0.7-0.7-0.8-1.3-0.3   c-0.5,0.3-0.8-0.7-1.3-1c-0.4-0.4-0.9,0.1-1-0.8c-0.3-0.5-0.5-1.3-1-0.7c-0.7,0.4-1.4,0.9-2.3,1.3c0.1-0.3,0.3-0.6-0.4-1.1   c-0.8-0.8-1.4-1.8-2.3-2.5c-0.9-0.4-1.9-0.9-2.8-1.3c-0.5,0.5-1,0.2-1.4-0.2c-0.7-0.3-0.2-1.6-1-1.8c-0.5-0.3-1.2-0.4-1.4-0.9   c-0.3-0.6-0.4-1.3-1.1-1c-1,0-2.1-0.1-3.1-0.1c-0.2,0.6-0.3,1.2-0.5,1.7c-1.2-0.9-2.4-1.7-3.6-2.6c-0.3-1.2-0.5-2.5-0.7-3.7   c-1.5,1.3-3.1,2.7-4.6,4c0-0.5,0.4-1.3,0.2-1.7c-1.6-0.2-3.3-0.4-5.1-0.7c-1.1-0.9-2.5-1.2-3.6-2c0.5-0.4-0.5-0.8-0.7-1.3   c-0.5-0.5-1.2-1-1.4-1.8c-0.3-0.6-0.3-1.5-1-1.6c-0.7-0.3-1.4-0.6-1.9-1.2c-0.5-0.4-0.9-0.9-1.4-1.3c-0.8,0.7-1.5,1.6-2.3,2.2   c-1.2,0.2-2.3,0.5-3.6,0.6c-2.2-0.4-4.3-0.7-6.5-1.1c-0.5-0.4-1-0.9-1.6-0.8c-0.6,0-1.3-0.2-1.7-0.7c-0.5-0.1-1.1-1.1-1.4-0.6   c-0.4,0.3-0.5,1.3-1.1,1.2c-1.8-0.3-3.6-0.7-5.3-1.3c-2.4-0.7-4.8-1.5-7.2-2.2c0.4-1.4,0.7-2.8,1-4.2c-4.5-0.4-9-0.7-13.5-1.4   c-0.9-0.1-1.9-0.3-2.8-0.4c-0.1,0.8-0.3,1.5-0.4,2.3c-1.4-0.2-2.9-0.4-4.2-0.5c-0.3,1.2-0.4,2.4-0.7,3.5c-0.3,0.5-0.5,1.2-1.2,0.8   c-1.5,0-3-0.8-4.4-1.3c-0.2,0.8-0.3,1.6-0.5,2.5c-0.7,0-1.5-0.4-2.3,0c-1.5,0.6-3,1.3-4.6,1.7c-0.6,0.1-0.4-1-0.5-1.4   c0.1-0.8-0.6-0.9-1.1-1.2c-0.6-0.4-1.3-0.8-1.7-1.5c0.5-1,0-2-0.1-3l-0.3-2.1c-0.5-0.3-1.3-0.4-1.6-0.7c-0.3-1.1-0.6-2.2-0.9-3.3   c-2-0.3-4-0.7-6-1c-0.6,0.3-1,0.1-1.1-0.5l-4.6-0.6c0.5-0.3,1-0.5,1.5-0.8c-1.1-1.7-2.1-3.5-3.4-5c-0.6-0.7-1.3-1.4-1.8-2.2   c-1.8,1-3.7,1.9-5.5,3c-0.5,0.6-0.8,1.2-1.3,1.7c0.5,0.8-0.5,0.3-1,0.4c-1.9-0.2-3.9-0.5-5.8-0.8c-1.1,0.5-2.2,1.1-3.3,1.6   c-0.1,0.7-0.9,0.8-1.2,0.3c-0.5-0.3-0.7-1.2-1.2-1c-0.9,0.5-2,0.8-2.8,1.5c-0.8,0.8-1.6,1.5-2.4,2.3c0.2,0.9-0.7,0.5-0.8,1.2   c-0.5,1.3-0.9,2.6-1.3,3.9c-0.5,0.1-0.5,1-0.8,1.4c-0.4,0.8-0.6,1.8-1.1,2.5c-1.4,0.6-2.3,2.2-3.8,2.9c-0.5,0.4-1.3-0.1-1.7,0.1   c-0.5,0.3-0.7,1.2-1.4,0.9c-0.9,0.3-1.8,0.7-2.6,1.1c-0.2,1-0.3,2.1-0.5,3.1c-0.5,0.8-1.2,1.3-1.4,2.3c-0.5,0.3-1.2,0.6-1.7,0.9   c0,0.7,0.1,1.5-0.1,2.1c-0.7,1.1-1.4,2.3-2.1,3.4c0.6,0.3,1.3,0.5,1.9,0.8c0.1,0.4,0.3,1.5-0.4,1.4c-6.4-0.3-12.9-0.6-19.3-0.8   c-5.7,0.9-11.4,1.7-17.1,2.6c0,3.2-0.2,6.4-0.1,9.6c0.2,2.5,0.1,5,0.2,7.5c0,1.8,0,3.5,0.1,5.3c5.1,5.9,10.2,11.7,15.3,17.6   c2.3,7.8,4.8,15.5,7.2,23.2c2.1,6.7,4.2,13.3,6.2,19.9c0.5,1.6,0.9,3.2,1.4,4.7c-1.8,1.7-3.6,3.5-5.4,5.2l1.4,6   c-1.3,1.6-2.5,3.3-3.8,4.9c4,8.5,8,16.9,12,25.4c0.7,4,1.5,8,2.3,12.1c-0.1,0.7-0.2,1.4-0.3,2c0.8,0.5,1.8,0.7,2.3,1.7   c0.5,0.4,0,1.1,0,1.7c0.1,0.7-0.5,0.9-0.6,1.6c-0.2,0.9-0.5,1.8-0.7,2.7c0.1,0.7,0.5,1.5,0.4,2.2c-0.5,0.8,0.1,1.6,0.1,2.4   c0.2,0.6,0,1.5,0.6,1.6c0.4,0.3,1.2,0.5,1.3,0.8c-0.5,0.2-1.1,0.5-0.8,1.2c0.2,0.7-0.6,0.8-1,1.2c-0.3,0.4-1.4,0.6-0.7,1.1   c0.9,0.9,1.9,1.9,2.8,2.8c0.8-0.2,1.6-0.6,2.4-0.7c0.4,0.2-0.4,1-0.5,1.5c-0.3,0.4-0.4,1.1-0.7,1.4c-0.7,0.4-1.4,0.8-2.1,1.2   c-0.1,0.5,0.5,1.6-0.3,1.5c-0.6,0-0.7,0.9-1.1,1.3c-0.4,0.9-1.2,1.3-1.9,1.9c-1,0.1-2.1,0.3-3.1,0.4c0.8,1.3,1.6,2.7,2.4,4   c-0.5,0.1-1.1,0.1-1.5,0.2v2c-0.8,0.6-1.8,1.2-2.3,2.2c-0.6,0.3-1.4,0.2-2,0.7c-1,0.6-1.9,1.3-2.9,1.9c0.3,0.7,0.5,1.4,0.7,2.1   c-0.5,0.1-0.9,0.5-1.2,1c-0.5,0.7-0.8,1.4-1.3,2.1c0.5,0.7-0.3,1-0.8,0.8c-0.5,0.1-1.4-0.5-1.3,0.4c0,0.7-0.1,1.3-0.1,2   c-0.6,0.2-0.6,1.2-1,1.7c-0.3,0.6-0.5,1.1-0.7,1.7c0.6,0.2-0.3,0.9-0.4,1.4c-0.2,0.8-0.6,0.6-1.2,0.3c-0.5,0-1.4-0.7-1.4-0.3   c0,0.8,0.2,1.7,0.1,2.5c-0.6,0-0.9,0.5-1,1.1c-0.4,0.8-0.6,1.6-1,2.5c0.5,0.4,1,0.8,0.4,1.3c-0.3,0.5-1,0.3-1.5,0.6   c-0.6,0.1-1.4,0.3-2,0.4c-0.3,0.6-0.5,1.3-0.9,1.9c-0.9,0-1.9,0-2.8-0.1c-0.5,0.8-0.8,1.7-1.4,2.4c-0.5,0.1-1.1,0.8-1.5,0.4   c-1-0.8-2.1-1.5-3.1-2.3c-0.5,1.4-0.9,2.8-1.4,4.3c0.5,0.7,0,0.8-0.6,1c-0.8,0.4-1.7,0.7-2.5,1.1c-0.2,0.9-0.4,1.9-0.6,2.8   c0.7,1,1.6,1.9,2,3.1c3,5.7,6.1,11.4,9,17.2c1.5,2.9,3.1,5.7,4.5,8.6c-0.5,0.3-1.2,0.4-1.4,0.7c0.1,1.2,0.2,2.4,0.4,3.7   c0.4,0.4,0.9,0.8,0.8,1.5c-0.1,0.6,0.2,1.1,0.6,1.3c0.8,0.7,1.7,1.3,2.3,2.2c0.5,0.7,0.9,1.4,1.7,1.7c1.4,0.8,2.2,2.5,3.1,3.9   c0.5,0.4,0.4,1-0.1,1.4c-0.4,0.5,0.3,1.2,0,1.7c-0.7,0.6-1.4,1.2-2.1,1.8c0.1,0.7,0.4,1.4,0.3,2.1c-0.4,0.7-0.7,1.5-1.1,2.2   c0.6,0.6,1.3,1.3,2,1.8c5.8,0.8,11.5,1.7,17.3,2.5c6.9,3.7,13.8,7.5,20.7,11.2c12.5-1.8,24.9-3.7,37.4-5.5c10-9.7,20-19.3,30-29   c0.2-0.7,0.3-1.5,0.6-2.2c0.7-0.3,0.5-1.3,0.8-1.9c0.1-0.6,0.5-1.2,0.4-1.7c-0.4-0.5-1.1-0.7-0.9-1.5c0-0.8-0.1-1.7-0.1-2.5   c-0.5-0.3-1.1-0.6-0.9-1.4c0-0.8,0.8,0.2,1.2,0.2c0.7-0.1,1.4-0.6,2.1-0.2c0.4,0.3,1.4,0.1,1,0.8c0.2,0.4,1.1,0.1,1.5,0.2   c1.3,0,2.5,0.1,3.8,0.1c0.8,0.7,1.7,1.5,2.5,2.2c0.8,0.1,1.7-0.2,2.4,0.4c0.6,0.4,1.5-0.3,2,0.5c0.3,0.4,0.1,1.1,0.5,1.5   c0.5,0.8,0.6,1.8,1.4,2.1c0.6,0.4,1.2,1.2,2,1h2.1c0.4-0.4,0.6-1,1-1.2c1.4,0.5,2.7,0.9,4,1.4c-0.3,0.7,0.9,0.9,0.2,1.5   c0.3,0.7,1,1.3,1.3,2.1c0.1,0.5-0.3,1.4,0.1,1.7c0.8,0.5,1.8,0.6,2.3,1.5c0.6,0.8,1.3,1.6,1.9,2.5c0.9-0.9,1.9-1.8,2.8-2.7   c0.1-0.4-0.4-1.6,0.3-1.3c0.5,0.3,0.9,1,1.5,0.7c0.9,0,1.7-0.1,2.6-0.1c0.4-0.6,0.5-1.5,1.2-1.6c0.7-0.4,1.7-0.1,2.4-0.4   c0.8-1.2,1.6-2.3,2.4-3.5c-0.8-0.3-1.6-0.7-2.4-1c-0.2-0.7-0.4-1.5-0.5-2.2c0.6-0.6,1.4-0.8,2.3-1c0.8,0.3,1.5,0.8,2.3,1.1   c1.1-0.1,2.1-0.4,3.2-0.5c0.5,0.3,1.1,0.3,1.4,0.4c0,0.6,0.1,1.2,0.5,1.6c0.5,0.5,0.7,1.3,1.4,1.3c0.6,0.1,1.3,0.5,1.9,0.4   c0.5-0.2,1.1-0.7,1.6-0.3c0.6,0.3,1.4,0.6,2,0.9c0.4-0.6,0.8-1.2,1.2-1.8c5.4,0.8,10.8,1.6,16.2,2.3v-12.4   c-0.6-0.1-0.7-1.1-0.3-1.2c0.5,0.1,1.1,0.2,1.5,0.2c0.2-0.5,0.1-1.4,0.8-1.2c0.6,0.1,0.9-0.4,1.3-0.9c0.4-0.6,1-1.1,1.3-1.8   c-0.4-0.8,0.5-0.7,1-1c0.7-0.3,1.4-0.6,2.1-0.9c0-1.4,0-2.8,0.1-4.2c0.5-0.9,0.9-1.9,1.5-2.7c0.6-0.7,1.5-1.1,1.8-2.2   c0.3-0.3,0.3-1.5,0.9-1.1l1.9,0.9c-0.3,0.5-0.5,1.1-0.2,1.7c0.3,0.9,0.5,1.8,0.7,2.6c0.6,0.5,1.3,1.1,1.9,1.4   c0.6,0.1,1.4-0.1,2,0.1c0.5,0.5,0.8,1.3,1.3,1.7c1.6,0.5,3.2,1.1,4.8,1.6c-0.2-1.2-0.4-2.4-0.5-3.6c1.1-0.1,2.1-0.3,3.2-0.4   c-0.1-0.6-0.3-1.6,0.4-0.8c0.5,0.2,0.9,1.1,1.4,0.7c0.8-0.7,1.5-1.3,2.3-2c1.3,0.6,2.4,1.3,3.7,1.9c0.5-0.6,0.9-0.7,1.4-0.1   c0.4,0.5,1,0.4,1.4,0.6l2.2,2.1c0.5-0.9,1.1-1.9,1.6-2.8c0.5,0.3,0.7,1.3,1.3,0.8c0.5-0.3,1-0.8,1.4-0.1c1,0.7,1.8,1.8,3.1,2.1   c1,0.4,1.8,1.3,2.7,1.9c1.4-1.1,2.9-2.1,4.2-3.4c0.5,1.1,0.8,2.3,1.3,3.4c1.4-0.2,3-0.4,4.4-0.6c0.1-0.5-0.5-1.6,0.3-1.4   c0.9-0.1,1.7,0,2.5,0.3c0.8,0.2,1.6,0.8,2.4,0.5c0.1,1,0.5,1.9,0.9,2.7c0.4,0.8,0.6,1.6,1.1,2.3c0.5,0.3,1,0.7,1.5,1   c-0.6,1.6-1.3,3.2-1.9,4.9c1.8,0.5,3.6,1.1,5.4,1.6l-0.3,2.1c1.2,0.6,2.4,1.2,3.6,1.8c0.4-0.3,1.1-1.3,0.6-0.2   c0,0.5-0.6,1.4-0.2,1.6c1.4-0.2,3-0.2,4.4-0.4c0.6-0.4,1.3-0.9,1.9-1.3c0.5,0.1,1.2,0.7,1.7,0.3c0.7-0.4,1.4-0.7,2.2-1.1   c0.8,0.5,1.6,1.3,2.6,1.2c0.5,0.1,1.1,0.1,1.4,0.7c0.4,0.5,1.1,0.2,1.5,0.4c0.5,0.5,1,1.1,1.5,1.6c0.5-0.6,1-1.3,1.4-1.9   c1.3,0.4,2.6,0.7,3.9,1.1c0-0.5-0.2-1.5,0-1.7c0.4,0.5,0.8,0.7,1.4,0.7c0.4,0.4,0.3,1.2-0.1,1.6c-0.4,0.5-0.5,1-0.4,1.6   c0.1,0.9,0.2,1.7,0.3,2.6c0.7,0,1.4-0.1,2.1-0.1c0.1,0.5-0.5,1.3,0.2,1.5c1,0.5,0.1,0.3-0.5,0.3c-2-0.1-4.1-0.3-6.1-0.4   c2.2,2.1,4.3,4.3,6.6,6.4c0.5-0.4,0.9-0.7,1.4-0.2c0.2,0.4-0.4,1.1-0.4,1.7c-0.2,0.7-0.5,1.4-0.6,2.1c0.3,0.3,1.4,0.3,1.1,0.8   c-0.1,0.4-1.1,1.3-0.5,1.3c1.5,0.1,3.2,0.3,4.7,0.4c-0.5,0.7-0.7,0.2-1.4,0c-0.7-0.1-1.4-0.2-2.2-0.2c-0.8,1-1.7,2.1-2.5,3.1   c0.3,0.3,1.4,1.1,0.5,0.8c-0.5-0.1-1.3-0.1-1.2-0.9c-0.2-0.5,0-1.6-0.7-1.1c-0.9,0.3-1.9,0.5-2.8,0.8c-0.5-0.5-0.9-0.9-1.4-0.4   c-0.5,0.4-1,0.5-1.2-0.3c-0.8-1.5-1.6-2.9-2.5-4.4c-0.3,0.7-0.5,1.4-0.7,2.2c0.3-0.6-0.2-1.1-0.5-1.6c-0.6-0.9-1.2-1.8-1.8-2.7   c-0.5,0.6-1.1,1.3-1.6,1.9c-0.3-0.7-0.5-1.3-0.7-2c-0.5,0.1,0.6-0.6,0.9-0.8c0.5-0.5,0.5-1.3,0.9-2c0.2-0.6,0.6-1.3,0.6-1.9   c-0.5-0.6-0.4-1.1,0.1-1.5c-0.5-1.3-1-2.7-1.4-4c-1.2,0.2-2.3,0.5-3.4,0.7c0.3-0.8-0.5-0.9-0.9-1.1c-1.3-0.7-2.5-1.4-3.8-2   c-1.3,0.5-2.6,1-3.9,1.5c-0.1,0.3,0.4,1.7,0,1.3c-0.6-0.6-1.3-1.2-1.9-1.7c-1,1-2.1,1.9-3.1,2.9c0.6,1.1,1.3,2.3,1.9,3.4   c0.9,0,1.8-0.2,2.7-0.2c1,0.7,2.1,1.2,3,1.9c0.5,0.3,0.4,1.1,0,1.4c-0.4,0.8-0.9,0.3-1.4,0c-0.7-0.6-1.6-0.3-2.4-0.4   c-1.2-0.1-2.3,0.6-3.4,1c-0.7,0.3-1,1.1-1.5,1.7c-0.4,0.6-1.1,0.9-0.9,1.7c0.2,1-0.1,2.1,0.5,3c0.5,0.5,0.2,1.1,0,1.7   c-0.4,0.7,0,1,0.5,1.4c0.1,0.5-0.3,1.2-0.4,1.8c-0.1,1,0.1,2,0.1,3.1c0.5,0.6,0.8,1.3,1.4,1.8c0.7,0.2,1.5,0.3,2.3,0.6   c0.6,0.3,0.4,1,0.4,1.6c0,0.5-0.4,1.6,0.5,1.1c1.1-0.2,2.2-0.6,3.3-0.7c0.5,0.1,0.5,0.9,1.1,1.1c0.7,0.6,1.5,1.2,2.3,1.8   c1.2-0.3,2.3-1,3.6-0.8c0.6,0.3,0,0.3-0.5,0.3s-1.1,0-1.4,0.6c-1,1.3-2,2.5-3,3.8c0.6,1.1,1.4,2.2,2,3.4c-0.4,0.5-0.8,1.1-1.2,1.6   c0.8,1.1,1.5,2.3,2.3,3.3c0.9,0.1,0.3,0.8,0,1.3c-0.1,0.5,0.9,0.6,1.2,0.9c1.1,0.5,2.1,1.2,3.2,1.6c0.6,0.1,1.4-0.1,1.8,0.5   c0.7,0.6,1.4,1.2,2.3,1.9c0.5-0.3,1-1.3,1.6-0.8c0.5,0.4,1.2,0.5,1.5,1.1c-0.1,0.7-0.3,1.4-0.4,2.1c1.3,0.8,2.6,1.7,3.9,2.5   c0.9-0.3,1.8-0.6,2.6-0.9c-0.1-1.2-0.3-2.5-0.2-3.7c0.1-0.7,0.5-1,1.2-1.1c0.6-0.3,1.3-0.4,1.6-1.1c0.4-0.7,1-1.2,1.6-1.5   c0.4-0.2,0.8,0.6,1.2,0.8c1,0.8,2.1,1.6,3.1,2.3c1.4-1,2.8-1.9,4.2-2.9c-0.4-0.3-1.4-0.9-0.4-0.8c1.1,0,2.3-0.4,3.3,0.2   c0.6,0.5,1.2,1.2,2,1.3c0.5,0.1,1.1,0.6,1.4,0.1c0.7-0.8,0.5,0.3,0.5,0.8c0,0.7-0.1,1.4-0.1,2.1c1.2,0,2.3,0,3.5,0.1   c1.3,0.8,2.7,0.9,4.1,1.3c0.1,0.3-0.5,1.1-0.1,1.6l1.1,2.7c1.2-0.4,2.3-0.9,3.4-1.3c0.3-1.2,0.5-2.3,0.9-3.5c-0.9-0.3,0-0.6,0.4-1   l1.9-1.5c-1.8-0.5-3.6-0.9-5.3-1.5c-1.5-0.8-2.9-2-4.2-3.1c-0.2-0.6,0.6-0.9,0.9-1.4c0.5-0.7,1.4-1.2,1.4-2.2   c0-0.8,0.5-0.9,1.1-1.1c0.9-0.8,1.8-1.6,2.8-2.5c-0.3-1.1-0.5-2.2-0.8-3.4c-0.8,0-1.7,0.2-2.5,0.2c-0.4-0.4-1.3-0.5-0.9-1.1   c0.2-1.4,0.4-2.7,0.6-4.1c-0.6-0.3-1.4-0.5-1.9-0.9c-0.3-0.5-0.5-1.1-0.4-1.7c0.3-0.7-0.4-1-0.8-1.4c-0.6-0.4-0.8-1.2-1.1-1.9   c0-0.6-0.4-1.4,0.3-1.8c0.1-0.5-0.8-0.9-0.5-1.5c0.1-0.5,0.7-1.2,0.5-1.6c-0.8-0.6-1.5-1.5-2.4-2c-0.6,0-1.4,0.4-1.8-0.4   c-0.4-0.6,0.5-1,0.9-1.1c0.8-0.3,1.7-0.6,2.5-0.9c0.3-0.6,0.4-1.4,0.7-1.9c0.5-0.2,0.7-1,1.3-0.9c0.5,0,1.1,0,1.5-0.5   c1-0.7,2-1.4,2.9-2.1l1.4-2.4c-0.5-1.2-1.1-2.5-1.6-3.7c-0.9,0.1-0.4-0.5,0.1-0.9c0.5-0.3,0.6-0.9,0.7-1.5c0.2-1,0.5-2.1,0.6-3.1   l-2.3-2.6c-0.1-0.5,0.3-1.3-0.3-1.6c-0.5-0.4-1.2-0.7-1.6-1.1c-0.4-0.8,0-1.7,0.1-2.5c0.3-0.7,0-1.1-0.7-1.1   c-0.8-0.2-1.6-0.4-2.4-0.7c-0.7,0.5-1.4,1.3-2.3,1.3c-0.5,0-1.1,0.3-1.4,0.4c-0.3-0.4-1.2-0.6-1.1-1.2c0.2-0.6,0.4-1.1,0.5-1.7   c-1.5-0.9-3.1-1.9-4.7-2.7h-3.5c-0.1,1.1-0.2-0.3-0.2-0.8c-0.2-1.6-0.4-3.1-0.2-4.7c0.3-1.4,0.6-2.8,1.3-4.1   c0.5-1.4,1.5-2.3,2.3-3.5c0.5-0.8,1.4-1.1,2.3-1c0.9,0,1.8,0,2.7-0.4c1-0.2,1.5-1.3,2.3-1.9c0.5-0.5,0.9-0.9,1.4-1.4   c-0.2-0.5-0.8-1-0.7-1.5l0.8-2.7c-0.3-0.3-1.6-0.4-1-0.8s1.4-0.7,1.9-1.1c0.5-1.5,0.9-2.9,1.4-4.4c-0.2-0.3-1.2-0.8-0.9-1.1   c0.5-0.2-0.2-1.1-0.2-1.5c-0.3-0.8-0.5-1.6-0.7-2.4c-0.8-0.3-1.6-0.7-2.3-1c0.5-0.5-0.3-1.5,0.5-1.9c0.6-0.2,0.6-0.8,0.7-1.4   l0.3-2.1c-0.8-0.3-1.7-0.5-2.4-0.9c-0.5-0.6-1-1.4-1.8-1.6c-0.7-0.3-1.4-0.8-1.5-1.6c-0.3-0.7-0.4-1.5-0.7-2.2   c-0.7-0.4-0.6-0.5,0.2-0.3c0.3-0.1,0.9-1.4,0.9-0.5c0.1,0.5-0.1,1.6,0.6,1.1c0.6-0.2,1.3-0.5,1.9-0.7c0.5,0.3,1,0.9,1.4,1.1   c0.7-0.3,1.5-0.5,2.1-0.9l1.1-2.7c-0.5-0.7,0.3-0.7,0.7-0.9c0.7,0,0.9-0.5,0.7-1.2c0-0.9,0.3,0.7,0.7,0.6c0.8,0.1,1.7,0.1,2.5,0.2   c0.7-1,1.4-2.1,2.4-2.8c0.7-0.6,1.4-1.3,2.2-1.9c-1.2-0.8-2.3-1.5-3.5-2.3c-0.3-0.9-0.1-1.9,0.1-2.8c0.3-1,1.2-1.3,1.8-1.9   c0.8-0.3,0.3-0.9,0-1.5c-0.3-0.7,0.1-1.5,0.2-2.2c0.1-0.8,0.2-1.5,0.4-2.3c-0.8-0.1-1.7-0.2-2.5-0.3c-0.1-0.8-0.1-1.6-0.2-2.4   c-0.6-0.6-1.4-1.1-1.9-1.7c0.5-1,0.6-2.1,1.4-2.8c0.6-1,1.7-1.2,2.6-1.8c0.1-0.7,0-1.5,0.3-2.1c0.6-0.7,1.3-1.5,1.6-2.4   c0.3-0.6,0.6-1.3,0.9-1.9c-0.5-0.8-1.2-1.4-1.5-2.2c-0.4-0.7,0.3-1,0.6-1.5c0.5-0.6,1.2-1.2,1.7-1.8c-1.5-0.2-3.2-0.4-4.7-0.5   c0.1-0.7,0.8-1.1,1.2-1.6l1.4-1.5c-0.1-0.5-0.9-1.1-0.4-1.5c0.1-0.5-0.1-1.2,0.5-1.4c0.5-0.5,1.2-1,1.7-1.4   c-0.5-0.9-0.9-1.9-1.5-2.7c-0.5-0.2-1.4-0.4-0.5-0.9c0.5-0.6,1.2-1.1,1.7-1.8c0-0.6,0.3-1.1,0.8-1.4c0.4-0.4,1-0.7,1.3-1.3   c-0.1-0.8,0.5-0.9,1.1-1.2c0.8-0.4,1.6-0.9,2.4-1.3c0.3-0.9,0.4-1.9,0.7-2.8c0.4-0.9,1.3-0.9,2-1.3c0.5-0.2,1.1-0.4,1.5-0.6   l-1.9-2.1c0.4-0.7-0.3-1.4-0.5-2c0.2-0.6,0.3-1.2,0.2-1.9c1-0.7,1.9-1.4,2.9-2.1c-1.1-0.5-2.3-1-3.3-1.6c0.9-0.5,1.7-1.1,2.6-1.4   c1.4-0.4,2.9-0.6,4.3-0.7c2-0.2,4.1-0.2,6.1-0.1c2.1,0.2,4.2,0.3,6.3,0.8c1.2,0.3,2.4,0.2,3.5,0.9c0,0.7,0.2,1.1,0.8,1.3   c0.5,0.3,1,0.8,1.5,1c0.9-0.1,1.8-0.3,2.6-0.3c0.5,0.4,1.4,0.6,1.3,1.4c0.4,0.8-0.3,0.7-0.7,1c-0.8,0.7-1.8,1.4-2.3,2.4   c-0.3,0.5-0.8,0.9-0.6,1.5c0,1,0,2-0.1,3c0.9,0.1,1.9,0,2.8,0.2c0.7,0.6,1.2,1.6,1.8,2.3c-0.6,0.5-1.4,0.9-1.9,1.5   c-0.3,0.8-0.3,1.7-0.7,2.3c-0.3,0.6-0.8,0.7-1.4,0.8c-0.8,0.2-1.5,0.3-2.3,0.5c0.3,1.8,0.6,3.5,0.9,5.3c0.6,0.6,1.3,1.3,2,1.9   c1.1,0.2,2.3,0.5,3.3,0.7c0.4-0.7,0.5,0.7,0.5,1c-0.2,0.8-0.5,1.5-0.7,2.3c-1.4-0.1-2.7-0.6-4.1-1c-1.4,1.1-2.7,2.2-4.1,3.4   c0.1,1.2,0.2,2.3,0.3,3.5c0.7,0.8,1.3,1.7,2.2,2.1c0.7,0.4,1.4,0.9,2.2,0.8c0.8,0.2,1.7,0.1,2.5-0.2c0.8,0.1,1.6,0.6,2.4,0.9   c0.5,0.6,1,1.1,1.7,1.3c0.6,0.3,1.4,0.6,2.1,0.5c1,0.1,2,0,3-0.2c0.5,0.1,1.2,0.4,1.7,0.4c2.2-1.1,4.4-2.2,6.6-3.3   c-2.3-0.3-4.7-0.7-7-1l2.4-1.8c-1.4-0.5-2.8-1.1-4.2-1.6c0.1-0.6,0.3-1.2,0.4-1.8c-0.8-0.6-1.7-1.2-2.5-1.9   c1.4-0.6,2.7-1.3,4.1-1.9c-0.3-0.3-1.4-0.5-1-0.8l-0.3-1.8c0.7-0.2,0.7-0.7,0.5-1.4c0-0.6-0.2-1.4,0-2c0.2-0.7,0.8-0.4,1.3-0.7   l2.4-1.5c-0.2-0.8-0.5-1.5-0.6-2.3c0.5-0.6,1.1-1.1,1.3-1.9c0.2-0.7,0.5-1.3,0.6-2c-0.6-1.3-1.2-2.7-1.8-4c-0.6,0-1.4,0.3-2,0.2   c-0.6-0.7-1.5-0.9-2.4-1.3c0.6-0.6,0.8-1.7,1.3-2.5c-0.1-0.8,0-0.7,0.8-0.5c0.6,0.3,0.5-0.9,0.7-1.4c0-0.7,0.8-0.6,1.3-0.8   c0.3-0.4,0.2-1.1,0.4-1.6c0-0.6,0.5-1.3,0-1.7c-0.4-0.4-0.7-0.9-0.5-1.5c-0.1-0.5,0.4-1.5-0.2-1.6c-0.7-0.2-1.5-0.3-2.3-0.5   c-0.1-0.7,0.1-1.5,0.1-2.2c-0.7-0.7-1.7-1.1-2-2.1l-0.8-3.3c-0.8,0-1.6,0.1-2.4,0c-0.9-0.8-1.4-2.1-1.2-3.4   c0.1-1.7-0.2-3.5,0.3-5.1c0.4-1.1,0.6-2.3,1.1-3.4c0.5-0.8,1.4-0.7,2-1c0.4-0.3,1.4-0.2,1.4-0.7c-0.6-1.2-1.4-2.4-1.9-3.7   c-0.2-0.7,0.5-0.9,1-1c0.5-0.2,0.7-0.9,1.2-1.3c0.5-0.8,1.1-1.5,1.6-2.3c-1.1-1.6-2.2-3.3-3.3-4.9c0.7-0.5,0.6-1.5,0.9-2.3   c0.2-0.7,0.4-1.3,0.5-2c-1.2-0.1-2.3-0.1-3.4-0.3c-0.5-0.2-0.9-0.6-1-1.2c-0.6-0.6-1.4-1.1-2.1-1.8c-0.3-0.9-0.8-1.8-0.7-2.8   c0.1-1.3-0.5-2.5-0.4-3.8c0.1-1.1,0.5-2.1,0.8-3.1c0.5-0.8,1-1.5,1.2-2.4c0.3-0.8,0.6-1.5,1.2-2c1.1-0.3,2.2-0.6,3.3-1   c-0.4-1.5-0.7-2.9-1-4.4c-0.6-0.1-1.3,0.1-1.8-0.1c-0.7-0.7-0.7-1.9-0.5-2.9c0.1-0.8,0.5-1.7,1.2-2.2c0.3-0.4,1.3-0.8,0.6-1.3   c-0.4-0.6-0.9-1.2-1.2-1.9c0-1.1,0.2-2.2,0.6-3.2c0.5-0.6,0.8-1.4,1.4-1.9c0.9-0.2,1.3-1.2,1.8-1.8c0.5-0.4,0.3-1,0.2-1.6   c0.4-0.4,1.1-0.6,0.8-1.3c-0.2-1.3-0.4-2.6-0.2-3.9c0.1-1.2-0.6-2.2-0.5-3.4c-0.1-0.9-0.1-1.8-0.2-2.6c-0.6-0.3-1.4-0.5-2-0.9   c-0.4-0.7-0.7-1.5-1.1-2.2c-0.5,0-1.2,0.5-1.5,0c0.6-0.4,0.3-1,0-1.6c-0.4-1-1-2-0.9-3.1c-0.1-1.4-0.6-2.7-1-4   c0.1-1-0.6-0.5-0.9-0.8c-0.2-1.5-0.3-3,0-4.5c0-1.1,0.4-2.1,0.7-3.1c0.2-0.7,1.1-1.1,0.9-2c0-1-0.1-2,0.4-2.9   c0.3-1,1.2-1.8,1.5-2.8c0.1-1.2,0.1-2.5,0.5-3.6c0.1-0.6,0.3-1.1,0.9-1.2c0.7-1.4,1.6-2.7,2.3-4.2c0.5-1.3,0.8-2.5,1-3.9   c0.5-1.1,0.7-2.2,1.5-3c0.8-1.2,1.9-2.1,3.2-2.6c0.4-0.3,1.3-0.3,1.3-0.9c0-1.2,0-2.4,0.1-3.6c-1.1-0.1-2.2-0.4-3.2-0.3   c-0.5,0.6-0.9,0.5-0.5-0.3c0.3-0.7,0.5-1.4,0.8-2c-1.2-0.9-2.4-1.7-3.6-2.6c-0.4,0.2-1,1.4-1.1,0.6c-0.1-0.9-0.7-0.5-1.3-0.4   c-0.5,0.1-1.1,0.4-1.5,0.3c-0.5-0.7-0.9-1.6-1.4-2.4c-0.1-0.7-0.4-1.5,0.1-2.1c0.4-0.8,0.7-1.6,1.1-2.3c-1,0-2,0-3,0.1l-0.3-1.8   c0.6-0.5,1.3-1,1.6-1.8c0.4-0.6,0.6-1.2,1-1.8c-0.5-0.8-1.2-1.6-1.7-2.4c0-0.6-0.1-1.2-0.5-1.5c-0.6-0.5-0.4-1.5-0.5-2.3   c0.2-1.1,0.4-2.3,0.8-3.3c0.5-0.7,1.3-1.1,1.3-2.1c0-0.6,0.5-0.9,0.7-1.4c0.1-0.6,0.2-1.2,0.4-1.8c0.5,1,0.4-0.2,0.5-0.7   c0.1-1,0-1.9,0.3-2.9c-0.3-0.5,0-1.2,0-1.8c0.1-0.8,0.5-1.7,1-2.3c1-1.2,1.8-2.5,2.9-3.6l3.3-2.7c-0.2-1.4-0.5-2.7-0.6-4.1   c-0.8,0.3-1.5,0.5-2.3,0.8c-0.5-0.4-0.9-0.8-0.9-1.5c-0.3-0.6-0.1-1.6-0.9-1.8c-0.5-0.3-1.1-0.5-1.2-1.2c-0.4-0.9,0-1.9-0.1-2.8   c0.3-0.8-0.6-0.7-1.1-1c-0.6-0.2-1.2-0.5-1.6-1.1c-0.8-1-2-1.7-2.4-2.9c0-0.8-0.1-1.5-0.1-2.3c-0.9-0.5-1.7-0.9-2.6-1.4   C738.4,412,738.2,412.2,737.9,412.5L737.9,412.5z M734.5,600.8c-0.3,0.7-1,0.3-0.2-0.1C734.4,600.8,734.5,600.8,734.5,600.8z    M723.6,604.6c0.7,0.2,1.5,0.2,2.2,0.6c0.2,0.7,0.8,0.9,1.4,1.1c-0.2,0.2-0.9,0.6-1.4,0.7c-0.7,0.3-0.9,0.1-1.3-0.4   c-0.7-0.3-1.4-0.5-2.1-0.8c-0.3-0.7,0.5-0.9,0.9-1.3C723.5,604.5,723.7,604.1,723.6,604.6L723.6,604.6z M682.4,696.6   c-0.4,0.4-1.5-0.2-0.5-0.1C682.1,696.5,682.2,696.6,682.4,696.6z M709.3,696.9c-0.5,0.2-1.2,0.2-1.6,0.5c-0.3,0.5-0.4,1.3-0.7,1.7   c-0.5,0.2-1.4-0.1-1.4,0.6c-0.2,0.6-0.1,1.4-0.4,1.9c-0.5,0.4-0.9,0.9-1.4,1.3c0.1,0.5,0.8,1.2,0.3,1.6c-0.6,0.4-1.3,0.9-1.9,1.3   c0.5,0.7-0.5,0.9-0.8,1.2c-0.7,0.2-0.1,1,0,1.5c0.3,0.9,0.5,1.8,1.1,2.5c0.5,0.5-0.5,0.9-0.8,1c-0.5,0.3-1.2,0.4-1.5,1.1   c-0.6,0.9-1.3,1.7-1.9,2.6c1.5,0.5,3.1,1.1,4.6,1.6c0.5-0.2-0.2,1-0.2,1.3c-0.3,1.4-1,2.6-2,3.6c-0.6,0.8-1.4,1.6-1.7,2.7   c-0.4,0.5-0.3,1-0.2,1.5l0.5,3.3c1.2,0,2.3-0.1,3.5-0.1c0.9-0.9,1.9-1.8,2.8-2.7c1.9,0.1,3.7,0.2,5.6,0.3c-0.5-0.8,0.5-0.7,0.9-0.9   c0.7-0.2,1.4-0.4,2.1-0.5c0.3-1,0.6-2.1,0.8-3.1c-0.3-0.8-0.2-1.8-0.8-2.4c-0.4-0.5-0.8-0.9-0.5-1.6c0.2-0.7-0.6-0.9-0.9-1.3   c-0.4-0.4-1.1-0.8-1.2-1.2c0.5-0.4,1.2,0,1.7-0.1c0.7,0.1,1.4-0.3,2.2-0.2c0.5,0.5,1,0.7,1.5,0.7c0.5,0,1.2,0.3,1.7,0.2   c0.5-0.6,0.8-0.3,1.3,0.1c0.5,0.4,1.1,0.8,1.5,1.2c0.4-1,0.6-2.1,1.1-3.1c0.5-0.4,0.9-1.1,1.6-1c1.6-0.3,3.3-0.5,4.8-0.8   c-1.8-1.3-3.5-2.6-5.4-3.8c-0.6-0.2-1.3-0.2-1.7-0.8c0.2-0.6,0.5-1.3-0.3-1.5c-0.7-0.2-0.7-0.7-0.6-1.4c-0.1-0.5,0.3-1.3-0.1-1.6   c-0.4-0.4-1.1-0.5-1.2-1.1c0.1-0.7-0.3-1.1-0.8-1.4c-0.5-0.4-0.5-1.3-0.9-1.9c-1-0.2-2-0.6-2.9-0.6c-0.8,0.1-1.6,0.6-2.4,0.3   c-0.5-0.5-0.5-1.7-1.3-1.9c-0.5-0.3-1.1-0.7-1.7-0.9C709.5,696.8,709.3,696.9,709.3,696.9L709.3,696.9z M706.5,715.7   c0.4,0.4,0.9,1.3,0,0.8c-0.4-0.1-1.2-0.4-1.4-0.3C705.6,716,705.9,715.3,706.5,715.7z M680.2,744.5c0.1,0.7-0.5,0.8-1,1   c-0.6,0.2-1.2,0.4-1.8,0.6c0-0.6,0-1.3,0.5-1.8c0.2-0.9,0.7-0.5,1.3-0.3C679.5,744.2,679.9,744.3,680.2,744.5L680.2,744.5z    M677.4,747c-0.2,0.5,0.2,1.4-0.3,1.7c-0.8,0.5-1.6,1-2.4,1.6c0.1-0.9,0.1-1.7,0.6-2.4c0.3-0.4,1-0.1,1.4-0.2   C677.4,747.7,677.4,747.5,677.4,747L677.4,747z M673.5,751C673.8,750.6,674.4,750.5,673.5,751z M679.5,796.5   c-0.2,0.7,0.5,1.1,0.8,1.6c-0.1,2.1,0.2,4.3,0.3,6.4c-0.5-0.7-0.9-1.5-1.3-2.2c0.8,0,0.6-0.5,0.3-1.1c-0.5-0.8-0.8-1.7-1.3-2.4   c-0.5-0.3-1.2-0.6-0.4-1c0.5-0.4,0.1-1.2,0.2-1.7c0.5,0.4,1,0.3,1.4-0.2C679.5,796,679.5,796.4,679.5,796.5L679.5,796.5z    M680.7,805.8c-0.9-0.1,0-1.5,0-0.6V805.8z"
   class="st1"
   id="path10"
   style="stroke:none;stroke-opacity:1;fill:#bca371;fill-opacity:1"
   inkscape:label="Lyons" />&#10;</g>&#10;<g
   inkscape:label="Text"
   inkscape:groupmode="layer"
   id="layer1"
   style="display:none">&#10;	<path
   d="M 657.5,831.1 569.45141,744.16162"
   class="st3"
   id="path4476"
   sodipodi:nodetypes="cc" />&#10;	<g
   class="st4 st5"
   style="font-size:40px;font-family:Arial"
   transform="translate(201.5229,422.4761)"
   id="Braddon"><path
     id="path2656"
     style="font-size:40px;font-family:Arial"
     d="M 2.9296875,0 V -28.632813 H 13.671875 q 3.28125,0 5.253906,0.878907 1.992188,0.859375 3.105469,2.675781 1.132813,1.796875 1.132813,3.769531 0,1.835938 -0.996094,3.457031 -0.996094,1.621094 -3.007813,2.617188 2.597657,0.761719 3.984375,2.597656 1.40625,1.835938 1.40625,4.3359378 0,2.0117187 -0.859375,3.7499999 -0.839843,1.7187501 -2.089843,2.65625 -1.25,0.93750005 -3.144532,1.4257813 Q 16.582031,0 13.847656,0 Z M 6.71875,-16.601563 h 6.191406 q 2.519531,0 3.613282,-0.332031 1.445312,-0.429687 2.167968,-1.425781 0.742188,-0.996094 0.742188,-2.5 0,-1.425781 -0.683594,-2.5 -0.683594,-1.09375 -1.953125,-1.484375 -1.269531,-0.410156 -4.355469,-0.410156 H 6.71875 Z m 0,13.2226568 h 7.128906 q 1.835938,0 2.578125,-0.1367188 1.308594,-0.234375 2.1875,-0.78125 0.878907,-0.546875 1.445313,-1.5820313 0.566406,-1.0546875 0.566406,-2.4218749 0,-1.6015625 -0.820312,-2.7734378 -0.820313,-1.191406 -2.285157,-1.660156 -1.445312,-0.488281 -4.179687,-0.488281 H 6.71875 Z" /><path
     id="path2658"
     style="font-size:40px;font-family:Arial"
     d="m 29.316406,0 v -20.742188 h 3.164063 v 3.144532 q 1.210937,-2.207032 2.226562,-2.910157 1.035157,-0.703125 2.265625,-0.703125 1.777344,0 3.613282,1.132813 L 39.375,-16.816406 q -1.289062,-0.761719 -2.578125,-0.761719 -1.152344,0 -2.070312,0.703125 -0.917969,0.683594 -1.308594,1.914063 -0.585938,1.875 -0.585938,4.101562 V 0 Z" /><path
     id="path2660"
     style="font-size:40px;font-family:Arial"
     d="M 56.25,-2.5585937 Q 54.296875,-0.8984375 52.480469,-0.21484375 50.683594,0.46875 48.613281,0.46875 q -3.417968,0 -5.253906,-1.6601563 -1.835937,-1.6796874 -1.835937,-4.2773437 0,-1.5234375 0.683593,-2.7734375 0.703125,-1.2695312 1.816407,-2.0312495 1.132812,-0.761719 2.539062,-1.152344 1.035156,-0.273438 3.125,-0.527344 4.257813,-0.507812 6.269531,-1.210937 0.01953,-0.722657 0.01953,-0.917969 0,-2.148438 -0.996094,-3.027344 -1.347656,-1.191406 -4.003906,-1.191406 -2.480469,0 -3.671875,0.878906 -1.171875,0.859375 -1.738282,3.066406 l -3.4375,-0.46875 q 0.46875,-2.207031 1.542969,-3.554687 1.074219,-1.367188 3.105469,-2.089844 2.03125,-0.742188 4.707031,-0.742188 2.65625,0 4.316406,0.625 1.660157,0.625 2.441407,1.582032 0.78125,0.9375 1.09375,2.382812 0.175781,0.898438 0.175781,3.242188 v 4.6874998 q 0,4.9023437 0.214844,6.2109375 Q 59.960938,-1.1914063 60.625,0 H 56.953125 Q 56.40625,-1.09375 56.25,-2.5585937 Z m -0.292969,-7.8515623 q -1.914062,0.7812498 -5.742187,1.3281248 -2.167969,0.3125 -3.066406,0.703125 -0.898438,0.3906249 -1.386719,1.1523437 -0.488281,0.7421875 -0.488281,1.6601562 0,1.40625 1.054687,2.3437501 1.074219,0.9375 3.125,0.9375 2.03125,0 3.613281,-0.8789063 1.582032,-0.8984375 2.324219,-2.4414063 0.566406,-1.1914062 0.566406,-3.5156249 z" /><path
     id="path2662"
     style="font-size:40px;font-family:Arial"
     d="M 78.4375,0 V -2.6171875 Q 76.464844,0.46875 72.636719,0.46875 q -2.480469,0 -4.570313,-1.3671875 -2.070312,-1.3671875 -3.222656,-3.8085938 -1.132812,-2.4609375 -1.132812,-5.6445307 0,-3.105469 1.035156,-5.625 1.035156,-2.539063 3.105469,-3.886719 2.070312,-1.347657 4.628906,-1.347657 1.875,0 3.339844,0.800782 1.464843,0.78125 2.382812,2.050781 v -10.273438 h 3.496094 V 0 Z M 67.324219,-10.351562 q 0,3.9843745 1.679687,5.9570307 1.679688,1.9726563 3.964844,1.9726563 2.304688,0 3.90625,-1.875 1.621094,-1.8945313 1.621094,-5.761719 0,-4.257812 -1.640625,-6.25 -1.640625,-1.992187 -4.042969,-1.992187 -2.34375,0 -3.925781,1.914062 -1.5625,1.914063 -1.5625,6.035157 z" /><path
     id="path2664"
     style="font-size:40px;font-family:Arial"
     d="M 100.70312,0 V -2.6171875 Q 98.730469,0.46875 94.902344,0.46875 q -2.480469,0 -4.570313,-1.3671875 -2.070312,-1.3671875 -3.222656,-3.8085938 -1.132812,-2.4609375 -1.132812,-5.6445307 0,-3.105469 1.035156,-5.625 1.035156,-2.539063 3.105469,-3.886719 2.070312,-1.347657 4.628906,-1.347657 1.875,0 3.339844,0.800782 1.464843,0.78125 2.382812,2.050781 v -10.273438 h 3.49609 V 0 Z M 89.589844,-10.351562 q 0,3.9843745 1.679687,5.9570307 1.679688,1.9726563 3.964844,1.9726563 2.304688,0 3.90625,-1.875 1.621095,-1.8945313 1.621095,-5.761719 0,-4.257812 -1.640626,-6.25 -1.640625,-1.992187 -4.042969,-1.992187 -2.34375,0 -3.925781,1.914062 -1.5625,1.914063 -1.5625,6.035157 z" /><path
     id="path2666"
     style="font-size:40px;font-family:Arial"
     d="m 108.20312,-10.371094 q 0,-5.761719 3.20313,-8.535156 2.67578,-2.304688 6.52344,-2.304688 4.27734,0 6.99218,2.8125 2.71485,2.792969 2.71485,7.734376 0,4.0039057 -1.21094,6.3085932 -1.19141,2.2851563 -3.49609,3.55468755 -2.28516,1.26953125 -5,1.26953125 -4.35547,0 -7.05078,-2.7929687 -2.67579,-2.7929688 -2.67579,-8.0468753 z m 3.61329,0 q 0,3.9843752 1.73828,5.9765627 1.73828,1.9726563 4.375,1.9726563 2.61718,0 4.35547,-1.9921875 1.73828,-1.9921875 1.73828,-6.0742185 0,-3.847656 -1.75782,-5.820313 -1.73828,-1.992187 -4.33593,-1.992187 -2.63672,0 -4.375,1.972656 -1.73828,1.972656 -1.73828,5.957031 z" /><path
     id="path2668"
     style="font-size:40px;font-family:Arial"
     d="m 131.77734,0 v -20.742188 h 3.16407 v 2.949219 q 2.28515,-3.417969 6.60156,-3.417969 1.875,0 3.4375,0.683594 1.58203,0.664063 2.36328,1.757813 0.78125,1.09375 1.09375,2.597656 0.19531,0.976563 0.19531,3.417969 V 0 h -3.51562 v -12.617187 q 0,-2.148438 -0.41016,-3.203125 -0.41015,-1.074219 -1.46484,-1.699219 -1.03516,-0.644532 -2.44141,-0.644532 -2.24609,0 -3.88672,1.425782 -1.62109,1.425781 -1.62109,5.410156 V 0 Z" /></g>&#10;	<g
   class="st4 st5"
   style="font-size:40px;font-family:Arial"
   transform="translate(544.6877,406.7047)"
   id="Bass"><path
     id="path2647"
     style="font-size:40px;font-family:Arial"
     d="M 2.9296875,0 V -28.632813 H 13.671875 q 3.28125,0 5.253906,0.878907 1.992188,0.859375 3.105469,2.675781 1.132813,1.796875 1.132813,3.769531 0,1.835938 -0.996094,3.457031 -0.996094,1.621094 -3.007813,2.617188 2.597657,0.761719 3.984375,2.597656 1.40625,1.835938 1.40625,4.3359378 0,2.0117187 -0.859375,3.7499999 -0.839843,1.7187501 -2.089843,2.65625 -1.25,0.93750005 -3.144532,1.4257813 Q 16.582031,0 13.847656,0 Z M 6.71875,-16.601563 h 6.191406 q 2.519531,0 3.613282,-0.332031 1.445312,-0.429687 2.167968,-1.425781 0.742188,-0.996094 0.742188,-2.5 0,-1.425781 -0.683594,-2.5 -0.683594,-1.09375 -1.953125,-1.484375 -1.269531,-0.410156 -4.355469,-0.410156 H 6.71875 Z m 0,13.2226568 h 7.128906 q 1.835938,0 2.578125,-0.1367188 1.308594,-0.234375 2.1875,-0.78125 0.878907,-0.546875 1.445313,-1.5820313 0.566406,-1.0546875 0.566406,-2.4218749 0,-1.6015625 -0.820312,-2.7734378 -0.820313,-1.191406 -2.285157,-1.660156 -1.445312,-0.488281 -4.179687,-0.488281 H 6.71875 Z" /><path
     id="path2649"
     style="font-size:40px;font-family:Arial"
     d="M 42.890625,-2.5585937 Q 40.9375,-0.8984375 39.121094,-0.21484375 37.324219,0.46875 35.253906,0.46875 31.835938,0.46875 30,-1.1914063 28.164063,-2.8710937 28.164063,-5.46875 q 0,-1.5234375 0.683593,-2.7734375 0.703125,-1.2695312 1.816407,-2.0312495 1.132812,-0.761719 2.539062,-1.152344 1.035156,-0.273438 3.125,-0.527344 4.257813,-0.507812 6.269531,-1.210937 0.01953,-0.722657 0.01953,-0.917969 0,-2.148438 -0.996094,-3.027344 -1.347656,-1.191406 -4.003906,-1.191406 -2.480469,0 -3.671875,0.878906 -1.171875,0.859375 -1.738282,3.066406 l -3.4375,-0.46875 q 0.46875,-2.207031 1.542969,-3.554687 1.074219,-1.367188 3.105469,-2.089844 2.03125,-0.742188 4.707031,-0.742188 2.65625,0 4.316406,0.625 1.660157,0.625 2.441407,1.582032 0.78125,0.9375 1.09375,2.382812 0.175781,0.898438 0.175781,3.242188 v 4.6874998 q 0,4.9023437 0.214844,6.2109375 Q 46.601563,-1.1914063 47.265625,0 H 43.59375 q -0.546875,-1.09375 -0.703125,-2.5585937 z m -0.292969,-7.8515623 q -1.914062,0.7812498 -5.742187,1.3281248 -2.167969,0.3125 -3.066406,0.703125 -0.898438,0.3906249 -1.386719,1.1523437 -0.488281,0.7421875 -0.488281,1.6601562 0,1.40625 1.054687,2.3437501 1.074219,0.9375 3.125,0.9375 2.03125,0 3.613281,-0.8789063 1.582032,-0.8984375 2.324219,-2.4414063 0.566406,-1.1914062 0.566406,-3.5156249 z" /><path
     id="path2651"
     style="font-size:40px;font-family:Arial"
     d="m 50.214844,-6.1914063 3.476562,-0.546875 q 0.292969,2.0898438 1.621094,3.2031251 1.347656,1.1132812 3.75,1.1132812 2.421875,0 3.59375,-0.9765625 1.171875,-0.9960938 1.171875,-2.3242188 0,-1.1914062 -1.035156,-1.875 -0.722656,-0.4687499 -3.59375,-1.1914062 -3.867188,-0.9765625 -5.371094,-1.6796875 -1.484375,-0.722656 -2.265625,-1.972656 -0.761719,-1.269531 -0.761719,-2.792969 0,-1.386719 0.625,-2.558594 0.644532,-1.191406 1.738282,-1.972656 0.820312,-0.605469 2.226562,-1.015625 1.425781,-0.429688 3.046875,-0.429688 2.441406,0 4.277344,0.703125 1.855469,0.703125 2.734375,1.914063 0.878906,1.191406 1.210937,3.203125 l -3.4375,0.46875 q -0.234375,-1.601563 -1.367187,-2.5 -1.113281,-0.898438 -3.164063,-0.898438 -2.421875,0 -3.457031,0.800782 -1.035156,0.800781 -1.035156,1.875 0,0.683594 0.429687,1.230469 0.429688,0.566406 1.347657,0.9375 0.527343,0.195312 3.105468,0.898437 3.730469,0.996094 5.195313,1.640625 1.484375,0.625 2.324219,1.8359375 0.839843,1.2109375 0.839843,3.0078125 0,1.7578125 -1.035156,3.3203125 -1.015625,1.5429687 -2.949219,2.40234375 -1.933593,0.83984375 -4.375,0.83984375 -4.042968,0 -6.171875,-1.6796875 -2.109375,-1.6796875 -2.695312,-4.9804688 z" /><path
     id="path2653"
     style="font-size:40px;font-family:Arial"
     d="m 70.214844,-6.1914063 3.476562,-0.546875 q 0.292969,2.0898438 1.621094,3.2031251 1.347656,1.1132812 3.75,1.1132812 2.421875,0 3.59375,-0.9765625 1.171875,-0.9960938 1.171875,-2.3242188 0,-1.1914062 -1.035156,-1.875 -0.722656,-0.4687499 -3.59375,-1.1914062 -3.867188,-0.9765625 -5.371094,-1.6796875 -1.484375,-0.722656 -2.265625,-1.972656 -0.761719,-1.269531 -0.761719,-2.792969 0,-1.386719 0.625,-2.558594 0.644532,-1.191406 1.738282,-1.972656 0.820312,-0.605469 2.226562,-1.015625 1.425781,-0.429688 3.046875,-0.429688 2.441406,0 4.277344,0.703125 1.855469,0.703125 2.734375,1.914063 0.878906,1.191406 1.210937,3.203125 l -3.4375,0.46875 q -0.234375,-1.601563 -1.367187,-2.5 -1.113281,-0.898438 -3.164063,-0.898438 -2.421875,0 -3.457031,0.800782 -1.035156,0.800781 -1.035156,1.875 0,0.683594 0.429687,1.230469 0.429688,0.566406 1.347657,0.9375 0.527343,0.195312 3.105468,0.898437 3.730469,0.996094 5.195313,1.640625 1.484375,0.625 2.324219,1.8359375 0.839843,1.2109375 0.839843,3.0078125 0,1.7578125 -1.035156,3.3203125 -1.015625,1.5429687 -2.949219,2.40234375 -1.933593,0.83984375 -4.375,0.83984375 -4.042968,0 -6.171875,-1.6796875 -2.109375,-1.6796875 -2.695312,-4.9804688 z" /></g>&#10;	<g
   class="st4 st5"
   style="font-size:40px;font-family:Arial"
   transform="translate(479.608,612.1155)"
   id="Lyons"><path
     id="path2636"
     style="font-size:40px;font-family:Arial"
     d="M 2.9296875,0 V -28.632813 H 6.71875 V -3.3789062 H 20.820313 V 0 Z" /><path
     id="path2638"
     style="font-size:40px;font-family:Arial"
     d="M 23.261719,7.9882813 22.871094,4.6875 Q 24.023438,5 24.882813,5 q 1.171875,0 1.875,-0.390625 0.703125,-0.390625 1.152343,-1.09375 0.332032,-0.5273438 1.074219,-2.6171875 0.09766,-0.29296875 0.3125,-0.859375 L 21.425781,-20.742188 h 3.789063 l 4.316406,12.0117193 q 0.839844,2.2851562 1.503906,4.8046875 0.605469,-2.4218751 1.445313,-4.7265625 l 4.433594,-12.0898443 h 3.515625 L 32.539063,0.3515625 q -1.269532,3.4179687 -1.972657,4.7070313 -0.9375,1.7382812 -2.148437,2.5390625 -1.210938,0.8203124 -2.890625,0.8203124 -1.015625,0 -2.265625,-0.4296874 z" /><path
     id="path2640"
     style="font-size:40px;font-family:Arial"
     d="m 42.109375,-10.371094 q 0,-5.761719 3.203125,-8.535156 2.675781,-2.304688 6.523438,-2.304688 4.277343,0 6.992187,2.8125 2.714844,2.792969 2.714844,7.734376 0,4.0039057 -1.210938,6.3085932 -1.191406,2.2851563 -3.496093,3.55468755 -2.285157,1.26953125 -5,1.26953125 -4.355469,0 -7.050782,-2.7929687 -2.675781,-2.7929688 -2.675781,-8.0468753 z m 3.613281,0 q 0,3.9843752 1.738282,5.9765627 1.738281,1.9726563 4.375,1.9726563 2.617187,0 4.355468,-1.9921875 1.738282,-1.9921875 1.738282,-6.0742185 0,-3.847656 -1.757813,-5.820313 -1.738281,-1.992187 -4.335937,-1.992187 -2.636719,0 -4.375,1.972656 -1.738282,1.972656 -1.738282,5.957031 z" /><path
     id="path2642"
     style="font-size:40px;font-family:Arial"
     d="m 65.683594,0 v -20.742188 h 3.164062 v 2.949219 q 2.285157,-3.417969 6.601563,-3.417969 1.875,0 3.4375,0.683594 1.582031,0.664063 2.363281,1.757813 0.78125,1.09375 1.09375,2.597656 0.195313,0.976563 0.195313,3.417969 V 0 h -3.515625 v -12.617187 q 0,-2.148438 -0.410157,-3.203125 -0.410156,-1.074219 -1.464843,-1.699219 -1.035157,-0.644532 -2.441407,-0.644532 -2.246093,0 -3.886718,1.425782 -1.621094,1.425781 -1.621094,5.410156 V 0 Z" /><path
     id="path2644"
     style="font-size:40px;font-family:Arial"
     d="m 86.542969,-6.1914063 3.476562,-0.546875 q 0.292969,2.0898438 1.621094,3.2031251 1.347656,1.1132812 3.75,1.1132812 2.421875,0 3.59375,-0.9765625 1.171875,-0.9960938 1.171875,-2.3242188 0,-1.1914062 -1.035156,-1.875 -0.722656,-0.4687499 -3.59375,-1.1914062 -3.867188,-0.9765625 -5.371094,-1.6796875 -1.484375,-0.722656 -2.265625,-1.972656 -0.761719,-1.269531 -0.761719,-2.792969 0,-1.386719 0.625,-2.558594 0.644532,-1.191406 1.738282,-1.972656 0.820312,-0.605469 2.226562,-1.015625 1.425781,-0.429688 3.046875,-0.429688 2.441406,0 4.277344,0.703125 1.855471,0.703125 2.734371,1.914063 0.87891,1.191406 1.21094,3.203125 l -3.437499,0.46875 q -0.234375,-1.601563 -1.367187,-2.5 -1.113281,-0.898438 -3.164063,-0.898438 -2.421875,0 -3.457031,0.800782 -1.035156,0.800781 -1.035156,1.875 0,0.683594 0.429687,1.230469 0.429688,0.566406 1.347657,0.9375 0.527343,0.195312 3.105468,0.898437 3.730469,0.996094 5.195314,1.640625 1.48437,0.625 2.32422,1.8359375 0.83984,1.2109375 0.83984,3.0078125 0,1.7578125 -1.03516,3.3203125 -1.01562,1.5429687 -2.949214,2.40234375 -1.933593,0.83984375 -4.375,0.83984375 -4.042968,0 -6.171875,-1.6796875 -2.109375,-1.6796875 -2.695312,-4.9804688 z" /></g>&#10;	<g
   class="st4 st5"
   style="font-size:40px;font-family:Arial"
   transform="translate(389.4125,839.8154)"
   id="Franklin"><path
     id="path2619"
     style="font-size:40px;font-family:Arial"
     d="m 3.28125,0 v -28.632813 h 19.316406 v 3.378907 H 7.0703125 v 8.867187 H 20.507813 v 3.378907 H 7.0703125 V 0 Z" /><path
     id="path2621"
     style="font-size:40px;font-family:Arial"
     d="m 27.050781,0 v -20.742188 h 3.164063 v 3.144532 q 1.210937,-2.207032 2.226562,-2.910157 1.035157,-0.703125 2.265625,-0.703125 1.777344,0 3.613282,1.132813 l -1.210938,3.261719 q -1.289062,-0.761719 -2.578125,-0.761719 -1.152344,0 -2.070312,0.703125 -0.917969,0.683594 -1.308594,1.914063 -0.585938,1.875 -0.585938,4.101562 V 0 Z" /><path
     id="path2623"
     style="font-size:40px;font-family:Arial"
     d="M 53.984375,-2.5585937 Q 52.03125,-0.8984375 50.214844,-0.21484375 48.417969,0.46875 46.347656,0.46875 q -3.417968,0 -5.253906,-1.6601563 -1.835937,-1.6796874 -1.835937,-4.2773437 0,-1.5234375 0.683593,-2.7734375 0.703125,-1.2695312 1.816407,-2.0312495 1.132812,-0.761719 2.539062,-1.152344 1.035156,-0.273438 3.125,-0.527344 4.257813,-0.507812 6.269531,-1.210937 0.01953,-0.722657 0.01953,-0.917969 0,-2.148438 -0.996094,-3.027344 -1.347656,-1.191406 -4.003906,-1.191406 -2.480469,0 -3.671875,0.878906 -1.171875,0.859375 -1.738282,3.066406 l -3.4375,-0.46875 q 0.46875,-2.207031 1.542969,-3.554687 1.074219,-1.367188 3.105469,-2.089844 2.03125,-0.742188 4.707031,-0.742188 2.65625,0 4.316406,0.625 1.660157,0.625 2.441407,1.582032 0.78125,0.9375 1.09375,2.382812 0.175781,0.898438 0.175781,3.242188 v 4.6874998 q 0,4.9023437 0.214844,6.2109375 Q 57.695313,-1.1914063 58.359375,0 H 54.6875 q -0.546875,-1.09375 -0.703125,-2.5585937 z m -0.292969,-7.8515623 q -1.914062,0.7812498 -5.742187,1.3281248 -2.167969,0.3125 -3.066406,0.703125 -0.898438,0.3906249 -1.386719,1.1523437 -0.488281,0.7421875 -0.488281,1.6601562 0,1.40625 1.054687,2.3437501 1.074219,0.9375 3.125,0.9375 2.03125,0 3.613281,-0.8789063 Q 52.382813,-4.0625 53.125,-5.6054688 53.691406,-6.796875 53.691406,-9.1210937 Z" /><path
     id="path2625"
     style="font-size:40px;font-family:Arial"
     d="m 62.714844,0 v -20.742188 h 3.164062 v 2.949219 q 2.285157,-3.417969 6.601563,-3.417969 1.875,0 3.4375,0.683594 1.582031,0.664063 2.363281,1.757813 0.78125,1.09375 1.09375,2.597656 0.195313,0.976563 0.195313,3.417969 V 0 h -3.515625 v -12.617187 q 0,-2.148438 -0.410157,-3.203125 -0.410156,-1.074219 -1.464843,-1.699219 -1.035157,-0.644532 -2.441407,-0.644532 -2.246093,0 -3.886718,1.425782 -1.621094,1.425781 -1.621094,5.410156 V 0 Z" /><path
     id="path2627"
     style="font-size:40px;font-family:Arial"
     d="m 85,0 v -28.632813 h 3.515625 v 16.328126 l 8.320313,-8.437501 h 4.550782 L 93.457031,-13.046875 102.1875,0 h -4.335937 l -6.855469,-10.605469 -2.480469,2.3828128 V 0 Z" /><path
     id="path2629"
     style="font-size:40px;font-family:Arial"
     d="m 104.90234,0 v -28.632813 h 3.51563 V 0 Z" /><path
     id="path2631"
     style="font-size:40px;font-family:Arial"
     d="m 113.90625,-24.589844 v -4.042969 h 3.51562 v 4.042969 z m 0,24.589844 v -20.742188 h 3.51562 V 0 Z" /><path
     id="path2633"
     style="font-size:40px;font-family:Arial"
     d="m 122.79297,0 v -20.742188 h 3.16406 v 2.949219 q 2.28516,-3.417969 6.60156,-3.417969 1.875,0 3.4375,0.683594 1.58204,0.664063 2.36329,1.757813 0.78125,1.09375 1.09375,2.597656 0.19531,0.976563 0.19531,3.417969 V 0 h -3.51563 v -12.617187 q 0,-2.148438 -0.41015,-3.203125 -0.41016,-1.074219 -1.46485,-1.699219 -1.03515,-0.644532 -2.4414,-0.644532 -2.2461,0 -3.88672,1.425782 -1.6211,1.425781 -1.6211,5.410156 V 0 Z" /></g>&#10;	<g
   class="st4 st5"
   style="font-size:40px;font-family:Arial"
   transform="translate(657.4864,862.0448)"
   id="Clark"><path
     id="path2608"
     style="font-size:40px;font-family:Arial"
     d="m 23.515625,-10.039062 3.789063,0.9570308 q -1.191407,4.6679687 -4.296875,7.1289062 -3.085938,2.44140625 -7.558594,2.44140625 -4.628907,0 -7.5390627,-1.87500005 -2.890625,-1.8945312 -4.4140626,-5.46875 -1.5039062,-3.5742182 -1.5039062,-7.6757812 0,-4.472656 1.6992187,-7.792969 1.7187501,-3.339844 4.8632813,-5.058594 3.1640625,-1.738281 6.9531245,-1.738281 4.296876,0 7.226563,2.1875 2.929688,2.1875 4.082031,6.152344 l -3.730468,0.878906 q -0.996094,-3.125 -2.890625,-4.550781 -1.894532,-1.425781 -4.765626,-1.425781 -3.300781,0 -5.5273433,1.582031 -2.2070312,1.582031 -3.1054687,4.257812 -0.8984375,2.65625 -0.8984375,5.488282 0,3.652344 1.0546875,6.3867185 1.0742187,2.7148437 3.320312,4.0625 2.246094,1.3476563 4.863282,1.3476563 3.183594,0 5.390625,-1.8359376 2.207031,-1.8359375 2.988281,-5.4492182 z" /><path
     id="path2610"
     style="font-size:40px;font-family:Arial"
     d="m 31.464844,0 v -28.632813 h 3.515625 V 0 Z" /><path
     id="path2612"
     style="font-size:40px;font-family:Arial"
     d="M 53.984375,-2.5585937 Q 52.03125,-0.8984375 50.214844,-0.21484375 48.417969,0.46875 46.347656,0.46875 q -3.417968,0 -5.253906,-1.6601563 -1.835937,-1.6796874 -1.835937,-4.2773437 0,-1.5234375 0.683593,-2.7734375 0.703125,-1.2695312 1.816407,-2.0312495 1.132812,-0.761719 2.539062,-1.152344 1.035156,-0.273438 3.125,-0.527344 4.257813,-0.507812 6.269531,-1.210937 0.01953,-0.722657 0.01953,-0.917969 0,-2.148438 -0.996094,-3.027344 -1.347656,-1.191406 -4.003906,-1.191406 -2.480469,0 -3.671875,0.878906 -1.171875,0.859375 -1.738282,3.066406 l -3.4375,-0.46875 q 0.46875,-2.207031 1.542969,-3.554687 1.074219,-1.367188 3.105469,-2.089844 2.03125,-0.742188 4.707031,-0.742188 2.65625,0 4.316406,0.625 1.660157,0.625 2.441407,1.582032 0.78125,0.9375 1.09375,2.382812 0.175781,0.898438 0.175781,3.242188 v 4.6874998 q 0,4.9023437 0.214844,6.2109375 Q 57.695313,-1.1914063 58.359375,0 H 54.6875 q -0.546875,-1.09375 -0.703125,-2.5585937 z m -0.292969,-7.8515623 q -1.914062,0.7812498 -5.742187,1.3281248 -2.167969,0.3125 -3.066406,0.703125 -0.898438,0.3906249 -1.386719,1.1523437 -0.488281,0.7421875 -0.488281,1.6601562 0,1.40625 1.054687,2.3437501 1.074219,0.9375 3.125,0.9375 2.03125,0 3.613281,-0.8789063 Q 52.382813,-4.0625 53.125,-5.6054688 53.691406,-6.796875 53.691406,-9.1210937 Z" /><path
     id="path2614"
     style="font-size:40px;font-family:Arial"
     d="m 62.675781,0 v -20.742188 h 3.164063 v 3.144532 q 1.210937,-2.207032 2.226562,-2.910157 1.035157,-0.703125 2.265625,-0.703125 1.777344,0 3.613282,1.132813 l -1.210938,3.261719 q -1.289062,-0.761719 -2.578125,-0.761719 -1.152344,0 -2.070312,0.703125 -0.917969,0.683594 -1.308594,1.914063 -0.585938,1.875 -0.585938,4.101562 V 0 Z" /><path
     id="path2616"
     style="font-size:40px;font-family:Arial"
     d="m 76.09375,0 v -28.632813 h 3.515625 v 16.328126 l 8.320313,-8.437501 h 4.550781 L 84.550781,-13.046875 93.28125,0 h -4.335937 l -6.855469,-10.605469 -2.480469,2.3828128 V 0 Z" /></g>&#10;</g>&#10;</svg>
