<?xml version="1.0" encoding="UTF-8" standalone="no"?>
<!-- Created with Inkscape (http://www.inkscape.org/) -->

<svg
   width="120.02694mm"
   height="91.557755mm"
   viewBox="0 0 120.02694 91.557757"
   version="1.1"
   id="svg1"
   xml:space="preserve"
   xmlns="http://www.w3.org/2000/svg"
   xmlns:svg="http://www.w3.org/2000/svg"><defs
     id="defs1" /><g
     id="layer1"
     transform="translate(47.430606,-106.48286)"><path
       style="fill:#000000"
       d="m 40.198233,192.01114 -2.921153,-6.02947 -10.752807,-2.04232 c -5.914044,-1.12327 -10.818808,-2.14912 -10.899475,-2.27965 -0.254289,-0.41149 -3.270834,-11.14274 -3.161409,-11.2466 0.05738,-0.0545 3.378543,0.66127 7.380365,1.5905 4.001823,0.92924 13.526823,3.12722 21.166666,4.88441 l 13.890625,3.19489 3.373437,1.62032 c 1.952699,0.93791 3.373438,1.77692 3.373438,1.99216 0,0.35542 -2.886602,10.15872 -3.039877,10.32385 -0.17874,0.19256 -14.501466,4.02139 -15.04304,4.02139 -0.319275,0 -1.27383,-1.70949 -3.36677,-6.02948 z m 21.317395,-11.58856 -5.291666,-2.22908 -10.583333,-2.36425 c -5.820833,-1.30034 -19.691614,-4.38975 -30.823958,-6.86536 l -20.2406241,-4.5011 -8.5989579,-0.95519 c -23.00801,-2.55577 -29.146102,-3.25835 -29.204936,-3.34287 -0.03515,-0.0505 -1.054542,-1.62978 -2.265313,-3.50951 -2.084366,-3.236 -2.174935,-3.43707 -1.703596,-3.78211 0.273792,-0.20043 1.855361,-1.21713 3.514597,-2.25933 l 3.016792,-1.89492 5.714458,-0.32524 c 3.142951,-0.17887 5.977758,-0.33288 6.299571,-0.34224 0.703917,-0.0205 0.66243,0.12347 2.331074,-8.08679 1.174546,-5.77915 1.298118,-6.18891 2.455279,-8.14161 6.7349,-11.36511 19.126754,-20.57884 32.0794881,-23.8521 14.2747049,-3.60734 29.7722669,-0.57745 42.1316779,8.23705 2.757754,1.96678 7.468703,6.49232 9.581678,9.20457 6.157169,7.90345 9.216712,16.08675 9.793233,26.19375 0.172203,3.0189 -0.08749,5.5898 -1.185855,11.73981 -0.295525,1.65471 -0.537317,3.7603 -0.537317,4.67909 v 1.67054 l 2.408572,2.8015 c 1.681266,1.95554 2.334548,2.89952 2.16343,3.12611 -2.73568,3.62256 -5.470639,7.06668 -5.598311,7.04992 -0.09037,-0.0119 -2.545566,-1.02465 -5.455983,-2.25064 z m -1.626435,-45.55122 c -5.550951,-9.65308 -14.495837,-16.9614 -24.964189,-20.39673 -5.795785,-1.90196 -10.387166,-2.55202 -16.628611,-2.3543 -2.277649,0.0722 -5.197942,0.32743 -6.48954,0.56727 -5.6674726,1.05244 -12.51618203,3.92511 -17.7599727,7.44938 -3.0815874,2.07108 -7.1075233,5.48319 -8.5306263,7.22998 l -0.994373,1.22054 1.719791,-1.21039 c 14.9828627,-10.54502 32.298611,-13.25005 49.609374,-7.74988 8.310409,2.64047 16.685039,7.92174 22.41622,14.13628 1.199388,1.30054 2.217588,2.36462 2.262666,2.36462 0.04508,0 -0.243254,-0.56555 -0.640739,-1.25677 z"
       id="path1" /></g></svg>
